<svg width="20" height="20" viewBox="0 0 20 20" fill="none" xmlns="http://www.w3.org/2000/svg">
<path fill-rule="evenodd" clip-rule="evenodd" d="M4.20093 6.22949H6.16814V9.83604H10.7583V11.8033H6.16814V16.3935H10.7583V18.3606H5.18453C4.6413 18.3606 4.20093 17.9202 4.20093 17.377V6.22949Z" fill="#47463C"/>
<path fill-rule="evenodd" clip-rule="evenodd" d="M1.25 2.29509C1.25 1.02754 2.27754 0 3.54509 0H13.3811C14.6486 0 15.6763 1.02754 15.6763 2.29509V4.59016C15.6763 5.8577 14.6486 6.88525 13.3811 6.88525H3.54509C2.27754 6.88525 1.25 5.8577 1.25 4.59016V2.29509ZM3.54509 1.96721C3.364 1.96721 3.21721 2.114 3.21721 2.29509V4.59016C3.21721 4.77124 3.364 4.91804 3.54509 4.91804H13.3811C13.5623 4.91804 13.709 4.77124 13.709 4.59016V2.29509C13.709 2.114 13.5623 1.96721 13.3811 1.96721H3.54509Z" fill="#47463C"/>
<path fill-rule="evenodd" clip-rule="evenodd" d="M9.77466 10.4919C9.77466 9.22431 10.8022 8.19678 12.0697 8.19678H15.3484C16.6159 8.19678 17.6436 9.22431 17.6436 10.4919V11.1476C17.6436 12.4151 16.6159 13.4427 15.3484 13.4427H12.0697C10.8022 13.4427 9.77466 12.4151 9.77466 11.1476V10.4919ZM12.0697 10.164C11.8887 10.164 11.7419 10.3108 11.7419 10.4919V11.1476C11.7419 11.3287 11.8887 11.4755 12.0697 11.4755H15.3484C15.5294 11.4755 15.6763 11.3287 15.6763 11.1476V10.4919C15.6763 10.3108 15.5294 10.164 15.3484 10.164H12.0697Z" fill="#47463C"/>
<path fill-rule="evenodd" clip-rule="evenodd" d="M9.77466 17.0492C9.77466 15.7817 10.8022 14.7542 12.0697 14.7542H15.3484C16.6159 14.7542 17.6436 15.7817 17.6436 17.0492V17.7049C17.6436 18.9725 16.6159 20 15.3484 20H12.0697C10.8022 20 9.77466 18.9725 9.77466 17.7049V17.0492ZM12.0697 16.7213C11.8887 16.7213 11.7419 16.8682 11.7419 17.0492V17.7049C11.7419 17.886 11.8887 18.0328 12.0697 18.0328H15.3484C15.5294 18.0328 15.6763 17.886 15.6763 17.7049V17.0492C15.6763 16.8682 15.5294 16.7213 15.3484 16.7213H12.0697Z" fill="#47463C"/>
</svg>
