<svg width="20" height="20" viewBox="0 0 20 20" fill="none" xmlns="http://www.w3.org/2000/svg">
<g clip-path="url(#clip0_8_1928)">
<path d="M14.2916 8.37492C13.6781 8.38702 13.0778 8.19665 12.5833 7.83325C12.4907 7.77169 12.3868 7.72927 12.2775 7.70851C12.1683 7.68774 12.056 7.68905 11.9473 7.71234C11.8386 7.73564 11.7356 7.78046 11.6445 7.84416C11.5533 7.90786 11.4759 7.98915 11.4166 8.08325C11.3509 8.1614 11.3019 8.25214 11.2725 8.34991C11.2431 8.44769 11.234 8.55043 11.2457 8.65186C11.2574 8.75328 11.2897 8.85125 11.3406 8.93976C11.3914 9.02827 11.4599 9.10545 11.5416 9.16658C12.0778 9.54286 12.689 9.79871 13.3333 9.91658V10.8333C13.3333 11.0543 13.4211 11.2662 13.5774 11.4225C13.7337 11.5788 13.9456 11.6666 14.1666 11.6666C14.3877 11.6666 14.5996 11.5788 14.7559 11.4225C14.9122 11.2662 15 11.0543 15 10.8333V9.91658C15.4571 9.84918 15.8882 9.66233 16.25 9.37492C16.5112 9.18317 16.723 8.93201 16.8679 8.6422C17.0128 8.35239 17.0866 8.03225 17.0833 7.70825C17.0833 6.16658 15.6666 5.66658 14.4583 5.41658C13.25 5.16658 13 4.87492 13 4.66659C13 4.45825 13.0833 4.41659 13.2083 4.29159C13.4382 4.16801 13.6977 4.11033 13.9583 4.12492C14.4425 4.12072 14.9183 4.25051 15.3333 4.49992C15.4177 4.56875 15.516 4.6184 15.6215 4.6454C15.7269 4.67241 15.837 4.67613 15.9441 4.6563C16.0511 4.63648 16.1526 4.59359 16.2414 4.5306C16.3302 4.46762 16.4042 4.38606 16.4583 4.29159C16.5297 4.20638 16.5824 4.10709 16.6129 4.00018C16.6434 3.89326 16.651 3.78112 16.6353 3.67106C16.6196 3.561 16.5809 3.45549 16.5217 3.36139C16.4624 3.26729 16.3841 3.18672 16.2916 3.12492C15.8954 2.88036 15.4576 2.71087 15 2.62492V1.66659C15 1.44557 14.9122 1.23361 14.7559 1.07733C14.5996 0.921049 14.3877 0.833252 14.1666 0.833252C13.9456 0.833252 13.7337 0.921049 13.5774 1.07733C13.4211 1.23361 13.3333 1.44557 13.3333 1.66659V2.58325C12.0833 2.79159 11.25 3.62492 11.25 4.74992C11.25 5.87492 12.625 6.79158 13.9583 7.04158C15.2916 7.29158 15.3333 7.58325 15.3333 7.79159C15.3333 7.99992 14.875 8.37492 14.2916 8.37492Z" fill="#47463C"/>
<path d="M17.5833 13.2082C17.3519 13.0215 17.0844 12.8845 16.7977 12.8056C16.511 12.7267 16.2111 12.7078 15.9167 12.7498L11.7917 13.4998C11.7938 13.2429 11.7432 12.9883 11.6428 12.7517C11.5425 12.5152 11.3946 12.3018 11.2083 12.1248L8.25 9.1665H2.08333C1.86232 9.1665 1.65036 9.2543 1.49408 9.41058C1.3378 9.56686 1.25 9.77882 1.25 9.99984V13.7498C1.25 13.9709 1.3378 14.1828 1.49408 14.3391C1.65036 14.4954 1.86232 14.5832 2.08333 14.5832H3.45833L8.125 18.3748L16.625 16.8332C17.009 16.7582 17.3642 16.5766 17.6498 16.3091C17.9354 16.0417 18.1399 15.6992 18.2399 15.3209C18.3399 14.9426 18.3314 14.5438 18.2152 14.1702C18.0991 13.7965 17.8801 13.4631 17.5833 13.2082ZM16.3333 15.2082L8.54167 16.6248L4.16667 12.9998V10.8332H7.58333L10.0417 13.2915C10.108 13.3578 10.1452 13.4477 10.1452 13.5415C10.1452 13.6353 10.108 13.7252 10.0417 13.7915C9.97536 13.8578 9.88544 13.8951 9.79167 13.8951C9.6979 13.8951 9.60797 13.8578 9.54167 13.7915L8.08333 12.3332C7.92286 12.2128 7.72435 12.1544 7.52426 12.1686C7.32417 12.1828 7.13592 12.2687 6.99408 12.4106C6.85223 12.5524 6.76632 12.7407 6.7521 12.9408C6.73788 13.1409 6.79631 13.3394 6.91667 13.4998L8.375 14.9582C8.55676 15.1497 8.77691 15.3006 9.02103 15.4011C9.26516 15.5017 9.52777 15.5495 9.79167 15.5415C10.0468 15.5404 10.3 15.4982 10.5417 15.4165L16.2083 14.4165C16.326 14.4 16.4456 14.4299 16.5417 14.4998C16.5826 14.5364 16.6149 14.5814 16.6365 14.6318C16.6581 14.6822 16.6684 14.7367 16.6667 14.7915C16.6686 14.889 16.6364 14.9841 16.5754 15.0602C16.5145 15.1363 16.4289 15.1887 16.3333 15.2082Z" fill="#47463C"/>
</g>
<defs>
<clipPath id="clip0_8_1928">
<rect width="20" height="20" fill="white"/>
</clipPath>
</defs>
</svg>
