<svg width="20" height="20" viewBox="0 0 20 20" fill="none" xmlns="http://www.w3.org/2000/svg">
<path d="M9.23086 2.69236L8.57702 2.03852C8.38471 1.84621 8.11548 1.84621 7.92317 2.03852L3.84625 6.07698L2.1924 4.46159C2.00009 4.26929 1.73086 4.26929 1.53856 4.46159L0.884709 5.11544C0.692402 5.30775 0.692402 5.57698 0.884709 5.76929L3.15394 8.03852C3.34625 8.23083 3.57702 8.30775 3.80779 8.30775C4.03856 8.30775 4.26932 8.23083 4.46163 8.03852L9.23086 3.34621C9.38471 3.19236 9.38471 2.88467 9.23086 2.69236Z" fill="#47463C"/>
<path d="M18.6153 7.07702H10.5768C10.2307 7.07702 9.96143 6.80779 9.96143 6.46163V5.23086C9.96143 4.88471 10.2307 4.61548 10.5768 4.61548H18.6153C18.9614 4.61548 19.2307 4.88471 19.2307 5.23086V6.46163C19.2307 6.80779 18.9614 7.07702 18.6153 7.07702Z" fill="#47463C"/>
<path d="M18.6153 12.577H3.76919C3.42304 12.577 3.15381 12.3078 3.15381 11.9616V10.7309C3.15381 10.3847 3.42304 10.1155 3.76919 10.1155H18.6153C18.9615 10.1155 19.2307 10.3847 19.2307 10.7309V11.9616C19.2307 12.3078 18.9615 12.577 18.6153 12.577Z" fill="#47463C"/>
<path d="M18.6153 18.077H3.76919C3.42304 18.077 3.15381 17.8078 3.15381 17.4616V16.2309C3.15381 15.8847 3.42304 15.6155 3.76919 15.6155H18.6153C18.9615 15.6155 19.2307 15.8847 19.2307 16.2309V17.4616C19.2307 17.8078 18.9615 18.077 18.6153 18.077Z" fill="#47463C"/>
</svg>
