<svg width="68" height="63" viewBox="0 0 68 63" fill="none" xmlns="http://www.w3.org/2000/svg">
<g clip-path="url(#clip0_8_183)">
<path d="M34.6208 62.3318C34.292 62.3318 33.9599 62.3266 33.6339 62.3164L33.6413 62.0797C34.1094 62.0942 34.5871 62.0983 35.0574 62.0918L35.0606 62.3288C34.9142 62.3308 34.7676 62.3318 34.6208 62.3318ZM36.4866 62.2768L36.4727 62.0403C36.9415 62.0126 37.4163 61.9738 37.8839 61.9248L37.9087 62.1604C37.4375 62.2098 36.9591 62.2491 36.4866 62.2768ZM32.2092 62.2399C31.7365 62.2037 31.2587 62.1563 30.7892 62.0986L30.8182 61.8635C31.2841 61.9205 31.7581 61.9678 32.2272 62.0036L32.2092 62.2399ZM39.3239 61.9793L39.2884 61.7451C39.7542 61.6744 40.2235 61.5923 40.6831 61.501L40.7293 61.7334C40.2661 61.8254 39.7933 61.9081 39.3239 61.9793ZM29.3775 61.8926C28.9105 61.8135 28.4391 61.7225 27.9764 61.6221L28.0267 61.3904C28.4858 61.4902 28.9536 61.5804 29.417 61.6589L29.3775 61.8926ZM42.1221 61.4231L42.0652 61.1931C42.5224 61.08 42.9822 60.955 43.4318 60.8217L43.4991 61.049C43.0461 61.1834 42.5828 61.3093 42.1221 61.4231ZM26.5894 61.2873C26.1313 61.1654 25.6703 61.0314 25.2192 60.8887L25.2906 60.6628C25.7383 60.8044 26.1957 60.9373 26.6503 61.0582L26.5894 61.2873ZM44.8574 60.6117L44.7796 60.3879C45.2233 60.2336 45.6695 60.0669 46.1062 59.8921L46.1941 60.1122C45.7542 60.2882 45.3045 60.4563 44.8574 60.6117ZM23.8654 60.4261C23.4205 60.2625 22.9728 60.0861 22.5349 59.9016L22.6269 59.6831C23.0614 59.8662 23.5056 60.0413 23.9472 60.2036L23.8654 60.4261ZM47.5034 59.5529L47.4053 59.3372C47.8314 59.1436 48.2597 58.9369 48.6782 58.7229L48.7861 58.934C48.3643 59.1496 47.9327 59.3578 47.5034 59.5529ZM21.2304 59.3166C20.8027 59.1128 20.3734 58.8961 19.9546 58.6723L20.0663 58.4633C20.482 58.6853 20.9079 58.9005 21.3323 59.1028L21.2304 59.3166ZM50.0392 58.2567L49.9218 58.0509C50.3304 57.8178 50.7384 57.5727 51.134 57.3223L51.2606 57.5226C50.862 57.7748 50.451 58.0219 50.0392 58.2567ZM18.7102 57.9702C18.3034 57.7282 17.8961 57.473 17.4995 57.2118L17.63 57.014C18.0234 57.2732 18.4276 57.5264 18.8314 57.7665L18.7102 57.9702ZM52.4475 56.7331L52.3119 56.5389C52.6966 56.2701 53.0806 55.9885 53.4531 55.7022L53.5976 55.8901C53.2223 56.1786 52.8353 56.4623 52.4475 56.7331ZM16.3252 56.3993C15.9426 56.1215 15.5605 55.8304 15.1893 55.5341L15.3372 55.3489C15.7056 55.643 16.0848 55.9318 16.4644 56.2075L16.3252 56.3993ZM54.7082 54.9956L54.5554 54.8144C54.914 54.5118 55.2709 54.1964 55.6164 53.877L55.7772 54.0511C55.4292 54.3729 55.0696 54.6907 54.7082 54.9956ZM14.0944 54.6181C13.7381 54.3061 13.3842 53.9816 13.0424 53.6535L13.2065 53.4825C13.5457 53.8081 13.8969 54.1302 14.2505 54.4399L14.0944 54.6181ZM56.8024 53.0585L56.6337 52.8921C56.9643 52.5571 57.2914 52.2103 57.6055 51.8617L57.7817 52.0202C57.4651 52.3717 57.1356 52.7209 56.8024 53.0585ZM12.0357 52.6423C11.7089 52.2986 11.3861 51.9434 11.0763 51.5865L11.2553 51.4312C11.5627 51.7854 11.883 52.1379 12.2075 52.4789L12.0357 52.6423ZM58.7127 50.9383L58.5296 50.7879C58.8283 50.4244 59.1224 50.0493 59.4039 49.6729L59.5937 49.8147C59.3101 50.1941 59.0137 50.5722 58.7127 50.9383ZM10.166 50.4884C9.87251 50.1175 9.58349 49.7345 9.30696 49.3502L9.4993 49.2118C9.77374 49.5931 10.0606 49.9732 10.3519 50.3414L10.166 50.4884ZM60.4225 48.6519L60.2265 48.5189C60.4908 48.1297 60.7497 47.7292 60.9958 47.3282L61.1979 47.4522C60.9496 47.8562 60.6888 48.2599 60.4225 48.6519ZM8.50094 48.1745C8.2427 47.7786 7.98996 47.3712 7.74966 46.9634L7.9538 46.8431C8.19231 47.2477 8.44314 47.6521 8.69941 48.0449L8.50094 48.1745ZM61.9174 46.2179L61.7101 46.1034C61.9376 45.6916 62.1586 45.2687 62.3673 44.8465L62.5797 44.9516C62.3696 45.377 62.1467 45.803 61.9174 46.2179ZM7.05468 45.7196C6.83365 45.3018 6.61933 44.8732 6.41768 44.4457L6.632 44.3446C6.83214 44.7688 7.04479 45.1942 7.26415 45.6087L7.05468 45.7196ZM63.1831 43.6558L62.966 43.5607C63.1549 43.1293 63.3362 42.6876 63.5051 42.2479L63.7263 42.3328C63.5562 42.7761 63.3734 43.2211 63.1831 43.6558ZM5.83992 43.1444C5.65823 42.7083 5.48424 42.2622 5.3228 41.8183L5.54557 41.7373C5.70573 42.1779 5.87839 42.6205 6.05863 43.0532L5.83992 43.1444ZM64.208 40.9858L63.983 40.9113C64.1309 40.4656 64.2705 40.0101 64.3977 39.5573L64.626 39.6214C64.4976 40.0777 64.3569 40.5368 64.208 40.9858ZM4.86627 40.4664C4.72526 40.0147 4.59275 39.5534 4.47246 39.0949L4.7017 39.0347C4.82107 39.4897 4.95259 39.9476 5.0925 40.3958L4.86627 40.4664ZM64.9804 38.2392L64.7495 38.1855C64.8557 37.7287 64.9526 37.2622 65.0379 36.7992L65.271 36.8421C65.1851 37.3088 65.0873 37.7787 64.9804 38.2392ZM4.1424 37.7066C4.04357 37.2437 3.95412 36.7722 3.87658 36.3047L4.11035 36.2659C4.18736 36.7298 4.27612 37.1978 4.3742 37.6571L4.1424 37.7066ZM65.4969 35.4333L65.262 35.4012C65.3257 34.937 65.3795 34.4637 65.422 33.9943L65.6581 34.0156C65.6153 34.4887 65.561 34.9656 65.4969 35.4333ZM3.67534 34.8922C3.61944 34.4231 3.57356 33.9452 3.5389 33.472L3.77532 33.4547C3.80964 33.9244 3.85523 34.3985 3.91072 34.8642L3.67534 34.8922ZM65.7546 32.5922L65.5178 32.5816C65.5389 32.1119 65.5496 31.6356 65.5496 31.1659H65.7866C65.7867 31.6392 65.7759 32.1191 65.7546 32.5922ZM3.4671 32.0469C3.459 31.7563 3.45489 31.4598 3.45483 31.1659C3.45483 30.9835 3.4564 30.8015 3.45952 30.6198L3.69652 30.624C3.6934 30.8043 3.69183 30.9849 3.69184 31.1659C3.6919 31.4576 3.696 31.7519 3.70399 32.0404L3.4671 32.0469ZM65.5479 30.8353C65.5431 30.3654 65.5273 29.8891 65.5013 29.4196L65.7378 29.4064C65.7641 29.8795 65.7799 30.3594 65.7849 30.8327L65.5479 30.8353ZM3.75278 29.2091L3.51624 29.1943C3.54581 28.7207 3.58666 28.2424 3.63752 27.7726L3.87314 27.7982C3.82262 28.2644 3.78218 28.7391 3.75278 29.2091ZM65.3904 28.0081C65.3431 27.5408 65.2842 27.0681 65.2154 26.6029L65.4499 26.5683C65.5191 27.037 65.5785 27.5134 65.6263 27.9841L65.3904 28.0081ZM4.05765 26.3943L3.82343 26.3581C3.89604 25.8892 3.98041 25.4167 4.0742 24.9534L4.30646 25.0004C4.21342 25.4601 4.12969 25.9291 4.05765 26.3943ZM64.9763 25.2074C64.8859 24.7451 64.7839 24.2797 64.6731 23.8242L64.9033 23.7682C65.015 24.2272 65.1178 24.6962 65.2088 25.162L64.9763 25.2074ZM4.61903 23.6194L4.38915 23.5617C4.50423 23.1027 4.63171 22.6399 4.76803 22.186L4.99496 22.2542C4.85974 22.7046 4.73325 23.1639 4.61903 23.6194ZM64.3065 22.4564C64.1743 22.0052 64.0299 21.5513 63.8772 21.1071L64.1013 21.03C64.2552 21.4776 64.4008 21.9351 64.534 22.3898L64.3065 22.4564ZM5.4349 20.9041L5.21132 20.8255C5.36882 20.3775 5.53888 19.9273 5.71675 19.4875L5.93651 19.5764C5.75997 20.0128 5.59119 20.4595 5.4349 20.9041ZM63.3861 19.7789C63.2132 19.3428 63.0281 18.9051 62.8357 18.4779L63.0519 18.3805C63.2457 18.811 63.4323 19.2521 63.6064 19.6916L63.3861 19.7789ZM6.49862 18.2737L6.28326 18.1747C6.48121 17.7436 6.69188 17.3114 6.90945 16.8899L7.12006 16.9985C6.90412 17.4168 6.69507 17.8458 6.49862 18.2737ZM62.2262 17.2029C62.0141 16.7845 61.7893 16.3652 61.5582 15.9569L61.7644 15.8401C61.9974 16.2517 62.2237 16.6741 62.4375 17.0958L62.2262 17.2029ZM7.79942 15.7537L7.59401 15.6354C7.83043 15.2249 8.07976 14.814 8.33511 14.4141L8.53485 14.5417C8.28148 14.9385 8.03399 15.3463 7.79942 15.7537ZM60.8338 14.7423C60.5834 14.3436 60.3211 13.9464 60.0544 13.5618L60.249 13.4267C60.5179 13.8143 60.7822 14.2145 61.0344 14.6163L60.8338 14.7423ZM9.3249 13.3649L9.13118 13.2283C9.4044 12.8408 9.69006 12.4546 9.98042 12.0803L10.1677 12.2256C9.87957 12.597 9.59598 12.9803 9.3249 13.3649ZM59.2216 12.4178C58.936 12.0437 58.6386 11.6718 58.3374 11.3125L58.5191 11.1603C58.8225 11.5224 59.1222 11.897 59.41 12.2739L59.2216 12.4178ZM11.0613 11.1262L10.8809 10.9726C11.1875 10.6124 11.5071 10.254 11.8307 9.90714L12.004 10.0688C11.6828 10.413 11.3657 10.7688 11.0613 11.1262ZM57.4037 10.2484C57.0854 9.90182 56.7551 9.55835 56.4223 9.22761L56.5894 9.05946C56.9247 9.3928 57.2575 9.73882 57.5782 10.088L57.4037 10.2484ZM12.9935 9.05576L12.8278 8.88634C13.1666 8.55479 13.5174 8.227 13.87 7.91212L14.0279 8.08894C13.6779 8.4014 13.3298 8.7267 12.9935 9.05576ZM55.3955 8.25235C55.0465 7.9359 54.6863 7.62379 54.3248 7.3247L54.4759 7.14209C54.8401 7.44344 55.2031 7.75791 55.5547 8.07679L55.3955 8.25235ZM15.105 7.17021L14.9553 6.98644C15.3219 6.68793 15.7007 6.39352 16.0813 6.11139L16.2225 6.30176C15.8447 6.58181 15.4688 6.87395 15.105 7.17021ZM53.2129 6.44653C52.8364 6.16306 52.4491 5.88492 52.0617 5.61985L52.1954 5.42428C52.5859 5.69131 52.9761 5.97154 53.3555 6.2572L53.2129 6.44653ZM17.3781 5.48544L17.2458 5.28882C17.6381 5.02486 18.042 4.76639 18.4463 4.52041L18.5694 4.72293C18.1683 4.96699 17.7674 5.22355 17.3781 5.48544ZM50.8736 4.84659C50.4731 4.59871 50.0619 4.35708 49.6513 4.12829L49.7665 3.92126C50.1803 4.15178 50.5948 4.39532 50.9984 4.645L50.8736 4.84659ZM19.7941 4.01586L19.6803 3.8079C20.0954 3.58079 20.5209 3.36046 20.9452 3.1529L21.0493 3.36583C20.6283 3.57177 20.206 3.79043 19.7941 4.01586ZM48.3968 3.46675C47.9751 3.25665 47.5431 3.05367 47.1128 2.86348L47.2087 2.64672C47.6423 2.83836 48.0776 3.04291 48.5026 3.25463L48.3968 3.46675ZM22.3326 2.7742L22.2384 2.55675C22.6721 2.36876 23.1158 2.18846 23.5571 2.02083L23.6412 2.24244C23.2033 2.40874 22.763 2.58765 22.3326 2.7742ZM45.802 2.31981C45.3632 2.14963 44.9141 1.98727 44.467 1.8373L44.5425 1.61256C44.9929 1.76375 45.4455 1.92733 45.8877 2.09889L45.802 2.31981ZM24.9762 1.77035L24.9024 1.54515C25.3528 1.39749 25.8123 1.25844 26.2681 1.13201L26.3315 1.36034C25.8791 1.48584 25.4231 1.62378 24.9762 1.77035ZM43.1145 1.41797C42.6624 1.28911 42.2014 1.1691 41.7442 1.0613L41.7986 0.830666C42.2594 0.939274 42.7239 1.06021 43.1795 1.18999L43.1145 1.41797ZM27.7043 1.01322L27.6516 0.782178C28.1133 0.676693 28.5837 0.580587 29.0495 0.496571L29.0916 0.729755C28.6293 0.81319 28.1625 0.908548 27.7043 1.01322ZM40.3588 0.768291C39.8973 0.681672 39.4273 0.604603 38.9616 0.539214L38.9944 0.304527C39.4637 0.370432 39.9375 0.448082 40.4026 0.535338L40.3588 0.768291ZM30.4906 0.510401L30.4592 0.275479C30.9284 0.212872 31.4055 0.160219 31.8773 0.119139L31.8979 0.355216C31.4297 0.396062 30.9562 0.448257 30.4906 0.510401ZM37.5552 0.374425C37.0884 0.330449 36.6132 0.296541 36.1428 0.273801L36.1543 0.0370327C36.6282 0.0599992 37.107 0.094145 37.5774 0.138463L37.5552 0.374425ZM33.3111 0.264312L33.3012 0.0275434C33.7367 0.00937352 34.1807 0.000115886 34.6208 0L34.728 0.000168791L34.7273 0.237174L34.6208 0.236998C34.184 0.237114 33.7433 0.246317 33.3111 0.264312Z" fill="#E6E6E6"/>
<path d="M34.6953 62.1699V49.2102C34.6955 49.0286 34.7677 48.8546 34.8961 48.7262C35.0245 48.5978 35.1985 48.5256 35.3801 48.5254H36.9351C37.1166 48.5256 37.2907 48.5978 37.419 48.7262C37.5474 48.8546 37.6196 49.0286 37.6198 49.2102V62.1699C37.6196 62.3515 37.5474 62.5255 37.419 62.6539C37.2907 62.7823 37.1166 62.8545 36.9351 62.8547H35.3801C35.1985 62.8545 35.0245 62.7823 34.8961 62.6539C34.7677 62.5255 34.6955 62.3515 34.6953 62.1699Z" fill="#2F2E41"/>
<path d="M31.6199 62.1699V49.2102C31.6201 49.0286 31.6923 48.8546 31.8207 48.7262C31.949 48.5978 32.1231 48.5256 32.3047 48.5254H33.8596C34.0412 48.5256 34.2152 48.5978 34.3436 48.7262C34.472 48.8546 34.5442 49.0286 34.5444 49.2102V62.1699C34.5442 62.3515 34.472 62.5255 34.3436 62.6539C34.2152 62.7823 34.0412 62.8545 33.8596 62.8547H32.3047C32.1231 62.8545 31.949 62.7823 31.8207 62.6539C31.6923 62.5255 31.6201 62.3515 31.6199 62.1699Z" fill="#2F2E41"/>
<path d="M37.7677 44.9316H31.472C31.1228 44.9316 30.8398 45.2146 30.8398 45.5637V52.6755C30.8398 53.0246 31.1228 53.3076 31.472 53.3076H37.7677C38.1168 53.3076 38.3998 53.0246 38.3998 52.6755V45.5637C38.3998 45.2146 38.1168 44.9316 37.7677 44.9316Z" fill="#2F2E41"/>
<path d="M24.0357 24.5707C24.0357 24.5707 20.8584 26.0467 18.1697 27.0256C16.5013 23.2591 14.0976 23.4001 14.0976 23.4001L12.6403 24.4035L12.9031 25.9085L12.8315 28.3691L12.4492 29.6592L12.9977 29.7583L13.3076 29.8145L13.3543 29.7722C13.277 30.0786 13.2457 30.3948 13.2615 30.7103L27.0457 28.5603C27.0457 28.5603 26.568 26.3386 24.0357 24.5707Z" fill="#E6E6E6"/>
<path d="M19.9655 43.9426L20.8897 45.1931C21.0972 45.4738 21.493 45.5332 21.7737 45.3257L32.196 37.6231C32.4767 37.4156 32.5361 37.0198 32.3286 36.7391L31.4044 35.4886C31.1969 35.2078 30.8011 35.1484 30.5204 35.3559L20.0982 43.0585C19.8174 43.266 19.758 43.6618 19.9655 43.9426Z" fill="#FFE00B"/>
<path d="M37.7246 35.0637L36.3511 35.7926C36.0427 35.9562 35.9254 36.3389 36.089 36.6472L42.1641 48.0948C42.3277 48.4032 42.7104 48.5205 43.0187 48.3569L44.3923 47.628C44.7006 47.4643 44.818 47.0817 44.6543 46.7733L38.5793 35.3257C38.4156 35.0173 38.033 34.9 37.7246 35.0637Z" fill="#FFE00B"/>
<path d="M41.575 40.1444L39.3317 41.6315C38.9889 41.8135 38.5784 41.7109 38.4147 41.4026L35.9374 36.7343C35.7737 36.4259 35.919 36.0285 36.2618 35.8466L37.7886 35.0363C38.1314 34.8544 38.5419 34.9569 38.7056 35.2653L41.8993 39.2567C42.063 39.5651 41.9177 39.9625 41.575 40.1444Z" fill="#CCCCCC"/>
<path d="M26.2884 38.7767L27.7464 40.713C27.8611 40.8352 28.0197 40.9069 28.1873 40.9122C28.3549 40.9175 28.5177 40.856 28.6399 40.7413L32.4933 37.1244C32.6155 37.0097 32.6871 36.8511 32.6924 36.6836C32.6978 36.516 32.6363 36.3532 32.5215 36.231L31.4574 35.0972C31.3427 34.975 31.1841 34.9033 31.0165 34.898C30.8489 34.8927 30.6861 34.9542 30.5639 35.0689L26.3167 37.8833C26.1945 37.998 26.1228 38.1566 26.1175 38.3241C26.1122 38.4917 26.1737 38.6545 26.2884 38.7767Z" fill="#CCCCCC"/>
<path d="M38.1523 34.8774H31.0872C30.7381 34.8774 30.4551 35.1604 30.4551 35.5095V50.5195C30.4551 50.8686 30.7381 51.1516 31.0872 51.1516H38.1523C38.5014 51.1516 38.7844 50.8686 38.7844 50.5195V35.5095C38.7844 35.1604 38.5014 34.8774 38.1523 34.8774Z" fill="#CCCCCC"/>
<path d="M34.5785 33.898C37.6924 33.898 40.2168 31.3736 40.2168 28.2596C40.2168 25.1457 37.6924 22.6213 34.5785 22.6213C31.4645 22.6213 28.9402 25.1457 28.9402 28.2596C28.9402 31.3736 31.4645 33.898 34.5785 33.898Z" fill="#FFE00B"/>
<path d="M35.2358 30.1421C34.8874 30.1323 34.4539 30.1201 34.1202 29.8763C34.0208 29.8007 33.939 29.7042 33.8808 29.5937C33.8226 29.4832 33.7892 29.3613 33.7831 29.2365C33.777 29.1478 33.7916 29.059 33.8256 28.9769C33.8596 28.8948 33.9121 28.8217 33.9791 28.7632C34.1533 28.6159 34.4081 28.5811 34.6826 28.662L34.3982 26.5838L34.6071 26.5552L34.9412 28.9983L34.7669 28.9184C34.565 28.8256 34.2875 28.7785 34.1151 28.9241C34.0727 28.9622 34.0398 29.0095 34.0187 29.0624C33.9977 29.1153 33.9891 29.1723 33.9937 29.2291C33.9988 29.3219 34.0238 29.4126 34.0671 29.495C34.1104 29.5773 34.1709 29.6493 34.2445 29.7061C34.5041 29.8959 34.8497 29.9204 35.2417 29.9314L35.2358 30.1421Z" fill="#2F2E41"/>
<path d="M33.3657 26.7632H32.231V26.9739H33.3657V26.7632Z" fill="#2F2E41"/>
<path d="M36.9478 26.7632H35.813V26.9739H36.9478V26.7632Z" fill="#2F2E41"/>
<path d="M30.8538 23.8534C29.94 23.7492 29.2322 22.8737 29.1545 21.9853C29.062 20.9284 29.6775 19.9245 30.5219 19.3315C31.405 18.7112 32.5052 18.4522 33.5697 18.3952C35.6464 18.2919 37.6872 18.9646 39.2954 20.2824C40.093 20.9449 40.838 21.7888 41.1204 22.8082C41.3656 23.6934 41.166 24.6963 40.454 25.3163C40.2779 25.4682 40.0722 25.582 39.8499 25.6505C39.6276 25.7189 39.3935 25.7405 39.1624 25.714C38.61 25.6566 38.1003 25.3661 37.659 25.0453C36.8007 24.4213 36.0961 23.5519 35.0505 23.2258C34.2838 22.9867 33.2888 23.1972 32.8203 23.8905C32.7139 24.0493 32.645 24.23 32.6188 24.4193C32.6091 24.4596 32.6151 24.5021 32.6356 24.5382C32.6561 24.5743 32.6895 24.6013 32.7291 24.6136C32.7695 24.6245 32.8126 24.619 32.849 24.5984C32.8854 24.5777 32.9122 24.5436 32.9235 24.5033C33.0465 23.63 34.1203 23.3041 34.8738 23.5035C35.9725 23.7943 36.71 24.7747 37.6114 25.3976C38.0854 25.7251 38.6244 25.987 39.2057 26.0339C39.7067 26.0732 40.204 25.9205 40.5966 25.6066C41.3667 24.9985 41.6612 23.9527 41.4909 23.011C41.2937 21.9206 40.5598 20.986 39.7545 20.2625C38.122 18.8112 36.0026 18.0282 33.8186 18.0697C32.7047 18.0953 31.5424 18.3252 30.5827 18.914C29.6519 19.4851 28.9324 20.4405 28.8384 21.5511C28.7556 22.5287 29.2801 23.5511 30.1804 23.9794C30.3926 24.08 30.6203 24.1442 30.8538 24.1695C31.0555 24.1925 31.0539 23.8763 30.8538 23.8534Z" fill="#2F2E41"/>
<path d="M13.2974 29.6232L13.9663 29.4082C14.038 29.2708 13.9069 29.3589 13.9694 29.2254C15.6618 25.615 14.0977 23.3999 14.0977 23.3999L12.8878 24.233C12.8848 24.2262 12.8824 24.2191 12.8794 24.2122C12.8794 24.2122 12.6644 23.7344 12.3299 24.0927C12.3299 24.0927 13.381 26.6489 12.2104 29.8262L13.5722 30.4474L14.0977 29.8262L14.1097 29.7665L13.1691 29.681L13.2974 29.6232Z" fill="#CCCCCC"/>
<path d="M32.3732 43.0373C26.9981 41.8429 21.9932 44.3154 21.9932 44.3154L21.9796 44.3032L19.9865 42.5237L12.1985 29.8145L14.0977 29.8264C19.3773 26.673 26.807 27.103 26.807 27.103C30.0082 30.7342 32.3732 43.0373 32.3732 43.0373Z" fill="#3F3D56"/>
<path opacity="0.1" d="M21.9796 44.3032L19.9865 42.5237L12.1985 29.8145L14.0977 29.8264C14.0977 29.8264 21.6674 39.8239 21.9796 44.3032Z" fill="black"/>
<path d="M22.8544 34.3866C24.4816 33.8876 25.5435 32.6445 25.2263 31.6101C24.909 30.5758 23.3327 30.1419 21.7056 30.641C20.0784 31.1401 19.0165 32.3832 19.3337 33.4175C19.651 34.4518 21.2272 34.8857 22.8544 34.3866Z" fill="#FFE00B"/>
<path d="M6.21687 23.6523C5.78769 25.2388 4.31765 26.2213 4.31765 26.2213C4.31765 26.2213 3.54344 24.6317 3.97262 23.0452C4.4018 21.4586 5.87185 20.4761 5.87185 20.4761C5.87185 20.4761 6.64605 22.0658 6.21687 23.6523Z" fill="#CCCCCC"/>
<path d="M2.31247 23.6523C2.74165 25.2388 4.21169 26.2213 4.21169 26.2213C4.21169 26.2213 4.98589 24.6317 4.55672 23.0452C4.12754 21.4586 2.65749 20.4761 2.65749 20.4761C2.65749 20.4761 1.88329 22.0658 2.31247 23.6523Z" fill="#CCCCCC"/>
<path d="M2.94323 23.3112C4.12091 24.4576 4.26476 26.2199 4.26476 26.2199C4.26476 26.2199 2.49921 26.1235 1.32153 24.9771C0.143844 23.8307 0 22.0684 0 22.0684C0 22.0684 1.76555 22.1648 2.94323 23.3112Z" fill="#3F3D56"/>
<path d="M5.58617 23.3112C4.40849 24.4576 4.26465 26.2199 4.26465 26.2199C4.26465 26.2199 6.0302 26.1235 7.20788 24.9771C8.38556 23.8307 8.52941 22.0684 8.52941 22.0684C8.52941 22.0684 6.76386 22.1648 5.58617 23.3112Z" fill="#3F3D56"/>
<path d="M65.3189 41.5619C64.8897 43.1484 63.4197 44.131 63.4197 44.131C63.4197 44.131 62.6455 42.5413 63.0747 40.9548C63.5039 39.3683 64.9739 38.3857 64.9739 38.3857C64.9739 38.3857 65.7481 39.9754 65.3189 41.5619Z" fill="#CCCCCC"/>
<path d="M61.4145 41.5619C61.8437 43.1484 63.3137 44.131 63.3137 44.131C63.3137 44.131 64.0879 42.5413 63.6588 40.9548C63.2296 39.3683 61.7595 38.3857 61.7595 38.3857C61.7595 38.3857 60.9853 39.9754 61.4145 41.5619Z" fill="#CCCCCC"/>
<path d="M62.0453 41.2209C63.223 42.3673 63.3668 44.1296 63.3668 44.1296C63.3668 44.1296 61.6013 44.0332 60.4236 42.8868C59.2459 41.7403 59.1021 39.978 59.1021 39.978C59.1021 39.978 60.8676 40.0744 62.0453 41.2209Z" fill="#3F3D56"/>
<path d="M64.6882 41.2209C63.5105 42.3673 63.3667 44.1296 63.3667 44.1296C63.3667 44.1296 65.1323 44.0332 66.3099 42.8868C67.4876 41.7403 67.6315 39.978 67.6315 39.978C67.6315 39.978 65.8659 40.0744 64.6882 41.2209Z" fill="#3F3D56"/>
<path d="M46.9827 62.7893H22.5413V63H46.9827V62.7893Z" fill="#3F3D56"/>
</g>
<defs>
<clipPath id="clip0_8_183">
<rect width="67.6315" height="63" fill="white"/>
</clipPath>
</defs>
</svg>
