<svg width="72" height="63" viewBox="0 0 72 63" fill="none" xmlns="http://www.w3.org/2000/svg">
<g clip-path="url(#clip0_8_212)">
<path d="M3.47337 21.4685L0.00248689 19.5136C-0.0443315 17.422 0.420125 15.3506 1.35553 13.4792C2.15575 17.1113 6.36708 18.8393 8.31013 22.0105C8.90857 23.0043 9.27572 24.1199 9.38438 25.2748C9.49304 26.4297 9.34041 27.5943 8.93781 28.6822L9.16609 31.4982C7.37222 30.9609 5.71615 30.0411 4.31199 28.8022C2.90783 27.5632 1.78896 26.0346 1.03246 24.3216C0.617589 23.3564 0.325915 22.3428 0.164324 21.3047C1.7826 21.4769 3.47337 21.4685 3.47337 21.4685Z" fill="#F2F2F2"/>
<path d="M65.8683 57.0339L65.9747 54.6409C67.0842 54.0478 68.3217 53.7345 69.5798 53.7283C67.8483 55.1438 68.0647 57.8726 66.8908 59.7762C66.5202 60.3671 66.0213 60.867 65.4311 61.2389C64.841 61.6108 64.1747 61.8452 63.4817 61.9246L62.0328 62.8117C61.834 61.7033 61.8778 60.565 62.1613 59.4752C62.4447 58.3854 62.9611 57.37 63.6748 56.499C64.08 56.0143 64.5446 55.5826 65.0577 55.214C65.4047 56.1291 65.8683 57.0339 65.8683 57.0339Z" fill="#F2F2F2"/>
<path d="M62.1349 61.5801L60.8229 61.58L60.1987 56.5195L62.1351 56.5196L62.1349 61.5801Z" fill="#FFB6B6"/>
<path d="M62.4694 62.8519L58.239 62.8517V62.7982C58.239 62.3615 58.4125 61.9427 58.7213 61.634C59.0301 61.3252 59.4489 61.1517 59.8856 61.1517L60.6584 60.5654L62.1002 61.1518L62.4695 61.1518L62.4694 62.8519Z" fill="#2F2E41"/>
<path d="M56.0396 61.5801L54.7277 61.58L54.1035 56.5195L56.0399 56.5196L56.0396 61.5801Z" fill="#FFB6B6"/>
<path d="M56.3742 62.8519L52.1438 62.8517V62.7982C52.1438 62.3615 52.3173 61.9427 52.6261 61.634C52.9349 61.3252 53.3537 61.1517 53.7904 61.1517L54.5632 60.5654L56.005 61.1518L56.3743 61.1518L56.3742 62.8519Z" fill="#2F2E41"/>
<path d="M55.4717 33.9141L64.0054 34.1274C65.6262 35.0077 65.6508 36.913 65.1198 39.1751C65.1198 39.1751 65.299 40.5197 64.9405 40.8782C64.5819 41.2367 64.4027 41.2367 64.5819 41.8642C64.7612 42.4916 63.814 43.5165 63.9291 43.6315C64.0441 43.7465 64.313 44.374 64.313 44.374L63.4167 49.4832C63.4167 49.4832 62.7892 58.3572 62.6099 58.5365C62.4307 58.7157 62.2514 58.5365 62.4307 58.9846C62.6099 59.4328 62.7892 59.2535 62.6099 59.4328C62.4511 59.604 62.3015 59.7836 62.1618 59.9706H59.9946C59.9946 59.9706 59.8312 59.0743 59.8312 58.9846C59.8312 58.895 59.652 58.3572 59.652 58.2675C59.652 58.1779 59.8104 58.0195 59.8104 58.0195C59.8652 57.8372 59.9022 57.6502 59.9209 57.4608C59.9209 57.2815 60.4587 50.3796 60.4587 50.3796L59.3831 41.416L56.7836 50.2003C56.7836 50.2003 56.7836 57.909 56.6044 58.0883C56.4251 58.2675 56.4251 58.1779 56.5147 58.5365C56.6044 58.895 56.9629 58.8054 56.694 59.0743C56.4251 59.3432 56.3354 58.895 56.4251 59.3432L56.5147 59.7914L53.8256 59.8298C53.8256 59.8298 53.4671 59.0743 53.6464 58.8054C53.8256 58.5365 53.8149 58.6099 53.5962 58.1698C53.3775 57.7297 53.2878 57.6401 53.3775 57.5505C53.4671 57.4608 53.4671 56.9841 53.4671 56.9841L53.9153 48.4076C53.9153 48.4076 54.0049 39.3544 54.0049 39.0855C54.0117 38.9471 53.9862 38.8091 53.9305 38.6822V38.3172L54.2738 37.0239L55.4717 33.9141Z" fill="#2F2E41"/>
<path d="M60.598 16.1696C62.0624 16.1696 63.2495 14.9825 63.2495 13.5182C63.2495 12.0538 62.0624 10.8667 60.598 10.8667C59.1336 10.8667 57.9465 12.0538 57.9465 13.5182C57.9465 14.9825 59.1336 16.1696 60.598 16.1696Z" fill="#FFB6B6"/>
<path d="M59.2724 17.922C58.7012 18.2616 58.3595 18.8856 58.1633 19.5205C57.8002 20.696 57.5816 21.9114 57.5124 23.1397L57.3052 26.8173L54.7393 34.6478C56.9631 36.5294 65.3221 35.0754 65.3221 35.0754C65.3221 35.0754 65.5787 34.9899 65.3221 34.7333C65.0655 34.4767 64.8157 34.704 65.0723 34.4474C65.3289 34.1908 65.152 34.4767 65.0664 34.2201C64.9809 33.9635 65.0664 34.1346 65.152 34.049C65.2375 33.9635 64.4898 33.1937 64.4898 33.1937L65.1741 28.6989L66.0294 19.6326C65.003 18.3496 62.9388 17.5933 62.9388 17.5933L62.4055 16.6333L59.7387 16.8466L59.2724 17.922Z" fill="#E6E6E6"/>
<path d="M58.9087 11.9619C59.0113 11.9627 59.1134 11.9761 59.2127 12.0018C59.4085 12.0489 59.6074 12.0822 59.8078 12.1016C60.4217 12.1593 60.9984 12.4211 61.446 12.8451C61.8936 13.2691 62.1862 13.8309 62.2771 14.4407C62.4311 14.3063 62.7817 14.0592 63.0691 14.2889C63.0735 14.2925 63.076 14.2944 63.0861 14.2896C63.277 14.1991 63.6157 13.0848 63.626 12.1036C63.6314 11.5829 63.5494 10.9179 63.1282 10.7073L63.1061 10.6962L63.1002 10.6721C63.0721 10.555 62.7577 10.355 62.2113 10.1994C61.2184 9.91655 59.7382 9.3656 58.9048 10.1764C58.8417 10.4498 58.6365 11.0347 58.4292 11.101C58.1996 11.1744 58.0014 11.2378 57.9702 11.5193C57.9441 11.92 57.946 12.3221 57.9758 12.7225C58.0536 12.4775 58.2063 12.263 58.4124 12.1093C58.5589 12.0107 58.7321 11.9592 58.9087 11.9619Z" fill="#2F2E41"/>
<path d="M53.9734 26.6124L58.3046 23.8386L56.1232 20.9387L53.9691 23.5884L47.2574 24.0001C47.0809 23.8256 46.8574 23.7062 46.6142 23.6565C46.371 23.6068 46.1186 23.629 45.8878 23.7203C45.657 23.8116 45.4577 23.9681 45.3143 24.1706C45.1708 24.3732 45.0894 24.6132 45.08 24.8612C45.0706 25.1092 45.1336 25.3547 45.2612 25.5676C45.3889 25.7804 45.5757 25.9516 45.7989 26.0601C46.0222 26.1686 46.2721 26.2099 46.5184 26.1788C46.7647 26.1477 46.9966 26.0456 47.1858 25.885L53.9734 26.6124Z" fill="#FFB6B6"/>
<path d="M62.3247 19.9669C62.576 21.4883 57.8289 24.3933 57.8289 24.3933C57.8288 24.0362 54.9955 26.7319 54.8676 26.4358C54.5042 25.5941 54.2486 23.6006 53.7407 23.2815C53.4503 23.099 55.49 21.3848 55.49 21.3848C55.49 21.3848 56.5578 20.3091 57.959 18.9524C58.348 18.5614 58.8296 18.2753 59.3589 18.1206C59.8883 17.9658 60.4482 17.9475 60.9865 18.0674C60.9865 18.0674 62.0733 18.4456 62.3247 19.9669Z" fill="#E6E6E6"/>
<path d="M71.2519 27.3406L68.387 23.0691L65.5339 25.3115L68.2287 27.409L68.7823 34.1104C68.6116 34.2906 68.497 34.5165 68.4525 34.7607C68.408 35.0049 68.4355 35.2568 68.5316 35.4857C68.6278 35.7145 68.7884 35.9104 68.994 36.0495C69.1996 36.1886 69.4412 36.2649 69.6894 36.2691C69.9376 36.2733 70.1816 36.2051 70.3917 36.073C70.6019 35.9409 70.769 35.7504 70.8728 35.525C70.9766 35.2995 71.0125 35.0487 70.9762 34.8031C70.9399 34.5576 70.833 34.3279 70.6684 34.1421L71.2519 27.3406Z" fill="#FFB6B6"/>
<path d="M64.4312 19.132C65.9468 18.8485 68.9518 23.533 68.9518 23.533C68.5948 23.5406 71.3498 26.3162 71.0565 26.4504C70.2227 26.8316 68.235 27.1293 67.9267 27.6438C67.7505 27.9381 65.9934 25.935 65.9934 25.935C65.9934 25.935 64.8954 24.8903 63.5093 23.5182C63.1102 23.1376 62.8139 22.6621 62.648 22.1362C62.4821 21.6102 62.452 21.0508 62.5604 20.5101C62.5604 20.5101 62.9155 19.4155 64.4312 19.132Z" fill="#E6E6E6"/>
<path d="M71.9839 62.873C71.9839 62.8897 71.9807 62.9063 71.9743 62.9217C71.9679 62.9371 71.9586 62.9511 71.9468 62.9629C71.935 62.9747 71.921 62.9841 71.9056 62.9904C71.8901 62.9968 71.8736 63 71.8569 63H41.958C41.9243 63 41.892 62.9866 41.8682 62.9628C41.8444 62.939 41.8311 62.9067 41.8311 62.873C41.8311 62.8394 41.8444 62.8071 41.8682 62.7833C41.892 62.7595 41.9243 62.7461 41.958 62.7461H71.8569C71.8736 62.746 71.8901 62.7493 71.9056 62.7557C71.921 62.762 71.935 62.7714 71.9468 62.7832C71.9586 62.795 71.9679 62.809 71.9743 62.8244C71.9807 62.8398 71.9839 62.8563 71.9839 62.873Z" fill="#CCCCCC"/>
<path d="M44.2858 24.4055H7.9994C7.43248 24.4062 6.88896 24.6316 6.48809 25.0325C6.08721 25.4334 5.86172 25.9769 5.86108 26.5438V49.1356C5.86173 49.7025 6.08722 50.246 6.48809 50.6469C6.88896 51.0478 7.43248 51.2732 7.9994 51.2739H44.2858C44.8527 51.2733 45.3962 51.0478 45.7971 50.6469C46.198 50.246 46.4235 49.7025 46.4241 49.1356V26.5438C46.4235 25.9769 46.198 25.4334 45.7971 25.0325C45.3963 24.6316 44.8527 24.4062 44.2858 24.4055Z" fill="#FFE00B"/>
<path d="M44.2858 24.4055H7.9994C7.43248 24.4062 6.88896 24.6316 6.48809 25.0325C6.08721 25.4334 5.86172 25.9769 5.86108 26.5438V49.1356C5.86173 49.7025 6.08722 50.246 6.48809 50.6469C6.88896 51.0478 7.43248 51.2732 7.9994 51.2739H44.2858C44.8527 51.2733 45.3962 51.0478 45.7971 50.6469C46.198 50.246 46.4235 49.7025 46.4241 49.1356V26.5438C46.4235 25.9769 46.198 25.4334 45.7971 25.0325C45.3963 24.6316 44.8527 24.4062 44.2858 24.4055ZM44.9876 40.6335C44.9789 42.9334 44.0691 45.1384 42.4534 46.7753C40.8377 48.4122 38.6449 49.3507 36.3452 49.3894C32.6633 49.4374 38.3824 49.4561 33.9417 49.4561C23.7874 49.4561 13.1992 49.359 9.24864 49.2961C8.72887 49.2854 8.23388 49.0719 7.86936 48.7012C7.50484 48.3305 7.29967 47.832 7.29766 47.3122V26.5455C7.29787 26.3593 7.3718 26.1808 7.50328 26.049C7.63475 25.9172 7.81308 25.8429 7.99925 25.8422H44.2844C44.4705 25.8424 44.6489 25.9163 44.7807 26.0478C44.9125 26.1792 44.9869 26.3575 44.9876 26.5436V40.6335Z" fill="#3F3D56"/>
<path d="M39.8191 11.3965H12.1726C11.928 11.3968 11.6895 11.4727 11.4896 11.6136C11.2897 11.7546 11.1381 11.9538 11.0557 12.1841L6.78586 24.1633C6.72214 24.3421 6.70227 24.5336 6.72792 24.7217C6.75357 24.9097 6.824 25.0889 6.93328 25.2441C7.04257 25.3993 7.18751 25.526 7.35593 25.6136C7.52436 25.7011 7.71134 25.747 7.90116 25.7472L44.9796 25.813H44.9812C45.1774 25.813 45.3706 25.7643 45.5434 25.6713C45.7161 25.5783 45.8631 25.4438 45.9711 25.28C46.0792 25.1162 46.1448 24.9281 46.1623 24.7327C46.1797 24.5372 46.1484 24.3405 46.0711 24.1601L40.909 12.1152C40.8177 11.9018 40.6657 11.7199 40.472 11.5921C40.2782 11.4643 40.0512 11.3963 39.8191 11.3965Z" fill="#3F3D56"/>
<path d="M46.1672 24.4203C46.167 24.5809 46.1344 24.7399 46.0711 24.8875L40.9093 34.1594C40.8174 34.3724 40.6652 34.5538 40.4715 34.6813C40.2778 34.8089 40.0511 34.877 39.8191 34.8773H12.1731C11.9284 34.8771 11.6897 34.8013 11.4897 34.6605C11.2896 34.5196 11.1379 34.3204 11.0552 34.0901L6.7862 24.8843C6.73387 24.7377 6.71096 24.5821 6.71878 24.4266C6.7266 24.2711 6.76499 24.1186 6.83176 23.978C6.89853 23.8373 6.99237 23.7112 7.10792 23.6068C7.22347 23.5024 7.35845 23.4218 7.50516 23.3696C7.63208 23.3238 7.76598 23.3003 7.90092 23.3003L12.4302 23.2917L14.2788 23.2885L38.6041 23.2459L40.4538 23.2427L44.9799 23.2341H44.981C45.2956 23.2342 45.5972 23.3592 45.8197 23.5816C46.0421 23.8041 46.1671 24.1057 46.1672 24.4203Z" fill="#3F3D56"/>
<path d="M10.7197 41.3521C11.2679 41.3521 18.7962 41.8121 18.7962 42.3604C18.7962 42.9086 11.2679 43.3373 10.7197 43.3373C10.4564 43.3373 10.2039 43.2328 10.0178 43.0466C9.83163 42.8604 9.72705 42.608 9.72705 42.3447C9.72705 42.0814 9.83163 41.8289 10.0178 41.6428C10.2039 41.4566 10.4564 41.3521 10.7197 41.3521Z" fill="#3F3D56"/>
<path d="M38.0975 4.10913H14.7865C14.1618 4.10985 13.5629 4.35834 13.1211 4.80009C12.6794 5.24184 12.4309 5.84078 12.4302 6.4655V34.8774H39.8191C40.044 34.8781 40.2644 34.8141 40.4538 34.6929V6.4655C40.4531 5.84078 40.2046 5.24184 39.7629 4.80009C39.3211 4.35835 38.7222 4.10985 38.0975 4.10913Z" fill="#E6E6E6"/>
<path d="M29.2 6.01953H16.425C15.8562 6.02009 15.3108 6.24624 14.9084 6.64838C14.5061 7.05053 14.2796 7.59584 14.2788 8.1647V34.8774H38.6042V15.4237C38.6013 12.9304 37.6096 10.5401 35.8466 8.77712C34.0836 7.01412 31.6933 6.02241 29.2 6.01953Z" fill="white"/>
<path d="M34.4601 32.5049H18.4231C18.2845 32.5049 18.1515 32.56 18.0535 32.658C17.9555 32.756 17.9004 32.8889 17.9004 33.0276C17.9004 33.1662 17.9555 33.2991 18.0535 33.3972C18.1515 33.4952 18.2845 33.5503 18.4231 33.5503H34.4601C34.5987 33.5503 34.7316 33.4952 34.8297 33.3972C34.9277 33.2991 34.9827 33.1662 34.9827 33.0276C34.9827 32.8889 34.9277 32.756 34.8297 32.658C34.7316 32.56 34.5987 32.5049 34.4601 32.5049Z" fill="#E4E4E4"/>
<path d="M34.4599 30.4377H18.4229C18.2841 30.4377 18.151 30.4929 18.0529 30.591C17.9548 30.6891 17.8997 30.8222 17.8997 30.961C17.8997 31.0997 17.9548 31.2328 18.0529 31.3309C18.151 31.4291 18.2841 31.4842 18.4229 31.4842H34.4599C34.5986 31.4842 34.7317 31.4291 34.8298 31.3309C34.928 31.2328 34.9831 31.0997 34.9831 30.961C34.9831 30.8222 34.928 30.6891 34.8298 30.591C34.7317 30.4929 34.5986 30.4377 34.4599 30.4377Z" fill="#E4E4E4"/>
<path d="M25.3749 28.3713H18.4231C18.2845 28.3713 18.1515 28.4264 18.0535 28.5244C17.9555 28.6225 17.9004 28.7554 17.9004 28.894C17.9004 29.0327 17.9555 29.1656 18.0535 29.2636C18.1515 29.3616 18.2845 29.4167 18.4231 29.4167H25.3749C25.5135 29.4167 25.6464 29.3616 25.7445 29.2636C25.8425 29.1656 25.8975 29.0327 25.8975 28.894C25.8975 28.7554 25.8425 28.6225 25.7445 28.5244C25.6464 28.4264 25.5135 28.3713 25.3749 28.3713Z" fill="#E4E4E4"/>
<path d="M34.4599 24.0427H18.4229C18.2841 24.0427 18.151 24.0979 18.0529 24.196C17.9548 24.2941 17.8997 24.4272 17.8997 24.5659C17.8997 24.7047 17.9548 24.8378 18.0529 24.9359C18.151 25.034 18.2841 25.0892 18.4229 25.0892H34.4599C34.5986 25.0892 34.7317 25.034 34.8298 24.9359C34.928 24.8378 34.9831 24.7047 34.9831 24.5659C34.9831 24.4272 34.928 24.2941 34.8298 24.196C34.7317 24.0979 34.5986 24.0427 34.4599 24.0427Z" fill="#E4E4E4"/>
<path d="M34.4601 21.9766H18.4231C18.2845 21.9766 18.1515 22.0316 18.0535 22.1297C17.9555 22.2277 17.9004 22.3606 17.9004 22.4993C17.9004 22.6379 17.9555 22.7708 18.0535 22.8688C18.1515 22.9669 18.2845 23.0219 18.4231 23.0219H34.4601C34.5987 23.0219 34.7316 22.9669 34.8297 22.8688C34.9277 22.7708 34.9827 22.6379 34.9827 22.4993C34.9827 22.3606 34.9277 22.2277 34.8297 22.1297C34.7316 22.0316 34.5987 21.9766 34.4601 21.9766Z" fill="#E4E4E4"/>
<path d="M25.3747 19.9092H18.4229C18.2841 19.9092 18.151 19.9643 18.0529 20.0624C17.9548 20.1606 17.8997 20.2936 17.8997 20.4324C17.8997 20.5712 17.9548 20.7043 18.0529 20.8024C18.151 20.9005 18.2841 20.9556 18.4229 20.9556H25.3747C25.5134 20.9556 25.6465 20.9005 25.7446 20.8024C25.8428 20.7043 25.8979 20.5712 25.8979 20.4324C25.8979 20.2936 25.8428 20.1606 25.7446 20.0624C25.6465 19.9643 25.5134 19.9092 25.3747 19.9092Z" fill="#E4E4E4"/>
<path d="M34.4599 15.5806H18.4229C18.2841 15.5806 18.151 15.6357 18.0529 15.7338C17.9548 15.8319 17.8997 15.965 17.8997 16.1038C17.8997 16.2426 17.9548 16.3756 18.0529 16.4738C18.151 16.5719 18.2841 16.627 18.4229 16.627H34.4599C34.5986 16.627 34.7317 16.5719 34.8298 16.4738C34.928 16.3756 34.9831 16.2426 34.9831 16.1038C34.9831 15.965 34.928 15.8319 34.8298 15.7338C34.7317 15.6357 34.5986 15.5806 34.4599 15.5806Z" fill="#FFE00B"/>
<path d="M34.4599 13.5142H18.4229C18.2841 13.5142 18.151 13.5693 18.0529 13.6674C17.9548 13.7655 17.8997 13.8986 17.8997 14.0374C17.8997 14.1762 17.9548 14.3092 18.0529 14.4074C18.151 14.5055 18.2841 14.5606 18.4229 14.5606H34.4599C34.5986 14.5606 34.7317 14.5055 34.8298 14.4074C34.928 14.3092 34.9831 14.1762 34.9831 14.0374C34.9831 13.8986 34.928 13.7655 34.8298 13.6674C34.7317 13.5693 34.5986 13.5142 34.4599 13.5142Z" fill="#FFE00B"/>
<path d="M25.3747 11.447H18.4229C18.2841 11.447 18.151 11.5021 18.0529 11.6003C17.9548 11.6984 17.8997 11.8315 17.8997 11.9702C17.8997 12.109 17.9548 12.2421 18.0529 12.3402C18.151 12.4383 18.2841 12.4935 18.4229 12.4935H25.3747C25.5134 12.4935 25.6465 12.4383 25.7446 12.3402C25.8428 12.2421 25.8979 12.109 25.8979 11.9702C25.8979 11.8315 25.8428 11.6984 25.7446 11.6003C25.6465 11.5021 25.5134 11.447 25.3747 11.447Z" fill="#FFE00B"/>
<path d="M39.5799 8.14176C41.8282 8.14176 43.6508 6.31917 43.6508 4.07088C43.6508 1.8226 41.8282 0 39.5799 0C37.3316 0 35.509 1.8226 35.509 4.07088C35.509 6.31917 37.3316 8.14176 39.5799 8.14176Z" fill="#FFE00B"/>
<path d="M39.0246 6.18963C38.9543 6.18963 38.8849 6.17326 38.8221 6.14182C38.7592 6.11037 38.7045 6.06471 38.6624 6.00846L37.5518 4.52764C37.5159 4.48008 37.4897 4.42591 37.4748 4.36824C37.4599 4.31056 37.4566 4.25051 37.4649 4.19153C37.4733 4.13255 37.4932 4.07579 37.5235 4.02451C37.5538 3.97323 37.5939 3.92844 37.6416 3.8927C37.6892 3.85696 37.7435 3.83098 37.8012 3.81623C37.8589 3.80149 37.919 3.79828 37.9779 3.80679C38.0369 3.8153 38.0936 3.83535 38.1448 3.86581C38.196 3.89627 38.2407 3.93653 38.2763 3.98428L39.0029 4.953L40.869 2.1538C40.9357 2.05387 41.0392 1.9845 41.157 1.96094C41.2748 1.93739 41.3971 1.96158 41.497 2.0282C41.5969 2.09482 41.6663 2.19841 41.6899 2.31618C41.7134 2.43395 41.6892 2.55625 41.6226 2.65618L39.4014 5.98798C39.3612 6.04823 39.3072 6.09798 39.2438 6.13304C39.1804 6.1681 39.1096 6.18746 39.0372 6.18949C39.033 6.18956 39.0288 6.18963 39.0246 6.18963Z" fill="white"/>
</g>
<defs>
<clipPath id="clip0_8_212">
<rect width="71.9838" height="63" fill="white"/>
</clipPath>
</defs>
</svg>
