<svg width="96" height="63" viewBox="0 0 96 63" fill="none" xmlns="http://www.w3.org/2000/svg">
<g clip-path="url(#clip0_7_3888)">
<path d="M88.5742 30.4211H10.7288C9.68532 30.4211 8.83643 29.5705 8.83643 28.5248V1.89622C8.83643 0.850637 9.68532 0 10.7288 0H88.5742C89.6176 0 90.4665 0.850637 90.4665 1.89622V28.5248C90.4665 29.5705 89.6176 30.4211 88.5742 30.4211ZM10.7288 0.226071C9.80975 0.226071 9.06203 0.975318 9.06203 1.89622V28.5248C9.06203 29.4458 9.80975 30.1951 10.7288 30.1951H88.5742C89.4932 30.1951 90.2409 29.4458 90.2409 28.5248V1.89622C90.2409 0.975318 89.4932 0.226071 88.5742 0.226071H10.7288Z" fill="#3F3D56"/>
<path d="M96 62.2324H0V62.4227H96V62.2324Z" fill="#E6E6E6"/>
<path d="M96 52.5115H0V52.7017H96V52.5115Z" fill="#E6E6E6"/>
<path d="M43.7498 31.4005C43.8187 32.2686 44.3216 32.9366 44.873 32.8926C45.4243 32.8485 45.8152 32.1092 45.7461 31.2408C45.7233 30.8935 45.6178 30.5568 45.4384 30.2587L45.1 26.5842L43.3826 26.7801L43.8985 30.3817C43.7685 30.7045 43.7175 31.0539 43.7498 31.4005Z" fill="#FFB6B6"/>
<path d="M41.6982 14.2575C41.6982 14.2575 43.3037 13.4059 44.1177 14.6785C44.9317 15.9511 45.4936 29.7146 45.4936 29.7146L43.2373 29.956L42.8096 20.2572L41.6982 14.2575Z" fill="#E6E6E6"/>
<path d="M38.366 51.7934L39.6731 51.7933L40.2949 46.7412L38.3657 46.7413L38.366 51.7934Z" fill="#FFB6B6"/>
<path d="M42.8444 51.7636C42.8851 51.8323 42.9066 52.054 42.9066 52.1339C42.9066 52.3794 42.7079 52.5784 42.4629 52.5784H38.415C38.2478 52.5784 38.1123 52.4427 38.1123 52.2752V52.1063C38.1123 52.1063 37.9121 51.5987 38.3244 50.9731C38.3244 50.9731 38.8368 51.463 39.6024 50.6958L39.8282 50.2859L41.4626 51.4836L42.3685 51.5954C42.5667 51.6198 42.7424 51.5916 42.8444 51.7636Z" fill="#2F2E41"/>
<path d="M45.9302 51.5765L47.1966 51.2522L46.5512 46.2031L44.6821 46.6817L45.9302 51.5765Z" fill="#FFB6B6"/>
<path d="M50.2618 50.4372C50.3182 50.4936 50.3937 50.7031 50.4135 50.7805C50.4741 51.0183 50.3308 51.2604 50.0934 51.3212L46.1715 52.3251C46.0095 52.3666 45.8447 52.2686 45.8033 52.1064L45.7616 51.9427C45.7616 51.9427 45.4422 51.5006 45.6871 50.7923C45.6871 50.7923 46.3046 51.1398 46.8569 50.2065L46.9745 49.7534L48.8538 50.5086L49.7592 50.3922C49.9572 50.3667 50.1205 50.2957 50.2618 50.4372Z" fill="#2F2E41"/>
<path d="M37.2849 13.1716L37.2229 12.7209L37.9595 10.9182L39.9834 10.6929L40.4204 13.2736L37.2849 13.1716Z" fill="#FFB6B6"/>
<path opacity="0.1" d="M37.2849 13.1716L37.2229 12.7209L37.9595 10.9182L39.9834 10.6929L40.4204 13.2736L37.2849 13.1716Z" fill="black"/>
<path d="M34.9237 25.903L34.0242 28.3817L34.6988 29.7337L38.0719 49.338H40.3144L39.8709 31.9871L45.043 49.338H47.2625L45.4777 37.6205L44.1435 26.8044L43.3343 26.3034L39.4212 24.1003L34.9237 25.903Z" fill="#2F2E41"/>
<path d="M40.658 27.5929L39.3088 27.8182L37.5098 23.5369H41.5575L40.658 27.5929Z" fill="#E6E6E6"/>
<path d="M43.3565 26.4662L40.658 27.5929L39.7585 25.5648L39.3088 27.8182L34.5864 26.2949L35.261 23.5368L34.5864 14.5234L36.9678 12.9325L37.2849 12.7207L40.2083 12.946L40.4646 13.0857L42.2322 14.0727L42.6819 21.5088L43.3565 26.4662Z" fill="#2F2E41"/>
<path d="M40.4646 13.0857L39.1963 18.4668L36.9678 12.9325L37.2848 12.7207L40.2082 12.946L40.4646 13.0857Z" fill="#E6E6E6"/>
<path d="M38.2967 12.7207L37.8469 13.4969L38.2967 13.7556L38.0718 18.4808L38.9713 19.7061L39.8708 17.8951L39.1962 13.7556L39.421 12.7207H38.2967Z" fill="#2F2E41"/>
<path d="M38.9713 12.2702C40.1511 12.2702 41.1076 11.3117 41.1076 10.1295C41.1076 8.94719 40.1511 7.98877 38.9713 7.98877C37.7914 7.98877 36.835 8.94719 36.835 10.1295C36.835 11.3117 37.7914 12.2702 38.9713 12.2702Z" fill="#FFB6B6"/>
<path d="M37.606 10.3172L38.0676 10.5191L38.2691 9.3079C38.2691 9.3079 39.0749 8.90417 39.6792 9.10604C40.2836 9.3079 41.2908 9.10604 41.2908 9.10604C41.2908 9.10604 41.2908 7.0874 39.8807 7.0874C38.4705 7.0874 37.0604 7.28927 37.0604 7.89486C37.0604 8.50045 36.456 9.10604 36.456 9.10604C36.456 9.10604 35.6502 10.3172 36.456 11.1247C37.2618 11.9321 37.6647 11.9321 37.6647 11.9321L37.606 10.3172Z" fill="#2F2E41"/>
<path d="M33.4609 31.3371C33.4374 32.2076 33.8667 32.9254 34.4196 32.9402C34.9725 32.9551 35.4395 32.2615 35.4628 31.3906C35.4769 31.0429 35.4077 30.6968 35.2609 30.3814L35.3137 26.6917L33.5852 26.7037L33.7167 30.3399C33.5532 30.647 33.4654 30.989 33.4609 31.3371Z" fill="#FFB6B6"/>
<path d="M35.5994 14.0687C35.5994 14.0687 34.1377 13.618 33.4631 14.97C32.7884 16.322 33.6879 30.0675 33.6879 30.0675H35.957L35.3548 20.3781L35.5994 14.0687Z" fill="#E6E6E6"/>
<path d="M91.6709 39.6763L86.22 38.0043C86.0994 37.9673 85.9729 37.9538 85.8473 37.9645L58.2214 40.3205C57.8275 40.3541 57.7285 40.8864 58.0839 41.0599L58.9688 41.4919H58.9452V62.172H59.7791V41.8875L62.5524 43.2414C62.7646 43.3449 63.0014 43.3872 63.2363 43.3635L63.5314 43.3336V62.172H64.3652V43.2492L85.7325 41.0865V62.172H86.5663V41.0021L90.1102 40.6434V62.172H90.944V40.559L91.5906 40.4935C92.0444 40.4476 92.1071 39.8101 91.6709 39.6763Z" fill="#3F3D56"/>
<path d="M66.2415 40.2386C66.7626 40.2386 74.4757 39.2986 74.4757 39.2986L75.6222 40.8653L67.5965 42.4319L66.2415 40.2386Z" fill="white"/>
<path d="M74.7064 61.3687L73.3664 61.3663L72.7378 56.1858L74.7156 56.1893L74.7064 61.3687Z" fill="#A0616A"/>
<path d="M70.1154 61.3305C70.0736 61.4008 70.0512 61.6281 70.051 61.7099C70.0506 61.9616 70.2539 62.166 70.5051 62.1665L74.655 62.1736C74.8264 62.1739 74.9655 62.035 74.9658 61.8632L74.9661 61.6901C74.9661 61.6901 75.1723 61.1701 74.7507 60.528C74.7507 60.528 74.2246 61.0293 73.441 60.2414L73.2102 59.8208L71.5325 61.0459L70.6036 61.1588C70.4003 61.1835 70.2202 61.1543 70.1154 61.3305Z" fill="#2F2E41"/>
<path d="M81.8987 58.9597L80.8414 59.7588L77.2622 56.0527L78.8226 54.8733L81.8987 58.9597Z" fill="#A0616A"/>
<path d="M78.2584 61.6737C78.2673 61.7542 78.385 61.9466 78.4336 62.0112C78.5831 62.2098 78.8649 62.2493 79.0631 62.0995L82.3372 59.6246C82.4724 59.5224 82.4993 59.3297 82.3973 59.1942L82.2945 59.0576C82.2945 59.0576 82.1474 58.5247 81.433 58.2708C81.433 58.2708 81.3168 58.9802 80.2304 58.8278L79.7982 58.6344L79.2056 60.6024L78.5409 61.2467C78.3955 61.3876 78.2361 61.4722 78.2584 61.6737Z" fill="#2F2E41"/>
<path d="M79.0981 32.1857C79.0981 33.424 78.0963 34.4278 76.8606 34.4278C75.6248 34.4278 74.623 33.424 74.623 32.1857C74.623 30.9474 75.6248 29.9436 76.8606 29.9436C78.0963 29.9436 79.0981 30.9474 79.0981 32.1857Z" fill="#A0616A"/>
<path d="M78.8873 45.1132C78.8873 45.1132 70.649 44.6459 70.1827 45.5804C69.7164 46.515 72.7037 59.3519 72.7037 59.3519L75.3689 58.7922L74.0687 49.7859C74.0687 49.7859 80.9434 51.6103 81.876 49.4297C82.8086 47.2491 82.5402 46.4371 82.5402 46.4371L78.8873 45.1132Z" fill="#2F2E41"/>
<path d="M80.9979 43.5444C80.9979 43.5444 72.9297 45.2776 72.7267 46.3025C72.5238 47.3273 78.7935 58.9151 78.7935 58.9151L81.216 57.6689L77.5845 49.328C77.5845 49.328 84.6959 49.2651 85.0196 46.915C85.3434 44.5648 84.8701 43.8529 84.8701 43.8529L80.9979 43.5444Z" fill="#2F2E41"/>
<path d="M81.9183 34.7551H78.0421L75.3899 39.1164C75.3899 39.1164 74.7681 41.9347 75.3899 42.2389C76.0116 42.543 76.0116 45.814 76.0116 45.814L82.5401 46.437C82.5401 46.437 83.4727 36.6242 83.1618 35.6897C82.851 34.7551 81.9183 34.7551 81.9183 34.7551Z" fill="#FFE00B"/>
<path d="M75.7786 37.6367L75.39 42.2389L71.0191 40.3801L69.9759 39.8544C69.7716 39.5874 69.5064 39.3734 69.2026 39.2301C68.4471 38.8612 67.6451 38.9526 67.4108 39.4342C67.1766 39.9158 67.5989 40.6052 68.3542 40.9739C68.6541 41.1254 68.9858 41.2028 69.3217 41.1995L72.3739 42.9367L72.3775 42.9299L72.391 42.9541L77.1775 44.9574L78.2788 38.9157L75.7786 37.6367Z" fill="#A0616A"/>
<path d="M75.3123 32.4967C75.3123 32.4967 72.9807 32.8082 73.9133 30.7834C73.9133 30.7834 73.7711 29.6857 74.464 29.6115C75.1568 29.5373 76.0895 28.2912 76.0895 28.2912C76.0895 28.2912 78.2277 27.2009 79.3347 28.2912C80.4418 29.3815 83.706 35.7676 83.706 35.7676L81.5298 38.104C81.5298 38.104 80.2216 34.6577 78.6996 35.0569C77.1775 35.4561 75.7786 36.6464 75.7786 36.6464C75.7786 36.6464 74.234 35.8718 74.9286 35.1967C75.6232 34.5216 75.3123 32.4967 75.3123 32.4967Z" fill="#2F2E41"/>
<path d="M78.421 35.9235C78.421 35.9235 77.3329 34.5217 76.5557 35.612C75.7785 36.7023 75.1567 38.1041 75.1567 38.1041L78.2655 39.1944L78.421 35.9235Z" fill="#FFE00B"/>
<path d="M90.2245 61.8619L86.6127 50.3582L86.6132 50.3582H86.6215L86.6069 50.3394L86.6066 50.339L86.3494 49.5196L86.3495 49.5195C86.7414 49.1811 87.0082 48.6975 87.0614 48.1408L85.4104 39.0416C85.524 37.8468 84.6099 36.8023 83.4123 36.7595L79.6871 36.7501C78.6281 36.7125 77.7108 37.4791 77.5566 38.5298L77.4742 39.0876L76.3329 46.8677C76.2912 47.1476 76.3079 47.4233 76.3736 47.6813L75.5522 47.7889L75.3031 47.8223L74.3181 47.9507L74.315 47.9518L74.192 47.9675H74.0586V51.3097H74.0669V61.9923C74.0669 62.0612 74.1232 62.1176 74.192 62.1176C74.2618 62.1176 74.3181 62.0612 74.3181 61.9923V51.3097H75.7794L77.2376 61.9797C77.247 62.0424 77.3002 62.0884 77.3627 62.0884C77.3679 62.0884 77.3742 62.0884 77.3794 62.0873C77.4482 62.0779 77.4961 62.0142 77.4867 61.9453L76.0338 51.3097H83.0454C83.7416 51.3097 84.3867 51.0883 84.912 50.7092L87.692 61.9602C87.7064 62.0171 87.7575 62.0549 87.8136 62.0549C87.8238 62.0549 87.8342 62.0537 87.8446 62.0511C87.9118 62.0339 87.9524 61.9655 87.9353 61.8981L85.1284 50.5384C85.1658 50.5072 85.2031 50.474 85.2384 50.4397L86.3544 50.3739L89.985 61.9374C90.0019 61.9911 90.0514 62.0255 90.1047 62.0255C90.1172 62.0255 90.1299 62.0236 90.1424 62.0197C90.2086 61.9988 90.2453 61.9282 90.2245 61.8619ZM86.1108 49.6981C86.1202 49.6929 86.1285 49.6866 86.1368 49.6814L86.1637 49.7668L86.1108 49.6981Z" fill="#E6E6E6"/>
<path d="M19.3533 42.363L21.7841 40.814L22.7723 41.4113L19.3533 45.3481V42.363Z" fill="#FFB6B6"/>
<path d="M16.0293 36.3674C16.0293 36.3674 14.4147 36.7481 15.1745 38.937C15.9343 41.1258 18.4036 45.694 19.1634 45.4085C19.9232 45.1229 20.0182 42.2679 20.0182 42.2679C20.0182 42.2679 19.9232 42.363 19.5433 41.9824C19.1634 41.6017 19.1634 41.7755 19.1634 41.3555C19.1634 40.9355 18.8527 40.6241 18.8527 40.6241L18.4986 39.8886C18.4986 39.8886 18.4986 36.4626 17.074 36.2722C15.6494 36.0819 16.0293 36.3674 16.0293 36.3674Z" fill="#E6E6E6"/>
<path d="M23.5725 41.309C24.203 40.6772 24.3984 39.8486 24.009 39.4584C23.6195 39.0681 22.7927 39.264 22.1622 39.8958C21.5316 40.5276 21.3362 41.3561 21.7257 41.7464C22.1151 42.1366 22.9419 41.9408 23.5725 41.309Z" fill="#FFB6B6"/>
<path d="M9.74048 48.9773L11.3992 51.7284L21.0652 51.1552L18.4914 47.8311L9.74048 48.9773Z" fill="#E6E6E6"/>
<path d="M12.6286 61.8441C12.5723 61.8441 12.5233 61.8025 12.5154 61.7451L9.62705 40.6066C9.61847 40.5439 9.66227 40.4861 9.72485 40.4775C9.78741 40.4684 9.84511 40.5128 9.85371 40.5755L12.7421 61.7139C12.7507 61.7767 12.7069 61.8345 12.6443 61.8431C12.639 61.8438 12.6338 61.8441 12.6286 61.8441Z" fill="#E6E6E6"/>
<path d="M9.74037 61.8709C9.6772 61.8709 9.62598 61.8196 9.62598 61.7563V40.5951C9.62598 40.5318 9.6772 40.4805 9.74037 40.4805C9.80354 40.4805 9.85476 40.5318 9.85476 40.5951V61.7563C9.85476 61.8196 9.80354 61.8709 9.74037 61.8709Z" fill="#E6E6E6"/>
<path d="M24.2396 61.7868C24.1909 61.7868 24.1458 61.7554 24.1305 61.7065L17.2956 39.9376C17.2766 39.8772 17.3101 39.8129 17.3704 39.7939C17.4306 39.7749 17.4949 39.8085 17.5138 39.8688L24.3487 61.6377C24.3677 61.6981 24.3342 61.7624 24.2739 61.7815C24.2625 61.7851 24.2509 61.7868 24.2396 61.7868Z" fill="#E6E6E6"/>
<path d="M22.1519 61.8137C22.1008 61.8137 22.0543 61.7792 22.0411 61.7273L17.2938 42.5147C17.2783 42.4534 17.3153 42.391 17.3765 42.3754C17.4379 42.3599 17.5 42.3969 17.5156 42.4582L22.2628 61.6708C22.2784 61.7321 22.2414 61.7945 22.1802 61.8101C22.1707 61.8125 22.1612 61.8137 22.1519 61.8137Z" fill="#E6E6E6"/>
<path d="M9.74048 40.9321L17.6621 40.8101L19.1206 49.1491H9.85487L9.74048 40.9321Z" fill="#E6E6E6"/>
<path d="M21.9139 53.1941L19.9175 56.7161L22.2355 57.2275L23.2018 54.7225L21.9139 53.1941Z" fill="#FFB6B6"/>
<path d="M20.6345 56.0511C20.6345 56.0511 20.557 55.4768 20.1009 55.659C19.6448 55.8413 18.3286 56.5187 18.3286 56.5187C18.3286 56.5187 21.7616 62.1084 22.4132 61.848C23.0647 61.5876 22.2848 60.0075 22.2848 60.0075L22.4569 57.2146L20.6345 56.0511Z" fill="#2F2E41"/>
<path d="M13.0849 46.3599C13.0849 46.3599 12.3726 49.6433 14.557 50.7853C16.7414 51.9273 24.1968 49.1198 24.1968 49.1198L20.7778 54.2534L23.1521 55.2107C23.1521 55.2107 28.5657 48.073 28.1858 46.931C27.8059 45.7889 25.2416 45.6938 25.2416 45.6938L19.4481 45.9793L17.9285 45.5034L13.0849 46.3599Z" fill="#2F2E41"/>
<path d="M18.9605 54.7573L15.822 57.3099L17.7954 58.6314L19.6052 56.6506L18.9605 54.7573Z" fill="#FFB6B6"/>
<path d="M16.7312 56.9521C16.7312 56.9521 16.8675 56.3889 16.3765 56.3924C15.8855 56.3958 14.4136 56.5468 14.4136 56.5468C14.4136 56.5468 15.5814 63.0051 16.2828 63.0001C16.9842 62.9952 16.8316 61.239 16.8316 61.239L18.0061 58.7003L16.7312 56.9521Z" fill="#2F2E41"/>
<path d="M13.2185 45.1724C13.2185 45.1724 11.3627 47.9709 12.9826 49.8311C14.6026 51.6914 22.5664 51.7948 22.5664 51.7948L17.5176 55.3297L19.3815 57.0872C19.3815 57.0872 27.0159 52.4127 27.0768 51.2105C27.1376 50.0082 24.7837 48.9845 24.7837 48.9845L19.2837 47.138L18.0411 46.1407L13.2185 45.1724Z" fill="#2F2E41"/>
<path d="M17.9858 38.6904C17.9858 38.6904 16.1813 38.0242 15.3265 38.0242C15.2448 38.0242 15.1641 38.0337 15.0834 38.0508C14.5363 38.1669 14.0329 38.638 13.7917 38.895C13.6977 38.9958 13.6435 39.0634 13.6435 39.0634C13.6435 39.0634 13.6492 38.9978 13.6606 38.8826C13.7167 38.2773 13.9237 36.2911 14.2951 35.0197C14.428 34.5657 14.5809 34.2031 14.7566 34.0271C15.166 33.6159 15.355 33.123 15.4424 32.7556C15.5164 32.4406 15.5164 32.2189 15.5164 32.2189L14.8241 31.92L14.6959 31.0806C14.6731 31.1796 14.5676 31.3728 14.2134 31.743C14.183 31.7744 14.1498 31.8011 14.1146 31.8239C13.6037 32.1456 12.5618 31.586 12.0005 31.2339C12.2341 30.4202 12.6577 29.6759 13.427 29.5541C15.2315 29.2686 15.2315 28.2217 16.3712 29.3638C16.4652 29.458 16.5602 29.5484 16.6552 29.636C17.0199 30.3345 17.1528 31.271 17.2003 31.9219C17.2345 32.3778 17.226 32.6947 17.226 32.6947C17.226 32.6947 17.7008 35.5498 18.4606 36.1208C19.2204 36.6918 17.9858 38.6904 17.9858 38.6904Z" fill="#2F2E41"/>
<path d="M14.4717 34.1223L13.1885 36.0085L16.0863 36.787V34.1223H14.4717Z" fill="#FFB6B6"/>
<path opacity="0.1" d="M14.4717 34.1223L13.1885 36.0085L16.0863 36.787V34.1223H14.4717Z" fill="black"/>
<path d="M16.2666 35.9389L13.5123 34.7969C13.5123 34.7969 9.80835 36.4148 10.0933 39.5553C10.3782 42.6959 13.0375 48.1206 13.0375 48.1206L18.356 45.8365L17.7862 39.7457L16.2666 35.9389Z" fill="#E6E6E6"/>
<path d="M15.0857 34.9643C16.4277 34.9643 17.5156 33.8741 17.5156 32.5294C17.5156 31.1846 16.4277 30.0945 15.0857 30.0945C13.7437 30.0945 12.6558 31.1846 12.6558 32.5294C12.6558 33.8741 13.7437 34.9643 15.0857 34.9643Z" fill="#FFB6B6"/>
<path d="M18.3658 31.6478C17.891 32.1237 17.5111 32.5995 17.5111 32.5995L17.3211 31.8382C17.3211 31.8382 17.2774 31.8705 17.2005 31.9219C16.8994 32.1275 16.0912 32.6443 15.4425 32.7556C15.1538 32.8051 14.8974 32.7737 14.7302 32.5995C14.376 32.2293 14.2705 32.0361 14.2477 31.9372L14.1195 32.7765L13.4272 33.0754C13.4272 33.0754 13.4272 34.1203 14.187 34.8836C14.224 34.9207 14.2601 34.9664 14.2952 35.0197C14.658 35.5679 14.9183 36.9097 15.0835 38.0508C15.2298 39.0653 15.3001 39.9199 15.3001 39.9199C15.3001 39.9199 14.5811 39.0177 13.7919 38.895C13.7482 38.8883 13.7045 38.8835 13.6608 38.8826C13.6466 38.8807 13.6314 38.8807 13.6171 38.8807C12.7623 38.8807 10.9578 39.5469 10.9578 39.5469C10.9578 39.5469 9.72318 37.5483 10.483 36.9773C11.2428 36.4063 11.7176 33.5512 11.7176 33.5512C11.7176 33.5512 11.6863 32.3292 12.0007 31.2338C12.2343 30.4202 12.6579 29.6759 13.4272 29.5541C15.2317 29.2686 15.2317 28.2217 16.3714 29.3638C16.4654 29.458 16.5604 29.5484 16.6553 29.636C17.7172 30.6143 18.8018 31.211 18.3658 31.6478Z" fill="#2F2E41"/>
<path d="M7.70834 44.4231H6.80591V62.2827H7.70834V44.4231Z" fill="#3F3D56"/>
<path d="M29.5924 44.4231H28.6899V62.2827H29.5924V44.4231Z" fill="#3F3D56"/>
<path d="M23.8392 36.8496H17.8606V42.8405H23.8392V36.8496Z" fill="#FFE00B"/>
<path d="M14.4146 43.2194L16.8454 41.6704L17.8336 42.2677L14.4146 46.2045V43.2194Z" fill="#FFB6B6"/>
<path d="M11.0905 37.2238C11.0905 37.2238 9.47598 37.6045 10.2358 39.7934C10.9956 41.9823 13.4649 46.5504 14.2247 46.2649C14.9845 45.9794 15.0795 43.1243 15.0795 43.1243C15.0795 43.1243 14.9845 43.2195 14.6046 42.8388C14.2247 42.4581 14.2247 42.632 14.2247 42.212C14.2247 41.792 13.914 41.4806 13.914 41.4806L13.5599 40.7451C13.5599 40.7451 13.5599 37.319 12.1353 37.1287C10.7106 36.9383 11.0905 37.2238 11.0905 37.2238Z" fill="#E6E6E6"/>
<path d="M18.6337 42.1654C19.2643 41.5336 19.4597 40.7051 19.0703 40.3148C18.6808 39.9246 17.854 40.1204 17.2235 40.7522C16.5929 41.384 16.3975 42.2126 16.7869 42.6028C17.1764 42.9931 18.0032 42.7972 18.6337 42.1654Z" fill="#FFB6B6"/>
<path d="M31.3972 43.7449H4.09863V45.7795H31.3972V43.7449Z" fill="#3F3D56"/>
<path d="M59.1323 27.4675H55.1006C54.7811 27.4675 54.522 27.7271 54.522 28.0474V29.7136C54.522 30.0338 54.7811 30.2934 55.1006 30.2934H59.1323C59.4519 30.2934 59.711 30.0338 59.711 29.7136V28.0474C59.711 27.7271 59.4519 27.4675 59.1323 27.4675Z" fill="#3F3D56"/>
<path d="M67.5925 29.1338H63.5608C63.2413 29.1338 62.9822 29.3934 62.9822 29.7137V29.7137C62.9822 30.0339 63.2413 30.2935 63.5608 30.2935H67.5925C67.9121 30.2935 68.1712 30.0339 68.1712 29.7137C68.1712 29.3934 67.9121 29.1338 67.5925 29.1338Z" fill="#FFE00B"/>
</g>
<defs>
<clipPath id="clip0_7_3888">
<rect width="96" height="63" fill="white"/>
</clipPath>
</defs>
</svg>
