<svg width="107" height="40" viewBox="0 0 107 40" fill="none" xmlns="http://www.w3.org/2000/svg">
<g clip-path="url(#clip0_8_246)">
<path d="M29.0173 9.60516L33.1876 7.85913L34.9764 11.5071L30.594 13.2867L29.0173 9.60516Z" fill="#FFB6B6"/>
<path opacity="0.1" d="M29.0173 9.60516L33.1876 7.85913L34.9764 11.5071L30.594 13.2867L29.0173 9.60516Z" fill="black"/>
<path d="M29.6103 8.21504L33.7244 12.9308C33.7244 12.9308 30.8624 21.9173 28.0004 22.7181C25.1385 23.5189 19.8617 27.4338 19.8617 27.4338L13.2434 23.163L16.4631 18.4473C16.4631 18.4473 24.2441 7.85913 26.3011 7.85913C28.3582 7.85913 29.6103 8.21504 29.6103 8.21504Z" fill="#FFE00B"/>
<path d="M24.0519 38.9562H14.475L13.8695 38.151L11.3975 34.8633L10.8287 34.107C10.8287 34.107 8.68222 30.1921 9.12941 26.633C9.57659 23.074 14.2273 22.2732 14.2273 22.2732H14.4187L20.1122 27.2505L19.7723 31.8826L21.5754 34.8633L24.0519 38.9562Z" fill="#2F2E41"/>
<path d="M16.4362 38.956H13.8694V35.1746L16.4362 38.956Z" fill="#2F2E41"/>
<path d="M86.9949 12.5066L87.9522 18.4475L81.9036 18.5251V13.36L86.9949 12.5066Z" fill="#A0616A"/>
<path d="M101.403 33.2155L101.084 34.8633L100.291 38.9562H84.3723C84.4966 38.0388 84.6666 36.7184 84.8481 35.293C84.866 35.1507 84.8848 35.0074 84.9027 34.8633C85.3579 31.2802 85.8561 27.2256 85.8561 27.2256L87.9489 27.4783L92.0093 27.9677L93.6639 28.167L98.0945 28.7017C100.304 28.9677 101.823 31.0409 101.403 33.2155Z" fill="#F2F2F2"/>
<path d="M94.3273 38.9561H85.6931C85.8246 38.8022 85.8988 38.7132 85.8988 38.7132L88.4871 38.2879L93.8202 37.4124C93.8202 37.4124 94.0635 38.0379 94.3273 38.9561Z" fill="#2F2E41"/>
<path d="M82.4493 38.9561H69.4104C69.5401 38.6999 69.6742 38.4428 69.812 38.1865C69.9962 37.8439 70.193 37.5388 70.4014 37.2674C70.54 37.0868 70.6831 36.9213 70.8307 36.77C71.2644 36.326 71.7366 36.003 72.2339 35.7815C74.0092 34.9869 76.1012 35.4736 77.8827 36.2655C78.5517 36.5627 79.1769 36.9026 79.7251 37.2336C80.691 37.8172 81.4199 38.3742 81.7303 38.6216C81.8376 38.7061 81.8948 38.7551 81.8948 38.7551L82.4493 38.9561Z" fill="#2F2E41"/>
<path d="M72.1052 38.9562H70.2556L70.743 38.393L71.0185 38.0745L71.1366 38.1697L72.1052 38.9562Z" fill="#FFB6B6"/>
<path d="M94.9588 38.9561H79.0319L79.7251 37.2336L80.6776 34.8633L81.156 33.6728L80.7607 31.9991C80.7607 31.9991 80.5658 31.8621 80.2688 31.6156C79.2108 30.7437 76.8559 28.4979 77.397 26.1917C78.0123 23.5669 78.7851 18.4516 78.9487 17.3492C78.9693 17.2113 78.98 17.1366 78.98 17.1366L81.2786 16.576L81.3546 16.5573L81.6014 16.4968H87.7582L92.2864 19.5478L92.2855 19.5798L92.0091 27.9676L91.8911 31.556C91.8911 31.556 91.7489 32.0738 91.7829 32.8782C91.8052 33.4298 91.9099 34.1159 92.1997 34.8633C92.5064 35.6578 93.0225 36.5209 93.8694 37.3635C94.5089 37.9997 94.8192 38.5353 94.9588 38.9561Z" fill="#FFE00B"/>
<path d="M93.6638 28.1669C93.5126 29.4001 93.3677 30.2765 93.3677 30.2765L91.7829 32.8781L90.5737 34.8632L88.4872 38.2879L88.1813 38.7906L87.9631 38.9561H81.4172L81.7303 38.6215L84.848 35.2929L85.2514 34.8632L85.9051 34.1647L87.9488 27.4782L90.3573 19.5976C90.3573 19.5976 91.3331 19.2595 92.2856 19.5798C92.7864 19.748 93.2819 20.0985 93.6226 20.7783C94.2746 22.0756 93.9571 25.7859 93.6638 28.1669Z" fill="#FFE00B"/>
<path d="M82.1487 27.9517L80.2688 31.6157L78.6026 34.8633L77.8826 36.2656L77.5991 36.819L75.1691 38.9562H69.667L70.5739 37.8351L70.9111 37.4169L72.2338 35.7816L72.9761 34.8633L74.9911 32.3702L75.5286 21.0153C75.6177 19.1319 77.0601 17.6095 78.9374 17.3512C78.9414 17.3506 78.9452 17.35 78.9487 17.3493C79.5587 17.2274 80.5282 17.1918 81.2785 17.9134C81.3045 17.9374 81.3295 17.9632 81.3546 17.9899C81.4807 18.1225 81.5996 18.2782 81.7087 18.4606C81.7195 18.4784 81.7302 18.4971 81.74 18.5158C81.7713 18.5727 81.8017 18.635 81.8295 18.7017C82.7873 20.9208 82.1487 27.9517 82.1487 27.9517Z" fill="#FFE00B"/>
<path d="M83.7894 15.1507C86.191 15.1507 88.1378 13.2138 88.1378 10.8246C88.1378 8.43538 86.191 6.49854 83.7894 6.49854C81.3878 6.49854 79.4409 8.43538 79.4409 10.8246C79.4409 13.2138 81.3878 15.1507 83.7894 15.1507Z" fill="#A0616A"/>
<path d="M85.5924 12.5254C85.5924 12.5254 85.1417 11.2898 84.8861 10.6487C84.6305 10.0075 84.7971 9.17552 84.7971 9.17552C84.7971 9.17552 81.3861 8.42647 80.0503 9.1689C78.7145 9.91133 78.6247 6.17704 79.9804 5.1607C79.9804 5.1607 80.3434 5.78841 80.2025 5.96888L80.0616 6.14934C80.0616 6.14934 81.0876 3.99087 82.82 3.88281C82.82 3.88281 83.6411 4.53461 83.3316 4.74976C83.0221 4.9649 85.6131 3.53354 86.0639 4.76911C86.0639 4.76911 87.716 5.06193 87.394 5.6233L87.4212 6.01074C87.4212 6.01074 88.9185 5.85608 88.8118 6.91166C88.8118 6.91166 88.3081 6.81179 87.9859 7.02578C87.6638 7.23978 88.7523 8.25446 88.7523 8.25446C88.7523 8.25446 89.4065 12.4827 87.1377 13.7001C87.1377 13.7001 87.5057 11.7759 86.6397 12.0904C85.7737 12.405 85.5924 12.5254 85.5924 12.5254Z" fill="#2F2E41"/>
<path d="M104.387 39.9999H2.61253C1.17197 39.9999 0 38.834 0 37.4008C0 35.9677 1.17197 34.8018 2.61253 34.8018H104.387C105.828 34.8018 107 35.9677 107 37.4008C107 38.834 105.828 39.9999 104.387 39.9999Z" fill="#E6E6E6"/>
<path d="M100.917 26.8797L100.719 36.0659C100.699 36.9552 99.9694 37.6661 99.0753 37.6661H82.0894C81.2165 37.6661 80.4959 36.9873 80.4482 36.1202L79.9434 26.934C79.8919 25.9972 80.6416 25.2095 81.5847 25.2095H99.2732C100.195 25.2095 100.936 25.9631 100.917 26.8797Z" fill="#3F3D56"/>
<path d="M36.5864 11.8226C38.8308 11.8226 40.6503 10.0125 40.6503 7.77958C40.6503 5.54669 38.8308 3.73657 36.5864 3.73657C34.3419 3.73657 32.5225 5.54669 32.5225 7.77958C32.5225 10.0125 34.3419 11.8226 36.5864 11.8226Z" fill="#FFB6B6"/>
<path d="M29.7891 18.3583L30.2363 23.163L33.2771 35.3527L30.6501 36.2687L26.2117 22.985L25.5986 17.6465L29.7891 18.3583Z" fill="#FFB6B6"/>
<path d="M28.5796 26.8797L28.3817 36.0659C28.3626 36.9552 27.6325 37.6661 26.7384 37.6661H9.75253C8.87961 37.6661 8.15895 36.9873 8.1113 36.1202L7.60651 26.934C7.55503 25.9972 8.3047 25.2095 9.24773 25.2095H26.9363C27.8579 25.2095 28.5993 25.9631 28.5796 26.8797Z" fill="#3F3D56"/>
<path d="M33.7612 37.7281C35.5338 37.7281 36.9707 37.0958 36.9707 36.3158C36.9707 35.5359 35.5338 34.9036 33.7612 34.9036C31.9887 34.9036 30.5518 35.5359 30.5518 36.3158C30.5518 37.0958 31.9887 37.7281 33.7612 37.7281Z" fill="#FFB6B6"/>
<path d="M23.4839 19.0928L25.3173 9.37165C25.3173 9.37165 30.4152 8.65985 30.5941 10.3504C30.773 12.0409 30.4663 20.3028 30.4663 20.3028L23.4839 19.0928Z" fill="#FFE00B"/>
<path d="M34.9459 8.41523C34.9459 8.41523 37.4598 7.52262 38.5203 7.04236C39.5807 6.5621 41.6874 9.9119 41.7343 8.14276C41.7812 6.37362 41.0532 5.63172 41.0532 5.63172C41.0532 5.63172 40.8714 1.76147 36.952 2.24534C36.952 2.24534 37.8141 0.309015 34.9843 0.00959749C32.1545 -0.28982 27.7519 6.50862 28.1462 7.52461C28.5405 8.5406 29.0131 9.38057 27.8945 10.4669C26.7759 11.5532 24.6813 17.6841 26.275 19.3339C27.8686 20.9837 27.9732 21.6996 26.8813 22.7259C25.7894 23.7523 23.2084 25.984 25.999 26.3715C28.7897 26.7589 25.7437 26.4695 27.8242 24.6489C29.9047 22.8284 32.9405 22.9027 31.807 19.9818C30.6734 17.0608 32.6428 12.875 32.3964 12.2401C32.15 11.6051 32.9485 7.57281 32.9485 7.57281C32.9485 7.57281 34.8069 7.30117 34.9459 8.41523Z" fill="#2F2E41"/>
<path d="M68.3746 27.2608C66.3679 34.4421 58.2158 38.8125 50.1661 37.0217C42.1196 35.2313 37.2212 27.9574 39.2288 20.7765C41.2346 13.5944 49.3867 9.22353 57.4341 11.0139C65.4833 12.8043 70.3813 20.0791 68.3746 27.2608Z" fill="#F7931A"/>
<path d="M60.4259 22.1083C60.7249 20.3246 59.2028 19.3658 57.1215 18.7261L57.7966 16.3098L56.1482 15.9433L55.4909 18.2959C55.0575 18.1995 54.6124 18.1086 54.1701 18.0186L54.8321 15.6505L53.1846 15.2839L52.509 17.6993C52.1503 17.6264 51.7982 17.5544 51.4564 17.4786L51.4582 17.471L49.1849 16.9646L48.7464 18.5355C48.7464 18.5355 49.9694 18.7855 49.9436 18.8011C50.6112 18.9498 50.7319 19.344 50.7117 19.6565L49.9427 22.4091C49.9887 22.4196 50.0483 22.4346 50.114 22.4581C50.0591 22.446 50.0004 22.4326 49.9398 22.4196L48.8618 26.2756C48.7801 26.4566 48.5731 26.728 48.1064 26.625C48.1228 26.6463 46.9082 26.3581 46.9082 26.3581L46.0898 28.0417L48.235 28.5188C48.6341 28.6081 49.0252 28.7015 49.4102 28.7895L48.728 31.2334L50.3746 31.5999L51.0502 29.182C51.5 29.2909 51.9366 29.3914 52.3639 29.4861L51.6906 31.8927L53.3391 32.2593L54.0213 29.82C56.8322 30.2946 58.946 30.1032 59.8357 27.8348C60.5526 26.0084 59.8 24.9548 58.321 24.2678C59.3981 24.0462 60.2094 23.4141 60.4259 22.1083ZM56.6595 26.8206C56.15 28.647 52.7034 27.6597 51.5859 27.4121L52.4912 24.1744C53.6086 24.4232 57.1919 24.9158 56.6595 26.8206ZM57.1694 22.0819C56.7045 23.7433 53.8358 22.8992 52.9053 22.6923L53.726 19.7557C54.6565 19.9627 57.6534 20.3489 57.1694 22.0819Z" fill="white"/>
</g>
<defs>
<clipPath id="clip0_8_246">
<rect width="107" height="40" fill="white"/>
</clipPath>
</defs>
</svg>
