<svg width="95" height="63" viewBox="0 0 95 63" fill="none" xmlns="http://www.w3.org/2000/svg">
<g clip-path="url(#clip0_8_142)">
<path d="M88.7321 59.7894L87.6688 60.4807L84.4961 56.7088L86.0654 55.6885L88.7321 59.7894Z" fill="#A0616A"/>
<path d="M89.491 60.874L86.2212 62.9999L86.1944 62.9586C85.9749 62.6211 85.8985 62.2102 85.982 61.8164C86.0654 61.4226 86.3019 61.078 86.6394 60.8585L86.9421 60.0171L88.3511 59.7456L88.6365 59.5601L89.491 60.874Z" fill="#2F2E41"/>
<path d="M70.5099 61.6008L69.2417 61.6006L68.6384 56.709L70.5102 56.7091L70.5099 61.6008Z" fill="#A0616A"/>
<path d="M70.5547 62.9237L66.6545 62.9236V62.8743C66.6546 62.4717 66.8145 62.0856 67.0992 61.801C67.3839 61.5163 67.77 61.3564 68.1726 61.3563L68.8851 60.8159L70.2143 61.3564H70.5548L70.5547 62.9237Z" fill="#2F2E41"/>
<path d="M83.6381 31.678L72.2648 31.928L71.1375 33.3371C71.1375 33.3371 71.235 32.8403 71.1482 33.3859C71.0614 33.9316 68.8673 44.8109 69.282 45.1758C69.6968 45.5407 68.4956 48.0599 68.4074 48.2135C68.3191 48.3671 67.3682 55.9502 68.4074 56.5737L68.7977 59.2206H70.614C70.614 59.2206 72.4335 57.1152 72.0673 56.7335C71.7011 56.3518 72.7484 55.0827 72.7884 54.4021C72.8285 53.7216 73.2109 50.6348 72.9146 50.1399C72.6183 49.645 72.2178 47.7876 72.9694 47.0675C73.721 46.3475 77.2262 37.4989 77.2262 37.4989C77.2262 37.4989 78.2448 47.8725 78.2424 48.687C78.2393 49.7463 78.9349 49.222 78.9349 50.1519C78.9349 50.3398 81.2001 55.1686 82.7225 56.678L85.8707 59.0995L87.3238 58.0098V56.4358C87.3238 56.4358 85.9772 53.5154 85.5075 53.0457C85.0378 52.576 83.3033 51.1383 83.3033 50.4807C83.3033 49.8232 82.4869 49.5941 83.036 48.7223C83.5852 47.8505 83.3973 47.4747 83.2094 47.099C83.0215 46.7232 83.3778 31.3276 83.3778 31.3276L83.6381 31.678Z" fill="#2F2E41"/>
<path d="M78.8957 8.8498C80.7938 8.8498 82.3325 7.31123 82.3325 5.4133C82.3325 3.51538 80.7938 1.97681 78.8957 1.97681C76.9977 1.97681 75.459 3.51538 75.459 5.4133C75.459 7.31123 76.9977 8.8498 78.8957 8.8498Z" fill="#A0616A"/>
<path d="M81.6412 32.9915L82.6086 30.0796L84.3493 30.4001L83.217 33.4424C83.2858 33.6206 83.3036 33.8146 83.2682 34.0023C83.2329 34.1901 83.1459 34.3643 83.017 34.5054C82.888 34.6464 82.7223 34.7487 82.5384 34.8008C82.3546 34.8528 82.1598 34.8525 81.9761 34.8C81.7924 34.7474 81.627 34.6446 81.4984 34.5032C81.3699 34.3618 81.2834 34.1873 81.2486 33.9994C81.2138 33.8115 81.2321 33.6177 81.3015 33.4396C81.3708 33.2616 81.4885 33.1064 81.6412 32.9915Z" fill="#A0616A"/>
<path d="M61.5779 27.364L63.9483 25.4153L65.2505 26.6139L62.6711 28.5851C62.6344 28.7726 62.546 28.9461 62.4161 29.0862C62.2861 29.2263 62.1196 29.3274 61.9354 29.378C61.7511 29.4287 61.5564 29.427 61.373 29.373C61.1897 29.3191 61.0251 29.2151 60.8976 29.0727C60.7702 28.9304 60.6849 28.7552 60.6515 28.5671C60.6182 28.379 60.6379 28.1852 60.7086 28.0077C60.7793 27.8302 60.8981 27.6759 61.0517 27.5621C61.2052 27.4484 61.3875 27.3798 61.5779 27.364Z" fill="#A0616A"/>
<path d="M74.7808 4.81209C75.1513 4.92711 75.5085 4.99491 75.7494 4.69101C75.9904 4.38711 75.9274 4.03962 76.2859 3.89311C76.5856 3.79261 76.9121 3.80773 77.2013 3.93549C77.2533 3.95486 77.3042 3.97665 77.3538 3.99845C77.3817 3.97423 77.4095 3.95124 77.4398 3.92943C77.6676 3.76745 77.9489 3.69898 78.2257 3.73814C78.0233 3.83585 77.8569 3.99468 77.7498 4.19217C77.8491 4.24181 77.9496 4.29145 78.0513 4.33383C78.4787 4.50867 78.941 4.58153 79.4015 4.54665C79.862 4.51176 80.308 4.37008 80.7043 4.13285C80.3071 5.17894 80.6159 5.55185 81.1983 6.50715L81.2213 6.56284C81.1632 6.31221 81.9248 6.02284 81.9248 6.38607C81.8913 6.75821 81.8099 7.12447 81.6826 7.47576C82.4297 6.35096 82.8705 5.03486 82.5811 3.77203C82.5193 3.50688 82.4915 3.22235 82.3232 3.00683C82.1549 2.79253 81.8449 2.66661 81.6003 2.78769C81.57 2.37706 81.4289 1.98232 81.1922 1.64544C80.9554 1.30855 80.6318 1.04212 80.2557 0.874455C79.8796 0.706792 79.4651 0.644169 79.0563 0.693244C78.6474 0.742318 78.2596 0.901255 77.9338 1.15316C77.6311 1.38684 77.3926 1.69316 77.1226 1.96558C76.8525 2.23801 76.5329 2.48621 76.1551 2.55401C75.9153 2.59639 75.6453 2.57096 75.454 2.72231C75.2324 2.89788 75.23 3.20662 75.2312 3.50326C75.448 3.49707 75.6618 3.55566 75.8451 3.67155C75.6207 3.67719 75.4037 3.75345 75.2251 3.88949C75.2217 3.89161 75.2185 3.89404 75.2155 3.89675C75.1501 4.39559 75.1767 4.50093 74.7808 4.81209Z" fill="#2F2E41"/>
<path d="M86.8724 16.0762C86.7923 15.6929 86.634 15.3302 86.4073 15.0109C86.1806 14.6916 85.8904 14.4225 85.5549 14.2206C85.5298 14.0923 85.4854 14.0103 85.4171 13.986C84.4402 13.6388 81.7132 12.0346 81.7132 12.0346L81.4846 10.2002L76.55 9.96313L75.2872 12.0346C75.2872 12.0346 72.0163 12.3633 72.077 13.5607C71.2848 14.5486 67.7586 18.9632 65.6451 21.8826C64.6349 23.2779 63.9471 24.332 64.0354 24.5066C64.3329 25.0944 63.915 24.6978 63.4475 24.804C62.9801 24.9102 63.2067 25.1864 63.2173 25.5937C63.2279 26.0009 61.6201 26.8578 61.6201 26.8578C62.6011 27.2084 63.8299 28.6497 63.8299 28.6497C63.8299 28.6497 65.0198 27.3962 65.2359 27.2652C65.4519 27.1341 65.5723 26.9429 66.2558 26.7057C66.9393 26.4685 66.6525 26.2878 66.7021 25.785C66.7517 25.2822 66.9181 25.654 67.8778 25.1901C68.8376 24.7263 68.0584 24.9033 68.3241 24.2695C68.5897 23.6356 68.5047 23.9826 69.3688 23.4586C69.8882 23.1436 70.4041 22.681 71.1219 21.8826C71.5983 21.3527 72.1636 20.6751 72.8785 19.7936C72.8833 19.7876 72.8879 19.7814 72.8927 19.7754C72.9407 20.49 72.9777 21.2048 72.9997 21.8826C73.0623 23.8083 73.0026 25.4321 72.7223 25.8793C72.3288 26.507 71.6628 28.6074 71.1214 30.4516C71.0165 30.8092 70.998 31.1866 71.0674 31.5528C71.1367 31.919 71.2919 32.2635 71.5202 32.5581C71.7485 32.8527 72.0434 33.089 72.3807 33.2475C72.718 33.406 73.0881 33.4823 73.4606 33.4701C76.8193 33.3593 81.7342 33.1031 82.6921 32.541C83.2131 32.6155 83.7279 32.7287 84.2321 32.8795C84.2321 32.8795 84.5711 31.1848 84.6841 30.9588C84.7971 30.7329 84.7971 30.5069 85.2491 29.942C85.701 29.377 85.362 29.377 85.1361 28.9251C84.9101 28.4732 85.2491 28.6991 85.814 27.7953C86.379 26.8914 85.814 27.4563 85.701 26.7784C85.588 26.1005 85.701 26.4395 86.153 25.5356C86.5275 24.7867 86.7469 23.804 87.0039 21.8826C87.0571 21.4851 87.1118 21.0484 87.1699 20.5643C87.3618 18.965 87.1191 17.257 86.8724 16.0762Z" fill="#FFE00B"/>
<path d="M32.8918 60.2754C32.8165 60.2789 32.7419 60.2591 32.6782 60.2188C32.6145 60.1784 32.5647 60.1195 32.5356 60.0499C32.5065 59.9804 32.4995 59.9036 32.5156 59.8299C32.5316 59.7562 32.5699 59.6893 32.6253 59.6381L32.6505 59.5379C32.6471 59.5299 32.6438 59.5219 32.6404 59.5139C32.5646 59.3347 32.4374 59.1819 32.275 59.0747C32.1125 58.9675 31.922 58.9107 31.7274 58.9114C31.5328 58.9121 31.3427 58.9704 31.1811 59.0787C31.0194 59.1871 30.8934 59.3409 30.8189 59.5207C30.521 60.2381 30.1416 60.9569 30.0482 61.7155C30.0071 62.0508 30.0245 62.3907 30.0995 62.7201C29.3998 61.1938 29.0364 59.5349 29.0341 57.8559C29.0339 57.4346 29.0573 57.0136 29.1042 56.5948C29.1429 56.2516 29.1967 55.9108 29.2654 55.5724C29.6404 53.7364 30.4457 52.0155 31.615 50.5512C32.181 50.2424 32.6386 49.7676 32.9264 49.1907C33.0306 48.9833 33.1043 48.7619 33.1451 48.5335C33.0813 48.5418 32.9044 47.5696 32.9526 47.51C32.8636 47.375 32.7044 47.3079 32.6072 47.1761C32.1239 46.521 31.4581 46.6354 31.1105 47.5257C30.368 47.9004 30.3608 48.5218 30.8164 49.1195C31.1063 49.4998 31.1461 50.0143 31.4005 50.4214C31.3743 50.4549 31.3471 50.4873 31.3209 50.5208C30.8426 51.1358 30.4257 51.7962 30.0763 52.4925C30.1612 51.7124 30.0598 50.9233 29.7803 50.1901C29.497 49.5068 28.9661 48.9313 28.4985 48.3406C27.9368 47.631 26.7852 47.9407 26.6862 48.8401C26.6852 48.8488 26.6843 48.8575 26.6834 48.8663C26.7529 48.9054 26.8208 48.947 26.8874 48.991C26.9709 49.0468 27.0357 49.1266 27.0731 49.2198C27.1106 49.3131 27.119 49.4155 27.0972 49.5136C27.0755 49.6117 27.0246 49.701 26.9513 49.7697C26.878 49.8384 26.7856 49.8833 26.6863 49.8987L26.6761 49.9002C26.7008 50.1505 26.7446 50.3986 26.8069 50.6422C26.2071 52.9618 27.5021 53.8066 29.3512 53.8446C29.392 53.8655 29.4318 53.8864 29.4726 53.9063C29.1215 54.9013 28.9013 55.9376 28.8174 56.9894C28.77 57.6099 28.7728 58.2332 28.8258 58.8532L28.8227 58.8313C28.6887 58.1418 28.3209 57.5197 27.7813 57.07C26.9799 56.4117 25.8477 56.1693 24.9831 55.6402C24.8912 55.5812 24.7844 55.5497 24.6752 55.5494C24.566 55.5492 24.459 55.5801 24.3669 55.6387C24.2747 55.6972 24.2012 55.7809 24.155 55.8798C24.1088 55.9788 24.0919 56.0889 24.1063 56.1971C24.1074 56.2048 24.1086 56.2125 24.1098 56.2202C24.2387 56.2727 24.3642 56.3331 24.4855 56.4012C24.555 56.4404 24.623 56.482 24.6895 56.526C24.7731 56.5818 24.8378 56.6616 24.8753 56.7548C24.9127 56.8481 24.9211 56.9505 24.8994 57.0486C24.8776 57.1467 24.8268 57.2359 24.7534 57.3047C24.6801 57.3734 24.5877 57.4183 24.4884 57.4336L24.4782 57.4352C24.4709 57.4362 24.4646 57.4373 24.4573 57.4383C24.6775 57.9641 24.9866 58.448 25.371 58.8689C25.746 60.8938 27.357 61.0859 29.0801 60.4963H29.0812C29.2702 61.3178 29.5442 62.1175 29.8986 62.8823H32.8186C32.8291 62.8499 32.8385 62.8164 32.8479 62.784C32.5776 62.801 32.3063 62.7848 32.0399 62.7358C32.2566 62.47 32.4732 62.2021 32.6899 61.9363C32.6947 61.9313 32.6992 61.9261 32.7035 61.9206C32.8134 61.7845 32.9243 61.6495 33.0342 61.5135L33.0343 61.5133C33.0401 61.0963 32.9922 60.6802 32.8918 60.2754Z" fill="#F2F2F2"/>
<path d="M10.4319 55.8593L11.2376 56.7107L14.9786 53.9393L13.7895 52.6826L10.4319 55.8593Z" fill="#C78F8F"/>
<path d="M11.7521 56.3301L10.84 55.4733L10.616 55.2634L8.29395 57.1198L8.89799 57.7582L9.60901 57.3022L9.28237 58.1645L10.8839 59.857C10.9606 59.9382 11.0613 59.9927 11.1712 60.0127C11.2811 60.0326 11.3946 60.0168 11.4949 59.9678C11.5953 59.9187 11.6773 59.8388 11.729 59.7398C11.7808 59.6408 11.7995 59.5279 11.7825 59.4175L11.4369 57.1815L12.046 56.6056L11.7521 56.3301Z" fill="#2F2E41"/>
<path d="M28.1387 24.8571L27.8832 27.6456C27.8832 27.6456 27.4373 29.7464 27.7461 29.5761C28.0548 29.4059 27.5013 30.1723 27.6471 30.8369C27.7928 31.5015 26.4018 36.4575 27.0318 35.9441C27.6619 35.4307 26.6677 38.9775 26.0389 40.7273C25.8464 41.2682 25.6486 41.8157 25.4495 42.3593C25.4102 42.4693 25.3709 42.578 25.3304 42.688C25.0723 43.3953 24.8142 44.0921 24.5667 44.7495C24.5313 44.8413 24.4972 44.9329 24.4632 45.0233C24.4619 45.0259 24.4619 45.0285 24.4606 45.0285C23.6459 47.1726 22.9477 48.8595 22.6687 49.1385C22.5233 49.2839 20.2167 50.9499 17.8917 52.6185C15.4515 54.3697 12.9916 56.1247 12.9916 56.1247L10.6941 53.7148C10.6941 53.7148 10.7491 53.6991 10.8526 53.6677C11.0438 53.6126 11.3975 53.5091 11.8612 53.3716C13.7945 52.8019 11.3385 51.9152 13.0938 51.2813C13.5889 51.1032 13.919 50.9643 13.9936 50.891C14.4298 50.4653 15.0153 49.4503 15.2917 49.8759C15.568 50.3016 16.8216 47.1386 17.1831 46.8255C17.3769 46.6566 18.0096 45.8668 18.5519 45.1726C19.0182 44.5753 19.419 44.0475 19.419 44.0475C19.419 44.0475 19.4268 43.7646 19.4386 43.3141C19.4557 42.6474 19.4806 41.6114 19.5068 40.5741C19.5054 40.5728 19.5054 40.5728 19.5068 40.5728C19.5159 40.1824 19.5251 39.7921 19.5343 39.4215C19.5408 39.1346 19.5473 38.8583 19.5539 38.6029C19.5709 37.838 19.5827 37.2591 19.5827 37.115C19.5827 36.6422 19.5827 37.0103 19.956 36.7247C20.0118 36.6809 20.0647 36.6337 20.1145 36.5833C20.1943 36.5114 20.268 36.433 20.3346 36.3488C20.3621 36.2899 20.1905 36.3698 19.9678 36.3253C19.8472 36.3011 19.7357 36.2439 19.6456 36.1602C19.1766 35.7385 19.6823 34.4419 19.6823 34.4419C18.6161 32.3096 18.6934 30.5611 19.1924 29.2133C19.5655 28.2462 20.1578 27.3787 20.9227 26.679C21.2138 26.4016 21.531 26.1529 21.8698 25.9363L21.9025 25.7596L22.2627 23.8093C22.4543 23.7041 22.6535 23.6135 22.8587 23.5382C23.4985 23.3087 24.185 23.2403 24.8575 23.3391C25.5258 23.4358 26.173 23.6453 26.7712 23.9587C27.2602 24.2043 27.7191 24.5058 28.1387 24.8571Z" fill="#2F2E41"/>
<path d="M18.0786 60.2035L19.2458 60.3121L20.2294 55.7615L18.5065 55.6013L18.0786 60.2035Z" fill="#C78F8F"/>
<path d="M21.4402 61.9873L19.7059 60.5348L19.7846 59.6992L19.3812 59.6861L18.1316 59.6455H18.1302L17.8237 59.635L17.3037 62.561L18.18 62.6422L18.4118 61.8302L18.7354 62.6946L19.1991 62.7379L21.0551 62.9107C21.0709 62.912 21.0879 62.9133 21.1036 62.9133C21.1774 62.9134 21.2504 62.8978 21.3177 62.8676C21.385 62.8373 21.445 62.7931 21.4939 62.7379C21.5699 62.6547 21.6164 62.5488 21.6262 62.4366C21.6339 62.3522 21.621 62.2673 21.5886 62.189C21.5562 62.1108 21.5053 62.0416 21.4402 61.9873Z" fill="#2F2E41"/>
<path d="M24.5667 44.7497C24.1227 47.1662 22.243 52.8322 21.1061 56.1485C20.5887 57.6638 20.2272 58.6894 20.2272 58.6894L19.6378 58.5034H19.6365L18.6397 58.189L18.2769 58.0738H18.2755L17.8354 57.9337C17.8354 57.9337 17.8865 55.2277 17.8918 52.6187C17.8957 51.525 17.8904 50.4471 17.8695 49.5932C17.8459 48.6619 17.8053 47.9953 17.7385 47.863C17.4621 47.3207 17.9245 47.2631 18.4131 47.1269C18.9029 46.9894 18.5205 46.7824 18.3305 46.3424C18.2022 46.049 18.455 45.6574 18.6344 45.4347C18.684 45.372 18.7369 45.3121 18.7929 45.2552C18.7929 45.2552 18.7065 45.2251 18.5519 45.1728C19.0182 44.5755 19.419 44.0477 19.419 44.0477C19.419 44.0477 19.4269 43.7648 19.4386 43.3142C19.4557 42.6476 19.4806 41.6116 19.5068 40.5742C19.5055 40.5729 19.5055 40.5729 19.5068 40.5729C19.516 40.1826 19.5251 39.7923 19.5343 39.4216C20.2835 39.9966 21.0118 40.5599 21.672 41.0811C21.6728 41.0817 21.6734 41.0825 21.6739 41.0834C21.6743 41.0844 21.6746 41.0854 21.6746 41.0864C23.2608 42.3398 24.4515 43.3457 24.6191 43.6653C24.6951 43.8093 24.6689 44.1944 24.5667 44.7497Z" fill="#2F2E41"/>
<path d="M94.5357 62.9995H0.130985C0.0962454 62.9995 0.0629289 62.9857 0.0383644 62.9611C0.0138 62.9366 0 62.9033 0 62.8685C0 62.8338 0.0138 62.8005 0.0383644 62.7759C0.0629289 62.7513 0.0962454 62.7375 0.130985 62.7375H94.5357C94.5704 62.7375 94.6037 62.7513 94.6283 62.7759C94.6529 62.8005 94.6667 62.8338 94.6667 62.8685C94.6667 62.9033 94.6529 62.9366 94.6283 62.9611C94.6037 62.9857 94.5704 62.9995 94.5357 62.9995Z" fill="#E6E6E6"/>
<path d="M21.6013 20.1436L21.8468 22.4202L21.7024 25.4055L28.3152 24.6199L28.9365 20.1436L28.1448 20.1514L21.6013 20.1436Z" fill="#FFB6B6"/>
<path d="M27.2261 12.7906L24.7374 10.826L23.431 10.75L21.4926 11.9917L21.0179 14.4131L19.8953 17.1398L21.5418 24.4982C21.5418 24.4982 21.6963 25.0262 21.2916 25.0896C20.8869 25.1531 20.9354 25.9314 20.9354 25.9314C20.9354 25.9314 21.0178 26.6059 20.6249 26.6653C20.2319 26.7248 19.1841 26.7248 20.101 27.9035C21.0179 29.0823 28.27 24.624 28.27 24.624L29.3233 19.0976C29.3233 19.0976 31.366 16.3542 29.1661 14.783L27.2261 12.7906Z" fill="#FFE00B"/>
<path d="M16.3619 29.4974C16.2522 29.3606 16.1739 29.2014 16.1324 29.031C16.0909 28.8606 16.0873 28.6833 16.1218 28.5113C16.1564 28.3394 16.2281 28.1772 16.3321 28.036C16.4362 27.8948 16.5699 27.7782 16.7238 27.6943L19.8542 17.1895L21.8117 18.1749L18.4026 28.2436C18.5264 28.5116 18.5476 28.8157 18.4622 29.0983C18.3768 29.3809 18.1907 29.6223 17.9392 29.7769C17.6876 29.9314 17.3881 29.9883 17.0974 29.9368C16.8067 29.8853 16.545 29.729 16.3619 29.4974Z" fill="#C78F8F"/>
<path d="M21.9422 11.8945C21.9422 11.8945 21.3827 11.5971 20.9999 12.8838C20.6935 13.914 18.2073 20.0499 18.1756 21.5417C17.9709 21.585 17.7866 21.6952 17.6515 21.8549C17.5164 22.0145 17.4383 22.2146 17.4294 22.4236L20.5035 22.8355C21.0407 22.3825 21.1816 21.7706 20.9738 21.589L21.6412 19.7662L24.4257 13.9667L22.3505 12.1022L21.9422 11.8945Z" fill="#FFE00B"/>
<path d="M38.3677 26.0446C38.4074 25.8738 38.4092 25.6964 38.3729 25.5248C38.3366 25.3533 38.2631 25.1918 38.1577 25.0517C38.0522 24.9116 37.9173 24.7964 37.7625 24.714C37.6076 24.6317 37.4366 24.5844 37.2615 24.5753L30.0804 16.3745L28.5571 18.192L35.9854 25.7965C35.9897 26.0917 36.102 26.3751 36.3013 26.5929C36.5005 26.8108 36.7727 26.948 37.0664 26.9786C37.36 27.0092 37.6547 26.931 37.8945 26.7589C38.1344 26.5867 38.3027 26.3326 38.3677 26.0446Z" fill="#C78F8F"/>
<path d="M25.7235 12.5856C25.7235 12.5856 26.0994 12.0755 27.0009 13.0702C27.7227 13.8665 32.6181 18.324 33.2919 19.6554C33.4951 19.606 33.709 19.6256 33.8999 19.7112C34.0907 19.7967 34.2477 19.9433 34.346 20.1279L31.7524 21.8286C31.0722 21.6524 30.6805 21.1616 30.7893 20.908L29.3992 19.5531L24.3804 15.5279L25.4452 12.9495L25.7235 12.5856Z" fill="#FFE00B"/>
<path d="M60.3029 29.7466C60.0956 29.675 59.9244 29.5254 59.8258 29.3295C59.7272 29.1336 59.7089 28.907 59.7748 28.6979C59.7889 28.6556 59.8065 28.6145 59.8273 28.5751L57.844 26.4089L58.5892 25.0159L60.9852 28.277C61.1419 28.3761 61.2614 28.5243 61.3251 28.6984C61.3887 28.8726 61.3929 29.0629 61.337 29.2396C61.3043 29.3399 61.2521 29.4328 61.1834 29.5129C61.1148 29.593 61.031 29.6588 60.9369 29.7066C60.8428 29.7543 60.7402 29.783 60.635 29.7911C60.5298 29.7992 60.4241 29.7865 60.3238 29.7538C60.3168 29.7515 60.3098 29.7491 60.3029 29.7466Z" fill="#FFB6B6"/>
<path d="M47.5877 13.2932C47.5221 13.5991 47.5151 13.9146 47.5671 14.2231C47.5808 14.3104 47.5997 14.3968 47.6238 14.4818C47.7125 14.7996 47.7969 15.0924 47.8784 15.3567C47.9262 15.5208 47.9754 15.6754 48.0225 15.8189C48.2939 16.6569 48.5058 17.1313 48.6561 17.2311C48.7289 17.2799 48.8021 17.3247 48.873 17.3683C49.2366 17.5908 49.5 17.752 49.3238 18.1625C49.2982 18.2212 49.2678 18.2776 49.2329 18.3313C49.1746 18.4214 49.1101 18.5075 49.0398 18.5888C48.9998 18.6348 48.9629 18.6834 48.9293 18.7342C48.8854 18.7992 48.8663 18.8539 48.8899 18.9034C48.9198 18.9644 49.0024 18.9947 49.1798 19.0032C49.208 19.0045 49.2402 19.0062 49.2748 19.0061C49.286 19.0068 49.2977 19.0064 49.3106 19.0065C49.3335 19.0068 49.3593 19.007 49.3856 19.006C49.6047 19.0018 49.8875 19.1172 50.1901 19.2933C51.0833 19.8134 52.1358 20.8604 52.1486 20.8734L58.7199 27.5923L58.8479 27.5065L59.1521 27.3022L59.2573 27.232L59.3773 27.1513L59.8999 26.8015L60.1641 26.6251L58.469 23.5133L58.2846 23.175L58.1264 22.8832L54.8906 16.9411L53.6053 14.8983L53.3184 14.4431L52.0961 12.5022C51.9235 12.2276 51.6985 11.9896 51.434 11.8019C51.1694 11.6142 50.8705 11.4805 50.5542 11.4083C50.238 11.3362 49.9106 11.327 49.5908 11.3813C49.271 11.4357 48.9651 11.5525 48.6904 11.7251C48.6719 11.7367 48.6535 11.7486 48.6353 11.7607C48.1006 12.1164 47.7249 12.6659 47.5877 13.2932Z" fill="#FFE00B"/>
<path d="M48.0237 60.2453L46.8198 60.235L46.2869 55.4834L48.0638 55.4985L48.0237 60.2453Z" fill="#FFB6B6"/>
<path d="M48.3431 59.6899L48.0287 59.669L46.7464 59.5812L46.3338 59.5537L46.326 60.4142L44.4031 61.7187C44.3081 61.7832 44.2362 61.8764 44.198 61.9846C44.1597 62.0929 44.1571 62.2105 44.1905 62.3204C44.2238 62.4302 44.2914 62.5265 44.3834 62.5952C44.4753 62.6639 44.5869 62.7015 44.7017 62.7023L47.0948 62.722L47.514 61.8733L47.6672 62.7272L48.571 62.735L48.3431 59.6899Z" fill="#2F2E41"/>
<path d="M60.6992 59.3657L59.5485 59.7195L57.606 55.3504L59.3044 54.8284L60.6992 59.3657Z" fill="#FFB6B6"/>
<path d="M60.8363 58.7405L60.5298 58.8152L59.2817 59.1177L58.8795 59.216L59.1322 60.0398L57.6927 61.863C57.6216 61.9531 57.5811 62.0635 57.5772 62.1782C57.5733 62.2929 57.6061 62.4059 57.6709 62.5006C57.7357 62.5953 57.829 62.6669 57.9374 62.7049C58.0457 62.7428 58.1633 62.7452 58.273 62.7117L60.5613 62.0083L60.7041 61.0719L61.1088 61.8394L61.9721 61.5735L60.8363 58.7405Z" fill="#2F2E41"/>
<path d="M45.6022 20.291L43.3047 26.9673L43.2288 27.5016C42.65 28.0512 43.3772 28.2322 43.1045 28.3772C42.8318 28.5221 42.6484 28.9284 43.0159 29.001C43.3834 29.0736 44.5681 55.1139 46.1308 56.1249C47.6935 57.136 48.6446 57.8674 48.3576 56.3869C48.2419 55.7904 48.4055 52.5923 48.642 48.9858C48.6689 48.577 49.0924 48.1444 48.725 47.747C48.3576 47.3496 48.7703 47.0881 48.7933 46.7583C49.1229 42.0489 49.5035 37.3994 49.5035 37.3994C49.5035 37.3994 51.9391 45.7631 52.5715 45.1157C53.204 44.4682 52.9537 46.0623 53.1469 46.5386C53.3084 46.9367 52.6193 47.7186 53.6321 47.7306C54.6448 47.7426 57.0232 55.8722 57.2645 55.863C57.7425 55.8448 59.0863 55.8962 59.8842 55.732C60.2783 55.6509 58.5291 49.4959 57.0685 44.181C56.9521 43.7571 56.3181 43.7473 56.7258 42.9289C57.1335 42.1106 55.105 36.8158 55.279 36.5709C55.7411 35.9209 55.917 35.6384 55.4614 35.5958C55.0057 35.5533 54.8711 35.8032 54.8465 35.1727C54.8219 34.5422 54.7432 32.9874 54.7432 32.9874C54.7432 32.9874 54.4131 26.8383 52.1018 23.441L51.9047 21.4224L45.6022 20.291Z" fill="#2F2E41"/>
<path d="M51.3419 7.54419L48.2951 7.97798L48.1113 10.184L46.6078 12.5357C46.6078 12.5357 43.2659 14.8873 45.5966 18.6022C44.7096 21.8023 43.8278 24.8713 42.9871 26.9174C42.3322 30.9776 48.1994 31.3668 54.9067 29.9298C54.9067 29.9298 54.8142 28.1938 54.2055 27.3591C53.5968 26.5245 53.9282 26.3423 53.9282 26.3423L53.5029 24.783C53.7436 22.5291 52.9309 22.3269 52.549 21.2855L53.7085 10.4808L51.3419 7.54419Z" fill="#FFE00B"/>
<path d="M36.7156 26.4298C36.7479 26.2129 36.8636 26.0171 37.038 25.8842C37.2124 25.7513 37.4318 25.6916 37.6495 25.718C37.6937 25.724 37.7373 25.7337 37.7799 25.747L39.5447 23.3994L41.0511 23.8758L38.2858 26.8303C38.2172 27.0025 38.0935 27.1472 37.934 27.2418C37.7745 27.3364 37.5882 27.3755 37.4041 27.3531C37.1929 27.3252 37.0013 27.2146 36.8716 27.0456C36.7419 26.8765 36.6846 26.6629 36.7124 26.4516C36.7134 26.4443 36.7145 26.4371 36.7156 26.4298Z" fill="#FFB6B6"/>
<path d="M52.3917 11.8134C52.3485 11.7596 52.3014 11.7073 52.2516 11.6562C51.9056 11.2996 51.4601 11.0559 50.9732 10.9568C50.4864 10.8577 49.981 10.9079 49.5232 11.1009C49.4787 11.1192 49.4341 11.1401 49.3909 11.1611C47.8256 11.9299 46.9808 12.442 46.8786 12.6817C46.8432 12.7629 46.8131 12.8428 46.783 12.9201C46.7541 12.996 46.7266 13.068 46.6979 13.1335C46.5774 13.4138 46.4385 13.588 46.0848 13.5094C45.9676 13.4808 45.8544 13.4372 45.7482 13.3798C45.6997 13.3562 45.6552 13.3313 45.6133 13.3077C45.4614 13.224 45.3513 13.1637 45.2767 13.2187C45.2046 13.2724 45.202 13.4086 45.2675 13.7243C45.2892 13.856 45.2856 13.9907 45.257 14.1211C45.1704 14.5016 45.0348 14.8692 44.8536 15.2147C44.5821 15.7564 44.2767 16.2805 43.9393 16.7838L40.8232 21.2265L40.6123 21.5264L40.3817 21.8552L38.5427 24.4773L38.6515 24.5886L39.1073 25.0536L39.2081 25.1571L39.2999 25.2513L39.5369 25.4936L39.7596 25.7202L44.7279 21.6731L45.2819 21.2212L46.2748 20.4118L48.3089 18.755L52.1586 15.1925C52.4016 14.9694 52.5971 14.6995 52.7332 14.3991C52.8694 14.0986 52.9435 13.7737 52.951 13.444C52.951 13.4217 52.9524 13.4007 52.9524 13.3785C52.9538 12.8073 52.7555 12.2537 52.3917 11.8134Z" fill="#FFE00B"/>
<path d="M49.5129 7.46382C51.3932 7.46382 52.9175 5.93968 52.9175 4.05955C52.9175 2.17942 51.3932 0.655273 49.5129 0.655273C47.6327 0.655273 46.1084 2.17942 46.1084 4.05955C46.1084 5.93968 47.6327 7.46382 49.5129 7.46382Z" fill="#FFB6B6"/>
<path d="M54.0246 8.78015C54.4815 9.43404 54.7872 10.1814 54.9194 10.9681C54.5512 11.2036 54.1225 11.3274 53.6854 11.3243C53.6706 11.267 53.6557 11.2098 53.6388 11.1525C53.5121 10.7093 53.3237 10.2861 53.079 9.89532C53.1125 10.3167 53.0554 10.7403 52.9115 11.1377C52.6805 11.0327 52.433 10.9689 52.18 10.949C51.974 10.949 51.7707 10.9969 51.5863 11.0889C51.3722 10.3787 51.175 9.72572 51.0351 9.25717C51.0308 10.4317 49.3092 11.4557 47.4307 11.3073C47.3628 11.2649 48.0434 9.3335 47.9777 9.28898C47.8271 9.18934 47.6808 9.08121 47.5345 8.97521C48.1494 8.02539 48.8173 7.00775 48.7028 6.85511C48.7113 7.04381 48.037 7.9512 47.3034 8.80771C46.8963 8.50879 49.2095 3.64529 48.0667 3.25096C48.0476 3.42269 47.7953 3.42269 47.4879 3.38665C47.4068 3.10331 47.2862 2.83281 47.1296 2.58313C47.1499 2.83464 47.1197 3.08768 47.0405 3.32728C46.7369 3.32737 46.4342 3.35934 46.1373 3.42269C46.0686 3.3146 45.9928 3.2112 45.9104 3.11315C45.9186 3.23264 45.915 3.35264 45.8998 3.47145C45.5966 3.53717 45.3464 3.61349 45.3104 3.67498C45.0729 3.58805 45.4779 3.19584 45.3295 2.99231C44.9521 2.48349 45.5118 1.74146 45.8659 1.21567C46.5932 0.138669 48.1897 -0.234469 49.3198 0.412155C49.3707 0.236184 49.6315 0.119584 49.9665 0.0411404C50.1084 0.00984817 50.2537 -0.00368456 50.399 0.000856251C51.8408 0.0262955 53.8423 1.21567 53.9208 2.65522C53.9271 2.79938 53.9377 2.95626 53.9483 3.12375C54.0501 4.73503 53.925 6.22121 55.0254 7.39998C55.424 7.82611 55.4283 9.84444 55.2756 10.8833C54.8791 10.4656 54.5971 8.84164 54.0246 8.78015Z" fill="#2F2E41"/>
<path d="M21.1691 5.47508C20.8701 6.21982 20.0264 7.68438 19.9121 8.48332L19.9635 8.43275C20.0617 8.60034 20.1732 8.75974 20.2969 8.90939C20.5188 8.6764 20.7868 8.49217 21.0837 8.36843C20.9216 8.70116 20.8276 9.06298 20.8075 9.43257C21.1259 10.4305 22.5978 9.98611 23.4602 9.87714C24.3214 10.8622 25.4672 11.1192 26.9676 10.5529C27.3872 10.5961 27.857 10.6223 28.151 10.3744C28.4451 10.1265 28.27 9.66729 28.4282 9.32001C29.5551 6.84629 28.5151 5.95379 27.6315 4.83212C27.4371 4.58528 27.4379 4.21692 27.2013 3.98141C26.873 3.65496 26.3697 3.55455 25.9058 3.47411C26.0263 3.48046 26.1464 3.45568 26.2546 3.40216C26.3628 3.34863 26.4553 3.26816 26.5234 3.1685C26.5831 3.06809 26.6139 2.95314 26.6124 2.83633C26.6109 2.71952 26.5772 2.60539 26.515 2.50653C26.3491 2.23145 26.0042 2.07149 25.6716 2.03153C25.3439 2.00927 25.0147 2.03757 24.6955 2.11543C24.4888 2.14261 24.2886 2.20659 24.1045 2.30434C24.0176 2.35069 23.9469 2.42247 23.9019 2.51007C23.8569 2.59767 23.8397 2.69691 23.8526 2.79454C23.8804 2.8847 23.9281 2.96743 23.9922 3.03658C24.0564 3.10572 24.1353 3.15949 24.2232 3.19387C24.3571 3.25049 24.498 3.28905 24.642 3.30853C23.9802 3.22265 23.3079 3.34032 22.7146 3.64588C21.971 4.04248 21.4692 4.73074 21.1691 5.47508Z" fill="#2F2E41"/>
<path d="M25.1954 9.6504C26.6634 9.6504 27.8534 8.46044 27.8534 6.99256C27.8534 5.52467 26.6634 4.33472 25.1954 4.33472C23.7274 4.33472 22.5374 5.52467 22.5374 6.99256C22.5374 8.46044 23.7274 9.6504 25.1954 9.6504Z" fill="#C78F8F"/>
<path d="M22.6376 5.56754C22.7917 6.03328 23.2322 6.18336 23.6392 6.27696C23.7676 6.30688 23.8967 6.33475 24.0271 6.35955C24.0751 6.29944 24.1263 6.24052 24.1797 6.18484C24.4016 5.95185 24.6695 5.76762 24.9665 5.64388C24.8381 5.9067 24.7527 6.18846 24.7137 6.47836C24.9598 6.51406 25.2073 6.54323 25.4561 6.56588C25.6666 6.61069 25.8863 6.57291 26.0697 6.46036C26.2532 6.34781 26.3864 6.16909 26.4418 5.96113C26.6683 6.33151 26.9361 6.68032 27.3024 6.82745C27.5118 6.9027 27.7399 6.90888 27.9531 6.8451C28.1663 6.78132 28.3535 6.65092 28.4872 6.47302C28.6984 6.18281 28.8448 5.85067 28.9166 5.49902C29.0205 5.08658 29.0783 4.61146 28.8742 4.34979C28.7107 4.138 28.4287 4.1342 28.1684 4.15299C27.5941 4.19704 27.0258 4.30006 26.4725 4.46042L26.4257 4.56572C26.5208 3.99457 26.3146 3.44504 25.933 3.24961C25.6756 3.11894 25.3659 3.14085 25.065 3.16736C24.6786 3.1846 24.2967 3.25844 23.9317 3.38652C23.5129 3.54759 23.1541 3.83411 22.9045 4.20687C22.6374 4.61233 22.5047 5.16531 22.6376 5.56754Z" fill="#2F2E41"/>
<path d="M26.427 3.08343C26.4008 3.07569 26.4687 3.08564 26.4451 3.08627C26.4568 3.08559 26.4685 3.08396 26.4799 3.0814C26.4819 3.08101 26.5083 3.07257 26.4907 3.07877C26.5302 3.06697 26.5654 3.04399 26.5921 3.01261C26.6546 2.9354 26.7036 2.84823 26.737 2.75475C26.7793 2.63122 26.8472 2.51802 26.9363 2.42257C26.9615 2.39718 26.9925 2.37811 27.0265 2.3669C27.0605 2.35569 27.0967 2.35267 27.1322 2.35808C27.1676 2.36349 27.2013 2.37717 27.2304 2.39802C27.2595 2.41887 27.2834 2.4463 27.2999 2.47808C27.3335 2.60068 27.322 2.73128 27.2675 2.84612C27.2294 2.96296 27.1727 3.0729 27.0996 3.17169C26.977 3.33324 26.8102 3.45566 26.6193 3.52403C26.3983 3.60427 26.1574 3.61115 25.9322 3.54366C25.9025 3.53132 25.877 3.51059 25.8588 3.48401C25.8406 3.45742 25.8306 3.42613 25.8299 3.39393C25.8292 3.36173 25.8378 3.33003 25.8548 3.30268C25.8718 3.27532 25.8964 3.25351 25.9256 3.23988L26.3012 3.08617C26.3209 3.07739 26.3422 3.07259 26.3638 3.07205C26.3854 3.0715 26.4069 3.07522 26.4271 3.083C26.4473 3.09077 26.4657 3.10244 26.4814 3.11735C26.497 3.13225 26.5096 3.1501 26.5183 3.16986C26.5271 3.18963 26.5318 3.21092 26.5324 3.23253C26.5329 3.25414 26.5291 3.27564 26.5213 3.2958C26.5135 3.31595 26.5018 3.33438 26.4869 3.35001C26.472 3.36564 26.4541 3.37818 26.4343 3.3869L26.4336 3.38721L26.0581 3.54091L26.0515 3.23713C26.0983 3.25066 26.1465 3.2589 26.1952 3.26171C26.2472 3.26691 26.2996 3.2647 26.3509 3.25514C26.4001 3.2487 26.4484 3.23692 26.495 3.22002C26.5248 3.20912 26.5541 3.19671 26.5827 3.18284C26.5931 3.1778 26.6034 3.17256 26.6136 3.16713C26.6128 3.16753 26.6565 3.14209 26.6374 3.15404C26.6859 3.123 26.7315 3.08751 26.7735 3.04801C26.7883 3.03401 26.802 3.01882 26.8143 3.00259C26.8357 2.97631 26.8555 2.9488 26.8737 2.9202C26.9107 2.85965 26.94 2.79473 26.961 2.72693C26.9705 2.69843 26.9786 2.66946 26.9851 2.64013C26.9869 2.62403 26.9898 2.60807 26.9938 2.59236C27.0077 2.55495 26.9912 2.61421 27.0072 2.63043L27.0764 2.68143C27.0894 2.68531 27.1031 2.6862 27.1165 2.68406C27.1299 2.68192 27.1426 2.67678 27.1538 2.66905C27.162 2.65751 27.1602 2.65942 27.1484 2.67479C27.1347 2.69288 27.1221 2.71181 27.1108 2.73149C27.086 2.77781 27.0636 2.82536 27.0436 2.87396C27.0023 2.97731 26.95 3.07595 26.8878 3.16821C26.8268 3.26153 26.7378 3.3332 26.6337 3.37302C26.5296 3.41284 26.4155 3.41877 26.3078 3.38996C26.2674 3.37387 26.2349 3.34253 26.2174 3.30271C26.1998 3.26289 26.1987 3.21777 26.2141 3.1771C26.2306 3.13702 26.262 3.10488 26.3017 3.08742C26.3414 3.06996 26.3863 3.06853 26.427 3.08343Z" fill="#2F2E41"/>
</g>
<defs>
<clipPath id="clip0_8_142">
<rect width="94.6667" height="63" fill="white"/>
</clipPath>
</defs>
</svg>
