<svg width="343" height="285" viewBox="0 0 343 285" fill="none" xmlns="http://www.w3.org/2000/svg">
<path d="M54.5664 275.02V276.104C54.5664 276.104 54.5664 276.1 54.5664 276.094V275.02ZM54.5664 276.094V272.969C54.5664 272.754 54.4915 272.572 54.3418 272.422C54.1855 272.266 54 272.188 53.7852 272.188C53.5638 272.188 53.3783 272.266 53.2285 272.422C53.0788 272.572 53.0039 272.754 53.0039 272.969V276.094C53.0039 276.315 53.0788 276.501 53.2285 276.65C53.3783 276.8 53.5638 276.875 53.7852 276.875C54 276.875 54.1855 276.8 54.3418 276.65C54.485 276.501 54.5599 276.318 54.5664 276.104C54.5664 276.104 54.5664 276.1 54.5664 276.094ZM50.8945 272.871C50.8945 272.474 50.9629 272.119 51.0996 271.807C51.2428 271.494 51.4544 271.201 51.7344 270.928C52.3008 270.361 52.9844 270.078 53.7852 270.078C53.9414 270.078 54.0195 270 54.0195 269.844C54.0195 269.688 53.9414 269.609 53.7852 269.609C52.8542 269.609 52.0632 269.938 51.4121 270.596C51.0801 270.921 50.8327 271.266 50.6699 271.631C50.5072 271.995 50.4258 272.409 50.4258 272.871V273.379C50.4258 273.535 50.5039 273.613 50.6602 273.613C50.8164 273.613 50.8945 273.535 50.8945 273.379V272.871ZM58.4727 276.875H59.2246V280H58.4727C57.5807 280 56.7995 279.746 56.1289 279.238C55.4583 279.746 54.6771 280 53.7852 280C52.6979 280 51.7767 279.622 51.0215 278.867C50.2598 278.105 49.8789 277.181 49.8789 276.094V272.969C49.8789 271.888 50.2598 270.967 51.0215 270.205C51.7767 269.443 52.6979 269.062 53.7852 269.062C54.8659 269.062 55.7871 269.443 56.5488 270.205C57.3105 270.967 57.6914 271.888 57.6914 272.969V276.104C57.6914 276.318 57.7663 276.501 57.916 276.65C58.0658 276.8 58.2513 276.875 58.4727 276.875ZM52.3691 266.494C52.4993 266.494 52.5645 266.426 52.5645 266.289C52.5645 266.159 52.4961 266.094 52.3594 266.094C52.1185 266.094 51.9167 266.178 51.7539 266.348C51.5846 266.517 51.5 266.719 51.5 266.953C51.5 267.09 51.5651 267.158 51.6953 267.158C51.832 267.158 51.9004 267.093 51.9004 266.963C51.9004 266.833 51.946 266.722 52.0371 266.631C52.1283 266.54 52.2389 266.494 52.3691 266.494ZM53.2969 266.025C53.5573 266.286 53.6875 266.595 53.6875 266.953C53.6875 267.318 53.5573 267.63 53.2969 267.891C53.0365 268.151 52.724 268.281 52.3594 268.281C51.9948 268.281 51.6823 268.151 51.4219 267.891C51.1615 267.63 51.0312 267.318 51.0312 266.953C51.0312 266.595 51.1615 266.286 51.4219 266.025C51.6823 265.758 51.9948 265.625 52.3594 265.625C52.724 265.625 53.0365 265.758 53.2969 266.025ZM55.2109 266.494C55.3411 266.494 55.4062 266.426 55.4062 266.289C55.4062 266.159 55.3379 266.094 55.2012 266.094C54.9668 266.094 54.765 266.178 54.5957 266.348C54.4264 266.517 54.3418 266.719 54.3418 266.953C54.3418 267.09 54.4069 267.158 54.5371 267.158C54.6738 267.158 54.7422 267.093 54.7422 266.963C54.7422 266.833 54.7878 266.722 54.8789 266.631C54.9701 266.54 55.0807 266.494 55.2109 266.494ZM56.1387 266.025C56.3991 266.286 56.5293 266.595 56.5293 266.953C56.5293 267.318 56.3991 267.63 56.1387 267.891C55.8783 268.151 55.5658 268.281 55.2012 268.281C54.8431 268.281 54.5339 268.151 54.2734 267.891C54.0065 267.63 53.873 267.318 53.873 266.953C53.873 266.595 54.0065 266.286 54.2734 266.025C54.5339 265.758 54.8431 265.625 55.2012 265.625C55.5658 265.625 55.8783 265.758 56.1387 266.025ZM60.9824 281.572C61.1126 281.572 61.1777 281.504 61.1777 281.367C61.1777 281.237 61.1126 281.172 60.9824 281.172C60.7415 281.172 60.5365 281.257 60.3672 281.426C60.1979 281.595 60.1133 281.797 60.1133 282.031C60.1133 282.168 60.1816 282.236 60.3184 282.236C60.4486 282.236 60.5137 282.171 60.5137 282.041C60.5137 281.911 60.5592 281.8 60.6504 281.709C60.748 281.618 60.8587 281.572 60.9824 281.572ZM60.9824 280.703C61.3405 280.703 61.653 280.837 61.9199 281.104C62.1803 281.364 62.3105 281.673 62.3105 282.031C62.3105 282.396 62.1803 282.708 61.9199 282.969C61.653 283.229 61.3405 283.359 60.9824 283.359C60.6178 283.359 60.3053 283.229 60.0449 282.969C59.7845 282.708 59.6543 282.396 59.6543 282.031C59.6543 281.673 59.7845 281.364 60.0449 281.104C60.3053 280.837 60.6178 280.703 60.9824 280.703ZM63.834 281.572C63.9577 281.572 64.0195 281.504 64.0195 281.367C64.0195 281.237 63.9544 281.172 63.8242 281.172C63.5833 281.172 63.3783 281.257 63.209 281.426C63.0462 281.595 62.9648 281.797 62.9648 282.031C62.9648 282.168 63.0299 282.236 63.1602 282.236C63.2904 282.236 63.3555 282.171 63.3555 282.041C63.3555 281.911 63.4043 281.8 63.502 281.709C63.5931 281.618 63.7038 281.572 63.834 281.572ZM64.7617 281.104C65.0221 281.364 65.1523 281.673 65.1523 282.031C65.1523 282.396 65.0221 282.708 64.7617 282.969C64.5013 283.229 64.1888 283.359 63.8242 283.359C63.4596 283.359 63.1471 283.229 62.8867 282.969C62.6263 282.708 62.4961 282.396 62.4961 282.031C62.4961 281.673 62.6263 281.364 62.8867 281.104C63.1471 280.837 63.4596 280.703 63.8242 280.703C64.1888 280.703 64.5013 280.837 64.7617 281.104ZM62.4082 270.078C62.5579 270.078 62.6328 270 62.6328 269.844C62.6328 269.779 62.61 269.723 62.5645 269.678C62.5189 269.632 62.4635 269.609 62.3984 269.609C62.1185 269.609 61.8809 269.71 61.6855 269.912C61.4837 270.107 61.3828 270.345 61.3828 270.625V270.879C61.3828 270.944 61.4056 270.999 61.4512 271.045C61.4967 271.09 61.5521 271.113 61.6172 271.113H61.627C61.6855 271.113 61.7376 271.09 61.7832 271.045C61.8288 270.999 61.8516 270.944 61.8516 270.879V270.625C61.8516 270.482 61.9069 270.355 62.0176 270.244C62.1283 270.133 62.2585 270.078 62.4082 270.078ZM61.8516 276.094V276.055C61.8516 275.99 61.8288 275.934 61.7832 275.889C61.7376 275.843 61.6823 275.82 61.6172 275.82C61.5521 275.82 61.4967 275.843 61.4512 275.889C61.4056 275.934 61.3828 275.99 61.3828 276.055V276.094C61.3828 276.458 61.2526 276.771 60.9922 277.031C60.9792 277.044 60.9661 277.057 60.9531 277.07C60.6992 277.305 60.3997 277.422 60.0547 277.422H60.0059C59.9473 277.422 59.8919 277.445 59.8398 277.49C59.7943 277.536 59.7715 277.591 59.7715 277.656C59.7715 277.721 59.7943 277.777 59.8398 277.822C59.8919 277.868 59.9473 277.891 60.0059 277.891H60.0547C60.4583 277.891 60.8099 277.78 61.1094 277.559C61.1875 277.507 61.2624 277.445 61.334 277.373C61.679 277.021 61.8516 276.595 61.8516 276.094ZM64.7422 276.875H65.9824V280H64.7422C63.8568 280 63.0755 279.743 62.3984 279.229C61.7279 279.743 60.9466 280 60.0547 280H58.834C58.4043 280 58.0397 279.85 57.7402 279.551C57.4342 279.245 57.2812 278.88 57.2812 278.457V278.428C57.2812 277.998 57.4342 277.633 57.7402 277.334C58.0397 277.028 58.4043 276.875 58.834 276.875H60.0547C60.276 276.875 60.4616 276.8 60.6113 276.65C60.7611 276.501 60.8359 276.315 60.8359 276.094V270.625C60.8359 270.202 60.9922 269.834 61.3047 269.521C61.6107 269.215 61.9753 269.062 62.3984 269.062C62.8281 269.062 63.196 269.215 63.502 269.521C63.8079 269.834 63.9609 270.202 63.9609 270.625V276.094C63.9609 276.315 64.0391 276.501 64.1953 276.65C64.3451 276.8 64.5273 276.875 64.7422 276.875ZM72.0762 276.094V272.969C72.0762 272.754 72.0013 272.572 71.8516 272.422C71.7018 272.266 71.5163 272.188 71.2949 272.188C71.0801 272.188 70.8978 272.266 70.748 272.422C70.5918 272.572 70.5137 272.754 70.5137 272.969V276.094C70.5137 276.315 70.5918 276.501 70.748 276.65C70.8978 276.8 71.0801 276.875 71.2949 276.875C71.5163 276.875 71.7018 276.8 71.8516 276.65C72.0013 276.501 72.0762 276.315 72.0762 276.094ZM68.4043 272.871C68.4043 272.474 68.4759 272.119 68.6191 271.807C68.7624 271.494 68.974 271.201 69.2539 270.928C69.8138 270.361 70.4941 270.078 71.2949 270.078C71.4512 270.078 71.5293 270 71.5293 269.844C71.5293 269.688 71.4512 269.609 71.2949 269.609C70.3704 269.609 69.5794 269.938 68.9219 270.596C68.5964 270.921 68.349 271.266 68.1797 271.631C68.0169 271.995 67.9355 272.409 67.9355 272.871V273.379C67.9355 273.535 68.0137 273.613 68.1699 273.613C68.3262 273.613 68.4043 273.535 68.4043 273.379V272.871ZM75.9824 276.875H76.7344V280H75.9824C75.097 280 74.3158 279.746 73.6387 279.238C72.9681 279.746 72.1868 280 71.2949 280C70.4095 280 69.6283 279.746 68.9512 279.238C68.2806 279.746 67.4993 280 66.6074 280H66.2754C65.8457 280 65.4811 279.85 65.1816 279.551C64.8757 279.251 64.7227 278.887 64.7227 278.457V278.428C64.7227 277.998 64.8757 277.633 65.1816 277.334C65.4811 277.028 65.8457 276.875 66.2754 276.875H66.6074C66.8288 276.875 67.0143 276.8 67.1641 276.65C67.3138 276.501 67.3887 276.315 67.3887 276.094V272.969C67.3887 271.888 67.7695 270.967 68.5312 270.205C69.293 269.443 70.2142 269.062 71.2949 269.062C72.3822 269.062 73.3066 269.443 74.0684 270.205C74.8236 270.967 75.2012 271.888 75.2012 272.969V276.094C75.2012 276.315 75.2793 276.501 75.4355 276.65C75.5853 276.8 75.7676 276.875 75.9824 276.875ZM78.4824 281.572C78.6126 281.572 78.6777 281.504 78.6777 281.367C78.6777 281.237 78.6126 281.172 78.4824 281.172C78.2415 281.172 78.0365 281.257 77.8672 281.426C77.6979 281.595 77.6133 281.797 77.6133 282.031C77.6133 282.168 77.6816 282.236 77.8184 282.236C77.9486 282.236 78.0137 282.171 78.0137 282.041C78.0137 281.911 78.0592 281.8 78.1504 281.709C78.248 281.618 78.3587 281.572 78.4824 281.572ZM78.4824 280.703C78.8405 280.703 79.153 280.837 79.4199 281.104C79.6803 281.364 79.8105 281.673 79.8105 282.031C79.8105 282.396 79.6803 282.708 79.4199 282.969C79.153 283.229 78.8405 283.359 78.4824 283.359C78.1178 283.359 77.8053 283.229 77.5449 282.969C77.2845 282.708 77.1543 282.396 77.1543 282.031C77.1543 281.673 77.2845 281.364 77.5449 281.104C77.8053 280.837 78.1178 280.703 78.4824 280.703ZM81.334 281.572C81.4577 281.572 81.5195 281.504 81.5195 281.367C81.5195 281.237 81.4544 281.172 81.3242 281.172C81.0833 281.172 80.8783 281.257 80.709 281.426C80.5462 281.595 80.4648 281.797 80.4648 282.031C80.4648 282.168 80.5299 282.236 80.6602 282.236C80.7904 282.236 80.8555 282.171 80.8555 282.041C80.8555 281.911 80.9043 281.8 81.002 281.709C81.0931 281.618 81.2038 281.572 81.334 281.572ZM82.2617 281.104C82.5221 281.364 82.6523 281.673 82.6523 282.031C82.6523 282.396 82.5221 282.708 82.2617 282.969C82.0013 283.229 81.6888 283.359 81.3242 283.359C80.9596 283.359 80.6471 283.229 80.3867 282.969C80.1263 282.708 79.9961 282.396 79.9961 282.031C79.9961 281.673 80.1263 281.364 80.3867 281.104C80.6471 280.837 80.9596 280.703 81.3242 280.703C81.6888 280.703 82.0013 280.837 82.2617 281.104ZM79.9082 270.078C80.0579 270.078 80.1328 270 80.1328 269.844C80.1328 269.779 80.11 269.723 80.0645 269.678C80.0189 269.632 79.9635 269.609 79.8984 269.609C79.6185 269.609 79.3809 269.71 79.1855 269.912C78.9837 270.107 78.8828 270.345 78.8828 270.625V270.879C78.8828 270.944 78.9056 270.999 78.9512 271.045C78.9967 271.09 79.0521 271.113 79.1172 271.113H79.127C79.1855 271.113 79.2376 271.09 79.2832 271.045C79.3288 270.999 79.3516 270.944 79.3516 270.879V270.625C79.3516 270.482 79.4069 270.355 79.5176 270.244C79.6283 270.133 79.7585 270.078 79.9082 270.078ZM79.3516 276.094V276.055C79.3516 275.99 79.3288 275.934 79.2832 275.889C79.2376 275.843 79.1823 275.82 79.1172 275.82C79.0521 275.82 78.9967 275.843 78.9512 275.889C78.9056 275.934 78.8828 275.99 78.8828 276.055V276.094C78.8828 276.458 78.7526 276.771 78.4922 277.031C78.4792 277.044 78.4661 277.057 78.4531 277.07C78.1992 277.305 77.8997 277.422 77.5547 277.422H77.5059C77.4473 277.422 77.3919 277.445 77.3398 277.49C77.2943 277.536 77.2715 277.591 77.2715 277.656C77.2715 277.721 77.2943 277.777 77.3398 277.822C77.3919 277.868 77.4473 277.891 77.5059 277.891H77.5547C77.9583 277.891 78.3099 277.78 78.6094 277.559C78.6875 277.507 78.7624 277.445 78.834 277.373C79.179 277.021 79.3516 276.595 79.3516 276.094ZM82.2422 276.875H83.4824V280H82.2422C81.3568 280 80.5755 279.743 79.8984 279.229C79.2279 279.743 78.4466 280 77.5547 280H76.334C75.9043 280 75.5397 279.85 75.2402 279.551C74.9342 279.245 74.7812 278.88 74.7812 278.457V278.428C74.7812 277.998 74.9342 277.633 75.2402 277.334C75.5397 277.028 75.9043 276.875 76.334 276.875H77.5547C77.776 276.875 77.9616 276.8 78.1113 276.65C78.2611 276.501 78.3359 276.315 78.3359 276.094V270.625C78.3359 270.202 78.4922 269.834 78.8047 269.521C79.1107 269.215 79.4753 269.062 79.8984 269.062C80.3281 269.062 80.696 269.215 81.002 269.521C81.3079 269.834 81.4609 270.202 81.4609 270.625V276.094C81.4609 276.315 81.5391 276.501 81.6953 276.65C81.8451 276.8 82.0273 276.875 82.2422 276.875ZM86.7441 266.172C86.8939 266.172 87.0241 266.227 87.1348 266.338C87.2389 266.449 87.291 266.576 87.291 266.719V267.041C87.291 267.106 87.3138 267.161 87.3594 267.207C87.4049 267.253 87.4603 267.275 87.5254 267.275C87.5905 267.275 87.6458 267.253 87.6914 267.207C87.737 267.161 87.7598 267.106 87.7598 267.041V266.719C87.7598 266.439 87.6621 266.201 87.4668 266.006C87.2715 265.804 87.0306 265.703 86.7441 265.703C86.5879 265.703 86.5098 265.781 86.5098 265.938C86.5098 266.094 86.5879 266.172 86.7441 266.172ZM89.0879 276.875H89.7422V280H89.0879C88.2025 280 87.4212 279.746 86.7441 279.238C86.0736 279.746 85.2923 280 84.4004 280H83.7754C83.3457 280 82.9811 279.85 82.6816 279.551C82.3757 279.251 82.2227 278.887 82.2227 278.457V278.428C82.2227 277.998 82.3757 277.633 82.6816 277.334C82.9811 277.028 83.3457 276.875 83.7754 276.875H84.4004C84.6217 276.875 84.8073 276.8 84.957 276.65C85.1068 276.501 85.1816 276.315 85.1816 276.094V266.719C85.1816 266.296 85.3379 265.928 85.6504 265.615C85.9564 265.309 86.321 265.156 86.7441 265.156C87.1738 265.156 87.5417 265.309 87.8477 265.615C88.1536 265.928 88.3066 266.296 88.3066 266.719V276.094C88.3066 276.315 88.3848 276.501 88.541 276.65C88.6908 276.8 88.873 276.875 89.0879 276.875ZM94.8594 269.619C94.7031 269.619 94.625 269.697 94.625 269.854C94.625 270.01 94.7031 270.088 94.8594 270.088C95.6602 270.088 96.3405 270.371 96.9004 270.938C97.4668 271.497 97.75 272.178 97.75 272.979V273.77C97.75 273.926 97.8281 274.004 97.9844 274.004C98.1406 274.004 98.2188 273.926 98.2188 273.77V272.979C98.2188 272.054 97.89 271.263 97.2324 270.605C96.5749 269.948 95.7839 269.619 94.8594 269.619ZM100.982 277.344C101.288 277.65 101.441 278.014 101.441 278.438C101.441 278.867 101.288 279.235 100.982 279.541C100.676 279.847 100.309 280 99.8789 280H89.5273C89.0977 280 88.7331 279.85 88.4336 279.551C88.1341 279.251 87.9844 278.887 87.9844 278.457V278.428C87.9844 277.998 88.1341 277.633 88.4336 277.334C88.7331 277.028 89.0977 276.875 89.5273 276.875H90.9531V272.979C90.9531 271.898 91.3307 270.977 92.0859 270.215C92.8477 269.453 93.7721 269.072 94.8594 269.072C95.9401 269.072 96.8613 269.453 97.623 270.215C98.3848 270.977 98.7656 271.898 98.7656 272.979V273.77C98.7656 274.193 98.6094 274.557 98.2969 274.863C97.9909 275.176 97.6263 275.332 97.2031 275.332C96.7734 275.332 96.4056 275.176 96.0996 274.863C95.7936 274.557 95.6406 274.193 95.6406 273.77V272.979C95.6406 272.764 95.5625 272.578 95.4062 272.422C95.2565 272.272 95.0742 272.197 94.8594 272.197C94.638 272.197 94.4525 272.272 94.3027 272.422C94.153 272.578 94.0781 272.764 94.0781 272.979V276.104C94.0781 276.325 94.153 276.51 94.3027 276.66C94.4199 276.784 94.5599 276.855 94.7227 276.875H99.8789C100.309 276.875 100.676 277.031 100.982 277.344ZM102.076 266.494C102.206 266.494 102.271 266.426 102.271 266.289C102.271 266.159 102.203 266.094 102.066 266.094C101.832 266.094 101.63 266.178 101.461 266.348C101.292 266.517 101.207 266.719 101.207 266.953C101.207 267.09 101.272 267.158 101.402 267.158C101.539 267.158 101.607 267.093 101.607 266.963C101.607 266.833 101.653 266.722 101.744 266.631C101.835 266.54 101.946 266.494 102.076 266.494ZM103.004 266.025C103.264 266.286 103.395 266.595 103.395 266.953C103.395 267.318 103.264 267.63 103.004 267.891C102.743 268.151 102.431 268.281 102.066 268.281C101.708 268.281 101.399 268.151 101.139 267.891C100.872 267.63 100.738 267.318 100.738 266.953C100.738 266.595 100.872 266.286 101.139 266.025C101.399 265.758 101.708 265.625 102.066 265.625C102.431 265.625 102.743 265.758 103.004 266.025ZM104.918 266.494C105.048 266.494 105.113 266.426 105.113 266.289C105.113 266.159 105.048 266.094 104.918 266.094C104.677 266.094 104.472 266.178 104.303 266.348C104.133 266.517 104.049 266.719 104.049 266.953C104.049 267.09 104.117 267.158 104.254 267.158C104.384 267.158 104.449 267.093 104.449 266.963C104.449 266.833 104.495 266.722 104.586 266.631C104.684 266.54 104.794 266.494 104.918 266.494ZM105.846 266.025C106.113 266.286 106.246 266.595 106.246 266.953C106.246 267.318 106.113 267.63 105.846 267.891C105.585 268.151 105.276 268.281 104.918 268.281C104.553 268.281 104.241 268.151 103.98 267.891C103.72 267.63 103.59 267.318 103.59 266.953C103.59 266.595 103.72 266.286 103.98 266.025C104.241 265.758 104.553 265.625 104.918 265.625C105.276 265.625 105.585 265.758 105.846 266.025ZM103.492 270.078C103.642 270.078 103.717 270 103.717 269.844C103.717 269.785 103.694 269.733 103.648 269.688C103.603 269.635 103.548 269.609 103.482 269.609C103.202 269.616 102.965 269.717 102.77 269.912C102.568 270.107 102.467 270.345 102.467 270.625V270.879C102.467 270.944 102.49 270.999 102.535 271.045C102.581 271.09 102.636 271.113 102.701 271.113H102.711C102.77 271.113 102.822 271.09 102.867 271.045C102.913 270.999 102.936 270.944 102.936 270.879V270.625C102.936 270.482 102.991 270.355 103.102 270.244C103.212 270.133 103.342 270.078 103.492 270.078ZM102.936 276.094V276.064C102.936 275.999 102.913 275.944 102.867 275.898C102.822 275.853 102.766 275.83 102.701 275.83C102.636 275.83 102.581 275.853 102.535 275.898C102.49 275.944 102.467 275.999 102.467 276.064V276.094C102.467 276.465 102.337 276.777 102.076 277.031C102.063 277.051 102.05 277.067 102.037 277.08C101.783 277.308 101.484 277.422 101.139 277.422H101.1C101.035 277.422 100.976 277.448 100.924 277.5C100.878 277.546 100.855 277.601 100.855 277.666C100.855 277.725 100.878 277.78 100.924 277.832C100.976 277.878 101.035 277.9 101.1 277.9H101.139V277.891C101.542 277.891 101.894 277.78 102.193 277.559C102.271 277.507 102.346 277.445 102.418 277.373C102.763 277.021 102.936 276.595 102.936 276.094ZM105.826 276.875H106.969V280H105.826C104.941 280 104.16 279.746 103.482 279.238C102.812 279.746 102.031 280 101.139 280H100.406C99.9766 280 99.612 279.85 99.3125 279.551C99.0065 279.251 98.8535 278.887 98.8535 278.457V278.428C98.8535 277.998 99.0065 277.633 99.3125 277.334C99.612 277.028 99.9766 276.875 100.406 276.875H101.139C101.36 276.875 101.546 276.8 101.695 276.65C101.845 276.501 101.92 276.315 101.92 276.094V270.625C101.92 270.202 102.076 269.837 102.389 269.531C102.695 269.219 103.059 269.062 103.482 269.062C103.912 269.062 104.28 269.219 104.586 269.531C104.892 269.837 105.045 270.202 105.045 270.625V276.094C105.045 276.315 105.123 276.501 105.279 276.65C105.429 276.8 105.611 276.875 105.826 276.875ZM110.348 267.041V266.719C110.348 266.439 110.25 266.201 110.055 266.006C109.859 265.804 109.618 265.703 109.332 265.703C109.176 265.703 109.098 265.781 109.098 265.938C109.098 266.094 109.176 266.172 109.332 266.172C109.482 266.172 109.612 266.227 109.723 266.338C109.827 266.449 109.879 266.576 109.879 266.719V267.041C109.879 267.106 109.902 267.161 109.947 267.207C109.993 267.253 110.048 267.275 110.113 267.275C110.178 267.275 110.234 267.253 110.279 267.207C110.325 267.161 110.348 267.106 110.348 267.041ZM110.436 265.615C110.742 265.928 110.895 266.296 110.895 266.719V276.094C110.895 277.181 110.517 278.105 109.762 278.867C109 279.622 108.076 280 106.988 280H106.754C106.324 280 105.96 279.85 105.66 279.551C105.361 279.251 105.211 278.887 105.211 278.457V278.428C105.211 277.998 105.361 277.633 105.66 277.334C105.96 277.028 106.324 276.875 106.754 276.875H106.988C107.21 276.875 107.395 276.8 107.545 276.65C107.695 276.501 107.77 276.315 107.77 276.094V266.719C107.77 266.296 107.926 265.928 108.238 265.615C108.544 265.309 108.909 265.156 109.332 265.156C109.762 265.156 110.13 265.309 110.436 265.615ZM113.834 266.172C113.984 266.172 114.059 266.094 114.059 265.938C114.059 265.781 113.98 265.703 113.824 265.703C113.544 265.703 113.303 265.801 113.102 265.996C112.906 266.191 112.809 266.432 112.809 266.719V267.031C112.809 267.096 112.831 267.152 112.877 267.197C112.923 267.243 112.978 267.266 113.043 267.266C113.108 267.266 113.163 267.243 113.209 267.197C113.255 267.152 113.277 267.096 113.277 267.031V266.719C113.277 266.569 113.333 266.439 113.443 266.328C113.548 266.224 113.678 266.172 113.834 266.172ZM114.928 265.615C115.234 265.921 115.387 266.289 115.387 266.719V278.438C115.387 278.867 115.234 279.235 114.928 279.541C114.615 279.847 114.247 280 113.824 280C113.395 280 113.027 279.847 112.721 279.541C112.415 279.235 112.262 278.867 112.262 278.438V266.719C112.262 266.289 112.415 265.921 112.721 265.615C113.027 265.309 113.395 265.156 113.824 265.156C114.247 265.156 114.615 265.309 114.928 265.615ZM124.967 266.182C125.117 266.182 125.191 266.104 125.191 265.947C125.191 265.882 125.169 265.827 125.123 265.781C125.077 265.736 125.022 265.713 124.957 265.713C124.677 265.713 124.436 265.811 124.234 266.006C124.039 266.208 123.941 266.449 123.941 266.729V267.09C123.941 267.148 123.964 267.201 124.01 267.246C124.055 267.292 124.111 267.314 124.176 267.314C124.241 267.314 124.296 267.292 124.342 267.246C124.387 267.201 124.41 267.148 124.41 267.09V266.729C124.41 266.579 124.465 266.452 124.576 266.348C124.68 266.237 124.811 266.182 124.967 266.182ZM120.279 273.887C120.429 273.887 120.504 273.809 120.504 273.652C120.504 273.496 120.426 273.418 120.27 273.418C119.99 273.418 119.749 273.519 119.547 273.721C119.352 273.916 119.254 274.154 119.254 274.434V274.795C119.254 274.951 119.332 275.029 119.488 275.029C119.645 275.029 119.723 274.951 119.723 274.795V274.434C119.723 274.29 119.778 274.163 119.889 274.053C119.993 273.942 120.123 273.887 120.279 273.887ZM127.301 276.875H128.443V280H127.301C127.027 280 126.767 279.977 126.52 279.932C126.513 281.006 126.132 281.921 125.377 282.676C124.615 283.431 123.694 283.809 122.613 283.809C121.526 283.809 120.605 283.431 119.85 282.676C119.088 281.914 118.707 280.99 118.707 279.902V274.434C118.707 274.01 118.86 273.646 119.166 273.34C119.472 273.027 119.84 272.871 120.27 272.871C120.693 272.871 121.061 273.027 121.373 273.34C121.679 273.646 121.832 274.01 121.832 274.434V279.902C121.832 280.124 121.907 280.309 122.057 280.459C122.206 280.609 122.392 280.684 122.613 280.684C122.828 280.684 123.014 280.609 123.17 280.459C123.32 280.309 123.395 280.124 123.395 279.902V266.729C123.395 266.299 123.548 265.931 123.854 265.625C124.16 265.319 124.527 265.166 124.957 265.166C125.38 265.166 125.748 265.319 126.061 265.625C126.367 265.931 126.52 266.299 126.52 266.729V276.094C126.52 276.315 126.594 276.501 126.744 276.65C126.894 276.8 127.079 276.875 127.301 276.875ZM133.502 270.068C133.658 270.068 133.736 269.99 133.736 269.834C133.736 269.678 133.658 269.6 133.502 269.6C132.577 269.6 131.786 269.928 131.129 270.586C130.471 271.243 130.143 272.035 130.143 272.959V273.75C130.143 273.906 130.221 273.984 130.377 273.984C130.533 273.984 130.611 273.906 130.611 273.75V272.959C130.611 272.158 130.895 271.478 131.461 270.918C132.021 270.352 132.701 270.068 133.502 270.068ZM136.275 270.195C137.031 270.957 137.408 271.878 137.408 272.959V278.125C137.408 278.639 137.226 279.082 136.861 279.453C136.497 279.818 136.054 280 135.533 280H128.287C127.857 280 127.493 279.85 127.193 279.551C126.894 279.245 126.744 278.877 126.744 278.447V278.418C126.744 277.988 126.894 277.624 127.193 277.324C127.493 277.025 127.857 276.875 128.287 276.875H134.283V272.959C134.283 272.744 134.208 272.559 134.059 272.402C133.909 272.253 133.723 272.178 133.502 272.178C133.287 272.178 133.105 272.253 132.955 272.402C132.799 272.559 132.721 272.744 132.721 272.959V273.75C132.721 274.173 132.568 274.538 132.262 274.844C131.956 275.156 131.588 275.312 131.158 275.312C130.735 275.312 130.37 275.156 130.064 274.844C129.752 274.538 129.596 274.173 129.596 273.75V272.959C129.596 271.878 129.977 270.957 130.738 270.195C131.5 269.434 132.421 269.053 133.502 269.053C134.589 269.053 135.514 269.434 136.275 270.195ZM140.357 266.172C140.507 266.172 140.582 266.094 140.582 265.938C140.582 265.781 140.504 265.703 140.348 265.703C140.068 265.703 139.827 265.801 139.625 265.996C139.43 266.191 139.332 266.432 139.332 266.719V267.031C139.332 267.096 139.355 267.152 139.4 267.197C139.446 267.243 139.501 267.266 139.566 267.266C139.632 267.266 139.687 267.243 139.732 267.197C139.778 267.152 139.801 267.096 139.801 267.031V266.719C139.801 266.569 139.856 266.439 139.967 266.328C140.071 266.224 140.201 266.172 140.357 266.172ZM141.451 265.615C141.757 265.921 141.91 266.289 141.91 266.719V278.438C141.91 278.867 141.757 279.235 141.451 279.541C141.139 279.847 140.771 280 140.348 280C139.918 280 139.55 279.847 139.244 279.541C138.938 279.235 138.785 278.867 138.785 278.438V266.719C138.785 266.289 138.938 265.921 139.244 265.615C139.55 265.309 139.918 265.156 140.348 265.156C140.771 265.156 141.139 265.309 141.451 265.615ZM147.223 279.902C147.223 279.909 147.223 279.912 147.223 279.912C147.223 279.919 147.223 279.925 147.223 279.932C147.223 279.925 147.223 279.919 147.223 279.912C147.223 279.912 147.223 279.909 147.223 279.902ZM147.223 279.932C147.223 279.925 147.223 279.919 147.223 279.912C147.223 279.912 147.223 279.909 147.223 279.902C147.223 279.909 147.223 279.912 147.223 279.912C147.223 279.919 147.223 279.925 147.223 279.932ZM145.66 270.068C145.81 270.068 145.885 269.99 145.885 269.834C145.885 269.775 145.862 269.723 145.816 269.678C145.771 269.632 145.715 269.606 145.65 269.6C145.37 269.6 145.13 269.701 144.928 269.902C144.732 270.098 144.635 270.335 144.635 270.615V270.869C144.635 270.934 144.658 270.99 144.703 271.035C144.749 271.074 144.804 271.094 144.869 271.094C144.934 271.094 144.99 271.074 145.035 271.035C145.081 270.99 145.104 270.934 145.104 270.869V270.615C145.104 270.472 145.159 270.345 145.27 270.234C145.38 270.124 145.51 270.068 145.66 270.068ZM145.104 279.893V279.854C145.104 279.788 145.081 279.733 145.035 279.688C144.99 279.642 144.934 279.619 144.869 279.619C144.804 279.619 144.749 279.642 144.703 279.688C144.658 279.733 144.635 279.788 144.635 279.854V279.893C144.635 280.257 144.505 280.57 144.244 280.83C143.984 281.09 143.671 281.221 143.307 281.221H143.072C143.007 281.221 142.952 281.243 142.906 281.289C142.861 281.335 142.838 281.39 142.838 281.455C142.838 281.52 142.861 281.576 142.906 281.621C142.952 281.667 143.007 281.689 143.072 281.689H143.326C143.821 281.689 144.241 281.514 144.586 281.162C144.931 280.817 145.104 280.394 145.104 279.893ZM147.994 276.875H149.244V280H147.994C147.727 280 147.47 279.977 147.223 279.932C147.223 279.925 147.223 279.922 147.223 279.922C147.223 279.915 147.223 279.912 147.223 279.912C147.223 279.912 147.223 279.915 147.223 279.922C147.223 279.922 147.223 279.925 147.223 279.932C147.223 279.932 147.223 279.935 147.223 279.941C147.21 281.009 146.826 281.917 146.07 282.666C145.309 283.428 144.387 283.809 143.307 283.809H142.779C142.356 283.809 141.992 283.656 141.686 283.35C141.38 283.044 141.227 282.679 141.227 282.256V282.217C141.227 281.794 141.38 281.432 141.686 281.133C141.992 280.833 142.356 280.684 142.779 280.684H143.307C143.528 280.684 143.717 280.609 143.873 280.459C144.029 280.303 144.107 280.114 144.107 279.893V270.615C144.107 270.192 144.257 269.827 144.557 269.521C144.863 269.209 145.227 269.053 145.65 269.053C146.08 269.053 146.451 269.209 146.764 269.521C147.076 269.827 147.232 270.192 147.232 270.615V276.094C147.232 276.315 147.304 276.501 147.447 276.65C147.597 276.8 147.779 276.875 147.994 276.875ZM154.83 276.094V272.969C154.83 272.754 154.755 272.572 154.605 272.422C154.456 272.266 154.27 272.188 154.049 272.188C153.834 272.188 153.652 272.266 153.502 272.422C153.346 272.572 153.268 272.754 153.268 272.969V276.094C153.268 276.315 153.346 276.501 153.502 276.65C153.652 276.8 153.834 276.875 154.049 276.875C154.27 276.875 154.456 276.8 154.605 276.65C154.755 276.501 154.83 276.315 154.83 276.094ZM151.158 272.871C151.158 272.474 151.23 272.119 151.373 271.807C151.516 271.494 151.728 271.201 152.008 270.928C152.568 270.361 153.248 270.078 154.049 270.078C154.205 270.078 154.283 270 154.283 269.844C154.283 269.688 154.205 269.609 154.049 269.609C153.124 269.609 152.333 269.938 151.676 270.596C151.35 270.921 151.103 271.266 150.934 271.631C150.771 271.995 150.689 272.409 150.689 272.871V273.379C150.689 273.535 150.768 273.613 150.924 273.613C151.08 273.613 151.158 273.535 151.158 273.379V272.871ZM158.736 276.875H159.488V280H158.736C157.851 280 157.07 279.746 156.393 279.238C155.722 279.746 154.941 280 154.049 280C153.163 280 152.382 279.746 151.705 279.238C151.035 279.746 150.253 280 149.361 280H149.029C148.6 280 148.235 279.85 147.936 279.551C147.63 279.251 147.477 278.887 147.477 278.457V278.428C147.477 277.998 147.63 277.633 147.936 277.334C148.235 277.028 148.6 276.875 149.029 276.875H149.361C149.583 276.875 149.768 276.8 149.918 276.65C150.068 276.501 150.143 276.315 150.143 276.094V272.969C150.143 271.888 150.523 270.967 151.285 270.205C152.047 269.443 152.968 269.062 154.049 269.062C155.136 269.062 156.061 269.443 156.822 270.205C157.577 270.967 157.955 271.888 157.955 272.969V276.094C157.955 276.315 158.033 276.501 158.189 276.65C158.339 276.8 158.521 276.875 158.736 276.875ZM162.867 267.041V266.719C162.867 266.439 162.77 266.201 162.574 266.006C162.379 265.804 162.138 265.703 161.852 265.703C161.695 265.703 161.617 265.781 161.617 265.938C161.617 266.094 161.695 266.172 161.852 266.172C162.001 266.172 162.132 266.227 162.242 266.338C162.346 266.449 162.398 266.576 162.398 266.719V267.041C162.398 267.106 162.421 267.161 162.467 267.207C162.512 267.253 162.568 267.275 162.633 267.275C162.698 267.275 162.753 267.253 162.799 267.207C162.844 267.161 162.867 267.106 162.867 267.041ZM162.955 265.615C163.261 265.928 163.414 266.296 163.414 266.719V276.094C163.414 277.181 163.036 278.105 162.281 278.867C161.52 279.622 160.595 280 159.508 280H159.273C158.844 280 158.479 279.85 158.18 279.551C157.88 279.251 157.73 278.887 157.73 278.457V278.428C157.73 277.998 157.88 277.633 158.18 277.334C158.479 277.028 158.844 276.875 159.273 276.875H159.508C159.729 276.875 159.915 276.8 160.064 276.65C160.214 276.501 160.289 276.315 160.289 276.094V266.719C160.289 266.296 160.445 265.928 160.758 265.615C161.064 265.309 161.428 265.156 161.852 265.156C162.281 265.156 162.649 265.309 162.955 265.615ZM166.354 266.172C166.503 266.172 166.578 266.094 166.578 265.938C166.578 265.781 166.5 265.703 166.344 265.703C166.064 265.703 165.823 265.801 165.621 265.996C165.426 266.191 165.328 266.432 165.328 266.719V267.031C165.328 267.096 165.351 267.152 165.396 267.197C165.442 267.243 165.497 267.266 165.562 267.266C165.628 267.266 165.683 267.243 165.729 267.197C165.774 267.152 165.797 267.096 165.797 267.031V266.719C165.797 266.569 165.852 266.439 165.963 266.328C166.067 266.224 166.197 266.172 166.354 266.172ZM167.447 265.615C167.753 265.921 167.906 266.289 167.906 266.719V278.438C167.906 278.867 167.753 279.235 167.447 279.541C167.135 279.847 166.767 280 166.344 280C165.914 280 165.546 279.847 165.24 279.541C164.934 279.235 164.781 278.867 164.781 278.438V266.719C164.781 266.289 164.934 265.921 165.24 265.615C165.546 265.309 165.914 265.156 166.344 265.156C166.767 265.156 167.135 265.309 167.447 265.615ZM180.602 276.094V272.969C180.602 272.747 180.527 272.562 180.377 272.412C180.221 272.262 180.035 272.188 179.82 272.188C179.599 272.188 179.413 272.262 179.264 272.412C179.114 272.562 179.039 272.747 179.039 272.969V276.875H179.82C180.035 276.875 180.221 276.8 180.377 276.65C180.527 276.501 180.602 276.315 180.602 276.094ZM177.486 268.574C177.636 268.574 177.711 268.496 177.711 268.34C177.711 268.275 177.688 268.219 177.643 268.174C177.597 268.128 177.542 268.105 177.477 268.105C177.197 268.105 176.956 268.203 176.754 268.398C176.565 268.587 176.467 268.818 176.461 269.092C176.461 269.098 176.461 269.108 176.461 269.121V269.453C176.461 269.518 176.484 269.574 176.529 269.619C176.575 269.665 176.63 269.688 176.695 269.688C176.76 269.688 176.816 269.665 176.861 269.619C176.907 269.574 176.93 269.518 176.93 269.453V269.121C176.93 268.971 176.985 268.844 177.096 268.74C177.2 268.63 177.33 268.574 177.486 268.574ZM172.799 273.906C172.949 273.906 173.023 273.828 173.023 273.672C173.023 273.516 172.945 273.438 172.789 273.438C172.509 273.438 172.268 273.538 172.066 273.74C171.871 273.936 171.773 274.173 171.773 274.453V274.912C171.773 275.068 171.852 275.146 172.008 275.146C172.164 275.146 172.242 275.068 172.242 274.912V274.453C172.242 274.31 172.298 274.183 172.408 274.072C172.512 273.962 172.643 273.906 172.799 273.906ZM184.508 276.904H185.65V280H184.508C183.609 280 182.822 279.74 182.145 279.219C181.878 279.427 181.591 279.596 181.285 279.727C180.836 279.909 180.348 280 179.82 280H179.039C179.02 281.055 178.639 281.953 177.896 282.695C177.135 283.451 176.214 283.828 175.133 283.828C174.046 283.828 173.124 283.451 172.369 282.695C171.607 281.934 171.227 281.009 171.227 279.922V274.453C171.227 274.03 171.38 273.665 171.686 273.359C171.992 273.047 172.359 272.891 172.789 272.891C173.212 272.891 173.58 273.047 173.893 273.359C174.199 273.665 174.352 274.03 174.352 274.453V279.922C174.352 280.143 174.426 280.329 174.576 280.479C174.726 280.628 174.911 280.703 175.133 280.703C175.348 280.703 175.533 280.628 175.689 280.479C175.82 280.348 175.891 280.189 175.904 280C175.911 279.974 175.914 279.948 175.914 279.922V269.121C175.914 268.691 176.067 268.324 176.373 268.018C176.679 267.712 177.047 267.559 177.477 267.559C177.9 267.559 178.268 267.712 178.58 268.018C178.886 268.324 179.039 268.691 179.039 269.121V269.131C179.286 269.085 179.547 269.062 179.82 269.062C180.901 269.062 181.822 269.443 182.584 270.205C183.346 270.96 183.727 271.882 183.727 272.969V276.123C183.727 276.338 183.801 276.523 183.951 276.68C184.101 276.829 184.286 276.904 184.508 276.904ZM181.07 266.514C181.201 266.514 181.266 266.449 181.266 266.318C181.266 266.182 181.201 266.113 181.07 266.113C180.829 266.113 180.624 266.198 180.455 266.367C180.286 266.536 180.201 266.742 180.201 266.982C180.201 267.113 180.27 267.178 180.406 267.178C180.536 267.178 180.602 267.116 180.602 266.992C180.602 266.862 180.647 266.751 180.738 266.66C180.836 266.562 180.947 266.514 181.07 266.514ZM182.008 266.045C182.268 266.305 182.398 266.618 182.398 266.982C182.398 267.347 182.268 267.66 182.008 267.92C181.747 268.18 181.435 268.311 181.07 268.311C180.706 268.311 180.393 268.18 180.133 267.92C179.872 267.66 179.742 267.347 179.742 266.982C179.742 266.618 179.872 266.305 180.133 266.045C180.393 265.785 180.706 265.654 181.07 265.654C181.435 265.654 181.747 265.785 182.008 266.045ZM190.777 269.619C190.621 269.619 190.543 269.697 190.543 269.854C190.543 270.01 190.621 270.088 190.777 270.088C191.578 270.088 192.258 270.371 192.818 270.938C193.385 271.497 193.668 272.178 193.668 272.979V273.77C193.668 273.926 193.746 274.004 193.902 274.004C194.059 274.004 194.137 273.926 194.137 273.77V272.979C194.137 272.054 193.808 271.263 193.15 270.605C192.493 269.948 191.702 269.619 190.777 269.619ZM196.9 277.344C197.206 277.65 197.359 278.014 197.359 278.438C197.359 278.867 197.206 279.235 196.9 279.541C196.594 279.847 196.227 280 195.797 280H185.445C185.016 280 184.651 279.85 184.352 279.551C184.052 279.251 183.902 278.887 183.902 278.457V278.428C183.902 277.998 184.052 277.633 184.352 277.334C184.651 277.028 185.016 276.875 185.445 276.875H186.871V272.979C186.871 271.898 187.249 270.977 188.004 270.215C188.766 269.453 189.69 269.072 190.777 269.072C191.858 269.072 192.779 269.453 193.541 270.215C194.303 270.977 194.684 271.898 194.684 272.979V273.77C194.684 274.193 194.527 274.557 194.215 274.863C193.909 275.176 193.544 275.332 193.121 275.332C192.691 275.332 192.324 275.176 192.018 274.863C191.712 274.557 191.559 274.193 191.559 273.77V272.979C191.559 272.764 191.48 272.578 191.324 272.422C191.174 272.272 190.992 272.197 190.777 272.197C190.556 272.197 190.37 272.272 190.221 272.422C190.071 272.578 189.996 272.764 189.996 272.979V276.104C189.996 276.325 190.071 276.51 190.221 276.66C190.338 276.784 190.478 276.855 190.641 276.875H195.797C196.227 276.875 196.594 277.031 196.9 277.344ZM199.303 281.572C199.426 281.572 199.488 281.504 199.488 281.367C199.488 281.237 199.423 281.172 199.293 281.172C199.052 281.172 198.847 281.257 198.678 281.426C198.515 281.589 198.434 281.79 198.434 282.031C198.434 282.161 198.499 282.23 198.629 282.236C198.759 282.236 198.824 282.171 198.824 282.041C198.824 281.911 198.873 281.8 198.971 281.709C199.062 281.618 199.173 281.572 199.303 281.572ZM200.23 281.094C200.491 281.354 200.621 281.667 200.621 282.031C200.621 282.396 200.491 282.708 200.23 282.969C199.97 283.229 199.658 283.359 199.293 283.359C198.928 283.359 198.616 283.229 198.355 282.969C198.095 282.708 197.965 282.396 197.965 282.031C197.965 281.667 198.095 281.354 198.355 281.094C198.616 280.833 198.928 280.703 199.293 280.703C199.658 280.703 199.97 280.833 200.23 281.094ZM199.303 270.078C199.452 270.078 199.527 270 199.527 269.844C199.527 269.779 199.505 269.723 199.459 269.678C199.413 269.632 199.358 269.609 199.293 269.609C199.013 269.609 198.772 269.707 198.57 269.902C198.375 270.104 198.277 270.345 198.277 270.625V270.869C198.277 270.934 198.3 270.99 198.346 271.035C198.391 271.081 198.447 271.104 198.512 271.104C198.577 271.104 198.632 271.081 198.678 271.035C198.723 270.99 198.746 270.934 198.746 270.869V270.625C198.746 270.475 198.801 270.348 198.912 270.244C199.023 270.133 199.153 270.078 199.303 270.078ZM198.746 276.094V276.055C198.746 275.99 198.723 275.934 198.678 275.889C198.632 275.843 198.577 275.82 198.512 275.82C198.447 275.82 198.391 275.843 198.346 275.889C198.3 275.934 198.277 275.99 198.277 276.055V276.094C198.277 276.458 198.147 276.771 197.887 277.031C197.626 277.292 197.314 277.422 196.949 277.422H196.9C196.835 277.422 196.78 277.445 196.734 277.49C196.689 277.536 196.666 277.591 196.666 277.656C196.666 277.721 196.689 277.777 196.734 277.822C196.78 277.868 196.835 277.891 196.9 277.891H196.949C197.451 277.891 197.874 277.715 198.219 277.363C198.57 277.018 198.746 276.595 198.746 276.094ZM200.396 269.521C200.702 269.827 200.855 270.195 200.855 270.625V276.094C200.855 277.174 200.475 278.096 199.713 278.857C198.951 279.619 198.03 280 196.949 280H196.324C195.895 280 195.53 279.85 195.23 279.551C194.924 279.245 194.771 278.877 194.771 278.447V278.418C194.771 277.995 194.924 277.633 195.23 277.334C195.53 277.028 195.895 276.875 196.324 276.875H196.949C197.171 276.875 197.356 276.8 197.506 276.65C197.656 276.494 197.73 276.309 197.73 276.094V270.625C197.73 270.195 197.883 269.827 198.189 269.521C198.495 269.215 198.863 269.062 199.293 269.062C199.723 269.062 200.09 269.215 200.396 269.521ZM210.816 275.02V276.104C210.816 276.104 210.816 276.1 210.816 276.094V275.02ZM210.816 276.094V272.969C210.816 272.754 210.742 272.572 210.592 272.422C210.436 272.266 210.25 272.188 210.035 272.188C209.814 272.188 209.628 272.266 209.479 272.422C209.329 272.572 209.254 272.754 209.254 272.969V276.094C209.254 276.315 209.329 276.501 209.479 276.65C209.628 276.8 209.814 276.875 210.035 276.875C210.25 276.875 210.436 276.8 210.592 276.65C210.735 276.501 210.81 276.318 210.816 276.104C210.816 276.104 210.816 276.1 210.816 276.094ZM207.145 272.871C207.145 272.474 207.213 272.119 207.35 271.807C207.493 271.494 207.704 271.201 207.984 270.928C208.551 270.361 209.234 270.078 210.035 270.078C210.191 270.078 210.27 270 210.27 269.844C210.27 269.688 210.191 269.609 210.035 269.609C209.104 269.609 208.313 269.938 207.662 270.596C207.33 270.921 207.083 271.266 206.92 271.631C206.757 271.995 206.676 272.409 206.676 272.871V273.379C206.676 273.535 206.754 273.613 206.91 273.613C207.066 273.613 207.145 273.535 207.145 273.379V272.871ZM214.723 276.875H215.475V280H214.723C213.831 280 213.049 279.746 212.379 279.238C211.708 279.746 210.927 280 210.035 280C208.948 280 208.027 279.622 207.271 278.867C206.51 278.105 206.129 277.181 206.129 276.094V272.969C206.129 271.888 206.51 270.967 207.271 270.205C208.027 269.443 208.948 269.062 210.035 269.062C211.116 269.062 212.037 269.443 212.799 270.205C213.561 270.967 213.941 271.888 213.941 272.969V276.104C213.941 276.318 214.016 276.501 214.166 276.65C214.316 276.8 214.501 276.875 214.723 276.875ZM208.619 266.494C208.749 266.494 208.814 266.426 208.814 266.289C208.814 266.159 208.746 266.094 208.609 266.094C208.368 266.094 208.167 266.178 208.004 266.348C207.835 266.517 207.75 266.719 207.75 266.953C207.75 267.09 207.815 267.158 207.945 267.158C208.082 267.158 208.15 267.093 208.15 266.963C208.15 266.833 208.196 266.722 208.287 266.631C208.378 266.54 208.489 266.494 208.619 266.494ZM209.547 266.025C209.807 266.286 209.938 266.595 209.938 266.953C209.938 267.318 209.807 267.63 209.547 267.891C209.286 268.151 208.974 268.281 208.609 268.281C208.245 268.281 207.932 268.151 207.672 267.891C207.411 267.63 207.281 267.318 207.281 266.953C207.281 266.595 207.411 266.286 207.672 266.025C207.932 265.758 208.245 265.625 208.609 265.625C208.974 265.625 209.286 265.758 209.547 266.025ZM211.461 266.494C211.591 266.494 211.656 266.426 211.656 266.289C211.656 266.159 211.588 266.094 211.451 266.094C211.217 266.094 211.015 266.178 210.846 266.348C210.676 266.517 210.592 266.719 210.592 266.953C210.592 267.09 210.657 267.158 210.787 267.158C210.924 267.158 210.992 267.093 210.992 266.963C210.992 266.833 211.038 266.722 211.129 266.631C211.22 266.54 211.331 266.494 211.461 266.494ZM212.389 266.025C212.649 266.286 212.779 266.595 212.779 266.953C212.779 267.318 212.649 267.63 212.389 267.891C212.128 268.151 211.816 268.281 211.451 268.281C211.093 268.281 210.784 268.151 210.523 267.891C210.257 267.63 210.123 267.318 210.123 266.953C210.123 266.595 210.257 266.286 210.523 266.025C210.784 265.758 211.093 265.625 211.451 265.625C211.816 265.625 212.128 265.758 212.389 266.025ZM220.484 266.494C220.608 266.494 220.67 266.426 220.67 266.289C220.67 266.159 220.605 266.094 220.475 266.094C220.234 266.094 220.029 266.178 219.859 266.348C219.697 266.517 219.615 266.719 219.615 266.953C219.615 267.09 219.68 267.158 219.811 267.158C219.941 267.158 220.006 267.093 220.006 266.963C220.006 266.833 220.055 266.722 220.152 266.631C220.243 266.54 220.354 266.494 220.484 266.494ZM221.412 266.025C221.673 266.286 221.803 266.595 221.803 266.953C221.803 267.318 221.673 267.63 221.412 267.891C221.152 268.151 220.839 268.281 220.475 268.281C220.11 268.281 219.798 268.151 219.537 267.891C219.277 267.63 219.146 267.318 219.146 266.953C219.146 266.595 219.277 266.286 219.537 266.025C219.798 265.758 220.11 265.625 220.475 265.625C220.839 265.625 221.152 265.758 221.412 266.025ZM221.256 276.094V272.969C221.256 272.754 221.181 272.572 221.031 272.422C220.882 272.266 220.696 272.188 220.475 272.188C220.26 272.188 220.077 272.266 219.928 272.422C219.771 272.572 219.693 272.754 219.693 272.969V276.094C219.693 276.315 219.771 276.501 219.928 276.65C220.077 276.8 220.26 276.875 220.475 276.875C220.696 276.875 220.882 276.8 221.031 276.65C221.181 276.501 221.256 276.315 221.256 276.094ZM217.584 272.871C217.584 272.474 217.656 272.119 217.799 271.807C217.942 271.494 218.154 271.201 218.434 270.928C218.993 270.361 219.674 270.078 220.475 270.078C220.631 270.078 220.709 270 220.709 269.844C220.709 269.688 220.631 269.609 220.475 269.609C219.55 269.609 218.759 269.938 218.102 270.596C217.776 270.921 217.529 271.266 217.359 271.631C217.197 271.995 217.115 272.409 217.115 272.871V273.379C217.115 273.535 217.193 273.613 217.35 273.613C217.506 273.613 217.584 273.535 217.584 273.379V272.871ZM223.248 270.205C224.003 270.967 224.381 271.888 224.381 272.969V276.094C224.381 277.181 224.003 278.105 223.248 278.867C222.486 279.622 221.562 280 220.475 280C220.468 280 220.458 280 220.445 280C220.439 280 220.432 280 220.426 280H215.27C214.846 280 214.485 279.85 214.186 279.551C213.88 279.251 213.727 278.887 213.727 278.457V278.428C213.727 277.998 213.88 277.633 214.186 277.334C214.485 277.028 214.846 276.875 215.27 276.875H216.568V272.969C216.568 271.888 216.949 270.967 217.711 270.205C218.473 269.443 219.394 269.062 220.475 269.062C221.562 269.062 222.486 269.443 223.248 270.205ZM226.285 266.719V267.041C226.285 267.106 226.308 267.161 226.354 267.207C226.399 267.253 226.454 267.275 226.52 267.275C226.585 267.275 226.64 267.253 226.686 267.207C226.731 267.161 226.754 267.106 226.754 267.041V266.719C226.754 266.576 226.812 266.449 226.93 266.338C227.04 266.227 227.171 266.172 227.32 266.172C227.47 266.172 227.545 266.094 227.545 265.938C227.545 265.781 227.467 265.703 227.311 265.703C227.031 265.703 226.79 265.804 226.588 266.006C226.386 266.201 226.285 266.439 226.285 266.719ZM229.654 276.875H230.387V280H229.654C228.574 280 227.652 279.622 226.891 278.867C226.135 278.105 225.758 277.184 225.758 276.104V266.719C225.758 266.296 225.911 265.931 226.217 265.625C226.523 265.312 226.887 265.156 227.311 265.156C227.74 265.156 228.108 265.312 228.414 265.625C228.727 265.931 228.883 266.296 228.883 266.719V276.104C228.883 276.318 228.958 276.501 229.107 276.65C229.257 276.8 229.439 276.875 229.654 276.875ZM236.217 276.094V272.969C236.217 272.754 236.142 272.572 235.992 272.422C235.836 272.266 235.65 272.188 235.436 272.188C235.214 272.188 235.029 272.266 234.879 272.422C234.729 272.572 234.654 272.754 234.654 272.969V276.875H235.436C235.65 276.875 235.836 276.8 235.992 276.65C236.142 276.501 236.217 276.315 236.217 276.094ZM233.102 268.574C233.251 268.574 233.326 268.496 233.326 268.34C233.326 268.275 233.303 268.219 233.258 268.174C233.212 268.128 233.157 268.105 233.092 268.105C232.812 268.105 232.571 268.206 232.369 268.408C232.18 268.597 232.083 268.825 232.076 269.092C232.076 269.105 232.076 269.115 232.076 269.121V269.453C232.076 269.518 232.099 269.574 232.145 269.619C232.19 269.665 232.245 269.688 232.311 269.688C232.376 269.688 232.431 269.665 232.477 269.619C232.522 269.574 232.545 269.518 232.545 269.453V269.121C232.545 268.978 232.6 268.851 232.711 268.74C232.815 268.63 232.945 268.574 233.102 268.574ZM238.199 270.205C238.961 270.967 239.342 271.888 239.342 272.969V276.094C239.342 277.181 238.961 278.105 238.199 278.867C237.809 279.258 237.376 279.548 236.9 279.736C236.451 279.912 235.963 280 235.436 280H230.172C229.749 280 229.387 279.85 229.088 279.551C228.782 279.251 228.629 278.887 228.629 278.457V278.428C228.629 277.998 228.782 277.633 229.088 277.334C229.387 277.028 229.749 276.875 230.172 276.875H231.529V269.121C231.529 268.698 231.682 268.33 231.988 268.018C232.294 267.712 232.662 267.559 233.092 267.559C233.515 267.559 233.883 267.712 234.195 268.018C234.501 268.33 234.654 268.698 234.654 269.121V269.141C234.902 269.089 235.162 269.062 235.436 269.062C236.516 269.062 237.438 269.443 238.199 270.205ZM236.695 266.523C236.819 266.523 236.881 266.455 236.881 266.318C236.881 266.188 236.816 266.123 236.686 266.123C236.445 266.123 236.24 266.208 236.07 266.377C235.901 266.546 235.816 266.748 235.816 266.982C235.816 267.119 235.885 267.188 236.021 267.188C236.152 267.188 236.217 267.122 236.217 266.992C236.217 266.862 236.266 266.751 236.363 266.66C236.454 266.569 236.565 266.523 236.695 266.523ZM237.623 266.045C237.883 266.305 238.014 266.618 238.014 266.982C238.014 267.347 237.883 267.66 237.623 267.92C237.363 268.18 237.05 268.311 236.686 268.311C236.321 268.311 236.008 268.18 235.748 267.92C235.488 267.66 235.357 267.347 235.357 266.982C235.357 266.618 235.488 266.305 235.748 266.045C236.008 265.785 236.321 265.654 236.686 265.654C237.05 265.654 237.363 265.785 237.623 266.045ZM242.516 266.172C242.665 266.172 242.74 266.094 242.74 265.938C242.74 265.781 242.662 265.703 242.506 265.703C242.226 265.703 241.988 265.801 241.793 265.996C241.591 266.198 241.49 266.439 241.49 266.719V267.041C241.49 267.106 241.513 267.161 241.559 267.207C241.604 267.253 241.66 267.275 241.725 267.275C241.79 267.275 241.845 267.253 241.891 267.207C241.936 267.161 241.959 267.106 241.959 267.041V266.719C241.959 266.576 242.014 266.449 242.125 266.338C242.236 266.227 242.366 266.172 242.516 266.172ZM243.609 265.615C243.915 265.921 244.068 266.289 244.068 266.719V278.438C244.068 278.867 243.915 279.235 243.609 279.541C243.303 279.847 242.936 280 242.506 280C242.083 280 241.718 279.847 241.412 279.541C241.1 279.235 240.943 278.867 240.943 278.438V266.719C240.943 266.289 241.1 265.921 241.412 265.615C241.718 265.309 242.083 265.156 242.506 265.156C242.936 265.156 243.303 265.309 243.609 265.615ZM241.354 283.76C241.38 283.76 241.402 283.75 241.422 283.73C241.441 283.711 241.451 283.688 241.451 283.662C241.451 283.636 241.441 283.613 241.422 283.594C241.402 283.574 241.38 283.564 241.354 283.564H241.178C241.119 283.564 241.067 283.542 241.021 283.496C240.976 283.451 240.953 283.395 240.953 283.33C240.953 283.265 240.921 283.232 240.855 283.232C240.79 283.232 240.758 283.265 240.758 283.33C240.758 283.447 240.797 283.548 240.875 283.633C240.96 283.717 241.061 283.76 241.178 283.76H241.354ZM243.092 281.592C243.027 281.592 242.994 281.624 242.994 281.689C242.994 281.755 243.027 281.787 243.092 281.787H243.736C243.801 281.787 243.834 281.755 243.834 281.689C243.834 281.624 243.801 281.592 243.736 281.592H243.092ZM244.303 282.871C244.433 283.001 244.498 283.154 244.498 283.33C244.498 283.512 244.433 283.669 244.303 283.799C244.173 283.923 244.02 283.984 243.844 283.984H241.178C241.002 283.984 240.849 283.923 240.719 283.799C240.589 283.669 240.523 283.512 240.523 283.33C240.523 283.154 240.589 283.001 240.719 282.871C240.849 282.741 241.002 282.676 241.178 282.676H241.451V282.344C241.451 281.895 241.611 281.51 241.93 281.191C242.249 280.866 242.636 280.703 243.092 280.703H243.736C243.912 280.703 244.065 280.768 244.195 280.898C244.326 281.029 244.391 281.185 244.391 281.367C244.391 281.543 244.326 281.696 244.195 281.826C244.065 281.956 243.912 282.021 243.736 282.021H243.092C243.001 282.021 242.923 282.054 242.857 282.119C242.792 282.178 242.76 282.253 242.76 282.344V282.676H243.844C244.02 282.676 244.173 282.741 244.303 282.871ZM254.742 271.26C254.788 271.305 254.833 271.305 254.879 271.26L255.191 270.947C255.237 270.902 255.237 270.856 255.191 270.811C255.146 270.765 255.1 270.765 255.055 270.811L254.742 271.123C254.697 271.169 254.697 271.214 254.742 271.26ZM253.531 274.473C253.557 274.473 253.58 274.463 253.6 274.443C253.619 274.424 253.629 274.401 253.629 274.375C253.629 274.349 253.619 274.326 253.6 274.307C253.58 274.287 253.557 274.277 253.531 274.277H253.355C253.297 274.277 253.242 274.255 253.189 274.209C253.144 274.163 253.121 274.108 253.121 274.043C253.121 273.978 253.089 273.945 253.023 273.945C252.958 273.945 252.926 273.978 252.926 274.043C252.926 274.16 252.968 274.261 253.053 274.346C253.137 274.43 253.238 274.473 253.355 274.473H253.531ZM255.27 271.904C255.589 272.223 255.748 272.611 255.748 273.066H255.738V273.779C255.738 274.033 255.647 274.251 255.465 274.434C255.289 274.616 255.071 274.707 254.811 274.707H253.355C253.173 274.707 253.02 274.642 252.896 274.512C252.838 274.453 252.792 274.391 252.76 274.326C252.721 274.242 252.701 274.147 252.701 274.043C252.701 273.945 252.721 273.854 252.76 273.77C252.792 273.704 252.838 273.643 252.896 273.584C253.02 273.454 253.173 273.389 253.355 273.389H254.43V273.066C254.43 272.969 254.4 272.891 254.342 272.832C254.277 272.767 254.199 272.734 254.107 272.734H253.463C253.45 272.734 253.44 272.734 253.434 272.734C253.271 272.728 253.128 272.663 253.004 272.539H252.994C252.877 272.409 252.815 272.266 252.809 272.109C252.802 272.083 252.802 272.061 252.809 272.041C252.809 272.035 252.809 272.025 252.809 272.012C252.809 271.999 252.809 271.989 252.809 271.982C252.822 271.911 252.844 271.846 252.877 271.787C252.877 271.781 252.877 271.774 252.877 271.768C252.91 271.715 252.949 271.663 252.994 271.611L254.42 270.186C254.55 270.062 254.706 269.997 254.889 269.99C255.071 269.997 255.224 270.062 255.348 270.186C255.478 270.316 255.543 270.469 255.543 270.645C255.543 270.833 255.478 270.99 255.348 271.113L254.869 271.602C255.012 271.68 255.146 271.781 255.27 271.904ZM259.254 266.172C259.404 266.172 259.479 266.094 259.479 265.938C259.479 265.872 259.456 265.817 259.41 265.771C259.371 265.726 259.316 265.703 259.244 265.703C258.964 265.703 258.727 265.804 258.531 266.006C258.329 266.201 258.229 266.439 258.229 266.719V266.973C258.229 267.038 258.251 267.093 258.297 267.139C258.342 267.184 258.398 267.207 258.463 267.207H258.473C258.538 267.207 258.59 267.184 258.629 267.139C258.674 267.093 258.697 267.038 258.697 266.973V266.719C258.697 266.576 258.753 266.449 258.863 266.338C258.974 266.227 259.104 266.172 259.254 266.172ZM250.211 273.018V272.773C250.211 272.487 250.113 272.246 249.918 272.051C249.716 271.855 249.475 271.758 249.195 271.758C249.13 271.758 249.075 271.781 249.029 271.826C248.984 271.872 248.961 271.927 248.961 271.992C248.961 272.148 249.036 272.227 249.186 272.227C249.342 272.227 249.472 272.279 249.576 272.383C249.687 272.493 249.742 272.624 249.742 272.773V273.018C249.742 273.083 249.765 273.138 249.811 273.184C249.856 273.229 249.911 273.252 249.977 273.252C250.042 273.252 250.097 273.229 250.143 273.184C250.188 273.138 250.211 273.083 250.211 273.018ZM261.588 276.875H262.828V280H261.588C260.702 280 259.921 279.746 259.244 279.238C258.574 279.746 257.792 280 256.9 280H251.539C250.458 280 249.537 279.622 248.775 278.867C248.014 278.105 247.633 277.181 247.633 276.094V272.773C247.633 272.344 247.786 271.976 248.092 271.67C248.404 271.364 248.772 271.211 249.195 271.211C249.625 271.211 249.993 271.364 250.299 271.67C250.605 271.976 250.758 272.344 250.758 272.773V276.094C250.758 276.315 250.833 276.501 250.982 276.65C251.139 276.8 251.324 276.875 251.539 276.875H256.9C257.122 276.875 257.307 276.8 257.457 276.65C257.607 276.501 257.682 276.315 257.682 276.094V266.719C257.682 266.296 257.838 265.928 258.15 265.615C258.456 265.309 258.821 265.156 259.244 265.156C259.674 265.156 260.042 265.309 260.348 265.615C260.654 265.928 260.807 266.296 260.807 266.719V276.094C260.807 276.315 260.885 276.501 261.041 276.65C261.191 276.8 261.373 276.875 261.588 276.875ZM265.67 266.494C265.794 266.494 265.855 266.426 265.855 266.289C265.855 266.159 265.79 266.094 265.66 266.094C265.419 266.094 265.214 266.178 265.045 266.348C264.882 266.517 264.801 266.719 264.801 266.953C264.801 267.09 264.866 267.158 264.996 267.158C265.126 267.158 265.191 267.093 265.191 266.963C265.191 266.833 265.24 266.722 265.338 266.631C265.429 266.54 265.54 266.494 265.67 266.494ZM266.598 266.025C266.858 266.286 266.988 266.595 266.988 266.953C266.988 267.318 266.858 267.63 266.598 267.891C266.337 268.151 266.025 268.281 265.66 268.281C265.296 268.281 264.983 268.151 264.723 267.891C264.462 267.63 264.332 267.318 264.332 266.953C264.332 266.595 264.462 266.286 264.723 266.025C264.983 265.758 265.296 265.625 265.66 265.625C266.025 265.625 266.337 265.758 266.598 266.025ZM265.66 270.078C265.81 270.078 265.885 270 265.885 269.844C265.885 269.785 265.862 269.733 265.816 269.688C265.771 269.635 265.715 269.609 265.65 269.609C265.37 269.616 265.133 269.717 264.938 269.912C264.736 270.107 264.635 270.345 264.635 270.625V270.879C264.635 270.944 264.658 270.999 264.703 271.045C264.749 271.09 264.804 271.113 264.869 271.113H264.879C264.938 271.113 264.99 271.09 265.035 271.045C265.081 270.999 265.104 270.944 265.104 270.879V270.625C265.104 270.482 265.159 270.355 265.27 270.244C265.38 270.133 265.51 270.078 265.66 270.078ZM265.104 276.094V276.064C265.104 275.999 265.081 275.944 265.035 275.898C264.99 275.853 264.934 275.83 264.869 275.83C264.804 275.83 264.749 275.853 264.703 275.898C264.658 275.944 264.635 275.999 264.635 276.064V276.094C264.635 276.465 264.505 276.777 264.244 277.031C264.231 277.051 264.218 277.067 264.205 277.08C263.951 277.308 263.652 277.422 263.307 277.422H263.258C263.199 277.422 263.144 277.448 263.092 277.5C263.046 277.546 263.023 277.601 263.023 277.666C263.023 277.725 263.046 277.78 263.092 277.832C263.144 277.878 263.199 277.9 263.258 277.9H263.307V277.891C263.71 277.891 264.062 277.78 264.361 277.559C264.439 277.507 264.514 277.445 264.586 277.373C264.931 277.021 265.104 276.595 265.104 276.094ZM267.994 276.875H269.137V280H267.994C267.109 280 266.327 279.746 265.65 279.238C264.98 279.746 264.199 280 263.307 280H262.672C262.242 280 261.878 279.85 261.578 279.551C261.272 279.251 261.119 278.887 261.119 278.457V278.428C261.119 277.998 261.272 277.633 261.578 277.334C261.878 277.028 262.242 276.875 262.672 276.875H263.307C263.528 276.875 263.714 276.8 263.863 276.65C264.013 276.501 264.088 276.315 264.088 276.094V270.625C264.088 270.202 264.244 269.837 264.557 269.531C264.863 269.219 265.227 269.062 265.65 269.062C266.08 269.062 266.448 269.219 266.754 269.531C267.06 269.837 267.213 270.202 267.213 270.625V276.094C267.213 276.315 267.291 276.501 267.447 276.65C267.597 276.8 267.779 276.875 267.994 276.875ZM274.391 266.953C274.404 266.947 274.413 266.94 274.42 266.934L275.025 266.328C275.058 266.302 275.081 266.273 275.094 266.24C275.126 266.162 275.107 266.084 275.035 266.006C275.035 266.006 275.032 266.003 275.025 265.996C274.954 265.924 274.882 265.905 274.811 265.938C274.778 265.944 274.745 265.964 274.713 265.996L274.156 266.553C274.15 266.553 274.146 266.556 274.146 266.562C274.12 266.589 274.101 266.615 274.088 266.641C274.088 266.647 274.085 266.654 274.078 266.66C274.052 266.738 274.078 266.813 274.156 266.885C274.228 266.963 274.303 266.989 274.381 266.963C274.387 266.956 274.391 266.953 274.391 266.953ZM277.154 276.875H278.297V280H277.154C276.262 280 275.481 279.746 274.811 279.238C274.55 279.44 274.27 279.6 273.971 279.717C273.508 279.906 273.007 280 272.467 280H268.932C268.502 280 268.137 279.85 267.838 279.551C267.532 279.251 267.379 278.887 267.379 278.457V278.428C267.379 277.998 267.532 277.633 267.838 277.334C268.137 277.028 268.502 276.875 268.932 276.875H272.467C272.688 276.875 272.874 276.8 273.023 276.65C273.173 276.501 273.248 276.315 273.248 276.094V272.969C273.248 272.754 273.173 272.572 273.023 272.422C272.874 272.266 272.688 272.188 272.467 272.188C272.304 272.188 272.158 272.233 272.027 272.324C271.988 272.357 271.949 272.389 271.91 272.422C271.643 272.624 271.334 272.725 270.982 272.725C270.546 272.725 270.175 272.575 269.869 272.275C269.57 271.969 269.42 271.602 269.42 271.172C269.42 270.736 269.57 270.365 269.869 270.059L269.986 269.941L274.312 265.615C274.618 265.316 274.99 265.166 275.426 265.166C275.855 265.166 276.223 265.316 276.529 265.615C276.829 265.921 276.979 266.289 276.979 266.719C276.979 267.155 276.829 267.526 276.529 267.832L274.645 269.717C274.846 269.854 275.042 270.016 275.23 270.205C275.992 270.967 276.373 271.888 276.373 272.969V276.094C276.373 276.315 276.448 276.501 276.598 276.65C276.754 276.8 276.939 276.875 277.154 276.875ZM283.893 276.094V272.969C283.893 272.754 283.818 272.572 283.668 272.422C283.518 272.266 283.333 272.188 283.111 272.188C282.896 272.188 282.714 272.266 282.564 272.422C282.408 272.572 282.33 272.754 282.33 272.969V276.094C282.33 276.315 282.408 276.501 282.564 276.65C282.714 276.8 282.896 276.875 283.111 276.875C283.333 276.875 283.518 276.8 283.668 276.65C283.818 276.501 283.893 276.315 283.893 276.094ZM280.221 272.871C280.221 272.474 280.292 272.119 280.436 271.807C280.579 271.494 280.79 271.201 281.07 270.928C281.63 270.361 282.311 270.078 283.111 270.078C283.268 270.078 283.346 270 283.346 269.844C283.346 269.688 283.268 269.609 283.111 269.609C282.187 269.609 281.396 269.938 280.738 270.596C280.413 270.921 280.165 271.266 279.996 271.631C279.833 271.995 279.752 272.409 279.752 272.871V273.379C279.752 273.535 279.83 273.613 279.986 273.613C280.143 273.613 280.221 273.535 280.221 273.379V272.871ZM287.799 276.875H288.551V280H287.799C286.913 280 286.132 279.746 285.455 279.238C284.785 279.746 284.003 280 283.111 280C282.226 280 281.445 279.746 280.768 279.238C280.097 279.746 279.316 280 278.424 280H278.092C277.662 280 277.298 279.85 276.998 279.551C276.692 279.251 276.539 278.887 276.539 278.457V278.428C276.539 277.998 276.692 277.633 276.998 277.334C277.298 277.028 277.662 276.875 278.092 276.875H278.424C278.645 276.875 278.831 276.8 278.98 276.65C279.13 276.501 279.205 276.315 279.205 276.094V272.969C279.205 271.888 279.586 270.967 280.348 270.205C281.109 269.443 282.031 269.062 283.111 269.062C284.199 269.062 285.123 269.443 285.885 270.205C286.64 270.967 287.018 271.888 287.018 272.969V276.094C287.018 276.315 287.096 276.501 287.252 276.65C287.402 276.8 287.584 276.875 287.799 276.875ZM291.559 270.078C291.708 270.078 291.783 270 291.783 269.844C291.783 269.779 291.76 269.723 291.715 269.678C291.669 269.632 291.614 269.609 291.549 269.609C291.269 269.609 291.031 269.71 290.836 269.912C290.634 270.107 290.533 270.345 290.533 270.625V270.879C290.533 270.944 290.556 270.999 290.602 271.045C290.647 271.09 290.702 271.113 290.768 271.113H290.777C290.836 271.113 290.888 271.09 290.934 271.045C290.979 270.999 291.002 270.944 291.002 270.879V270.625C291.002 270.482 291.057 270.355 291.168 270.244C291.279 270.133 291.409 270.078 291.559 270.078ZM291.002 276.094V276.055C291.002 275.99 290.979 275.934 290.934 275.889C290.888 275.843 290.833 275.82 290.768 275.82C290.702 275.82 290.647 275.843 290.602 275.889C290.556 275.934 290.533 275.99 290.533 276.055V276.094C290.533 276.458 290.403 276.771 290.143 277.031C289.882 277.292 289.57 277.422 289.205 277.422H289.166C289.101 277.422 289.046 277.445 289 277.49C288.954 277.536 288.932 277.591 288.932 277.656C288.932 277.721 288.954 277.777 289 277.822C289.046 277.868 289.101 277.891 289.166 277.891H289.205C289.706 277.891 290.133 277.718 290.484 277.373C290.829 277.021 291.002 276.595 291.002 276.094ZM292.652 269.521C292.958 269.834 293.111 270.202 293.111 270.625V276.094C293.111 277.181 292.734 278.102 291.979 278.857C291.217 279.619 290.292 280 289.205 280H288.385C287.955 280 287.59 279.85 287.291 279.551C286.992 279.245 286.842 278.88 286.842 278.457V278.428C286.842 277.998 286.992 277.633 287.291 277.334C287.59 277.028 287.955 276.875 288.385 276.875H289.205C289.426 276.875 289.612 276.8 289.762 276.65C289.911 276.501 289.986 276.315 289.986 276.094V270.625C289.986 270.202 290.143 269.834 290.455 269.521C290.761 269.215 291.126 269.062 291.549 269.062C291.979 269.062 292.346 269.215 292.652 269.521ZM288.951 281.572C289.081 281.572 289.146 281.504 289.146 281.367C289.146 281.237 289.078 281.172 288.941 281.172C288.701 281.172 288.499 281.257 288.336 281.426C288.167 281.595 288.082 281.797 288.082 282.031C288.082 282.168 288.147 282.236 288.277 282.236C288.414 282.236 288.482 282.171 288.482 282.041C288.482 281.911 288.528 281.8 288.619 281.709C288.71 281.618 288.821 281.572 288.951 281.572ZM288.941 280.703C289.306 280.703 289.618 280.837 289.879 281.104C290.139 281.364 290.27 281.673 290.27 282.031C290.27 282.396 290.139 282.708 289.879 282.969C289.618 283.229 289.306 283.359 288.941 283.359C288.577 283.359 288.264 283.229 288.004 282.969C287.743 282.708 287.613 282.396 287.613 282.031C287.613 281.673 287.743 281.364 288.004 281.104C288.264 280.837 288.577 280.703 288.941 280.703ZM291.793 281.572C291.923 281.572 291.988 281.504 291.988 281.367C291.988 281.237 291.92 281.172 291.783 281.172C291.549 281.172 291.347 281.257 291.178 281.426C291.008 281.595 290.924 281.797 290.924 282.031C290.924 282.168 290.989 282.236 291.119 282.236C291.256 282.236 291.324 282.171 291.324 282.041C291.324 281.911 291.37 281.8 291.461 281.709C291.552 281.618 291.663 281.572 291.793 281.572ZM292.721 281.104C292.981 281.364 293.111 281.673 293.111 282.031C293.111 282.396 292.981 282.708 292.721 282.969C292.46 283.229 292.148 283.359 291.783 283.359C291.425 283.359 291.116 283.229 290.855 282.969C290.589 282.708 290.455 282.396 290.455 282.031C290.455 281.673 290.589 281.364 290.855 281.104C291.116 280.837 291.425 280.703 291.783 280.703C292.148 280.703 292.46 280.837 292.721 281.104Z" fill="#18171C"/>
<g clip-path="url(#clip0_5_1653)">
<path d="M294.568 91.7463H59.4097C56.2576 91.7463 53.6932 89.1809 53.6932 86.0272V5.71874C53.6932 2.56541 56.2576 0 59.4097 0H294.568C297.72 0 300.284 2.56541 300.284 5.71874V86.0272C300.284 89.1809 297.72 91.7463 294.568 91.7463ZM59.4097 0.681802C56.6335 0.681802 54.3748 2.94144 54.3748 5.71874V86.0272C54.3748 88.8047 56.6335 91.0645 59.4097 91.0645H294.568C297.344 91.0645 299.603 88.8047 299.603 86.0272V5.71874C299.603 2.94144 297.344 0.681802 294.568 0.681802H59.4097Z" fill="#3F3D56"/>
<path d="M317 187.685H27V188.259H317V187.685Z" fill="#E6E6E6"/>
<path d="M317 158.368H27V158.942H317V158.368Z" fill="#E6E6E6"/>
<path d="M159.161 94.6996C159.369 97.3177 160.889 99.3324 162.554 99.1996C164.219 99.0667 165.4 96.8368 165.192 94.2178C165.123 93.1705 164.804 92.155 164.262 91.2561L163.24 80.1743L158.052 80.7651L159.61 91.6271C159.218 92.6007 159.064 93.6543 159.161 94.6996Z" fill="#FFB6B6"/>
<path d="M152.964 42.9988C152.964 42.9988 157.813 40.4305 160.272 44.2685C162.731 48.1065 164.429 89.6155 164.429 89.6155L157.613 90.3435L156.321 61.0933L152.964 42.9988Z" fill="#E6E6E6"/>
<path d="M142.898 156.202L146.846 156.202L148.725 140.965L142.897 140.966L142.898 156.202Z" fill="#FFB6B6"/>
<path d="M156.426 156.112C156.549 156.32 156.614 156.988 156.614 157.229C156.614 157.97 156.014 158.57 155.274 158.57H143.046C142.541 158.57 142.131 158.16 142.131 157.655V157.146C142.131 157.146 141.526 155.615 142.772 153.728C142.772 153.728 144.32 155.206 146.633 152.892L147.315 151.656L152.252 155.268L154.988 155.605C155.587 155.679 156.118 155.594 156.426 156.112Z" fill="#2F2E41"/>
<path d="M165.748 155.548L169.573 154.57L167.623 139.343L161.977 140.786L165.748 155.548Z" fill="#FFB6B6"/>
<path d="M178.833 152.112C179.003 152.282 179.231 152.914 179.291 153.147C179.474 153.865 179.041 154.595 178.324 154.778L166.476 157.806C165.987 157.931 165.489 157.635 165.364 157.146L165.238 156.653C165.238 156.653 164.273 155.319 165.013 153.183C165.013 153.183 166.879 154.231 168.547 151.416L168.902 150.05L174.579 152.327L177.314 151.976C177.913 151.899 178.406 151.685 178.833 152.112Z" fill="#2F2E41"/>
<path d="M139.631 39.7235L139.444 38.3643L141.669 32.9276L147.783 32.248L149.103 40.0313L139.631 39.7235Z" fill="#FFB6B6"/>
<path opacity="0.1" d="M139.631 39.7235L139.444 38.3643L141.669 32.9276L147.783 32.248L149.103 40.0313L139.631 39.7235Z" fill="black"/>
<path d="M132.498 78.12L129.781 85.5955L131.819 89.673L142.009 148.797H148.783L147.443 96.4688L163.067 148.797H169.772L164.38 113.458L160.35 80.8384L157.906 79.3276L146.085 72.6833L132.498 78.12Z" fill="#2F2E41"/>
<path d="M149.821 83.2169L145.745 83.8965L140.31 70.9844H152.538L149.821 83.2169Z" fill="#E6E6E6"/>
<path d="M157.972 79.8189L149.821 83.2168L147.104 77.1006L145.745 83.8964L131.479 79.3024L133.517 70.9843L131.479 43.8009L138.673 39.003L139.631 38.3643L148.462 39.0438L149.237 39.4652L154.576 42.4418L155.935 64.868L157.972 79.8189Z" fill="#2F2E41"/>
<path d="M149.237 39.4652L145.405 55.6937L138.673 39.003L139.631 38.3643L148.462 39.0438L149.237 39.4652Z" fill="#E6E6E6"/>
<path d="M142.688 38.3643L141.329 40.7051L142.688 41.4853L142.009 55.7359L144.726 59.4314L147.443 53.9695L145.405 41.4853L146.085 38.3643H142.688Z" fill="#2F2E41"/>
<path d="M144.726 37.0051C148.29 37.0051 151.179 34.1146 151.179 30.5491C151.179 26.9835 148.29 24.093 144.726 24.093C141.162 24.093 138.273 26.9835 138.273 30.5491C138.273 34.1146 141.162 37.0051 144.726 37.0051Z" fill="#FFB6B6"/>
<path d="M140.602 31.1155L141.996 31.7243L142.605 28.0715C142.605 28.0715 145.039 26.8539 146.865 27.4627C148.69 28.0715 151.733 27.4627 151.733 27.4627C151.733 27.4627 151.733 21.3748 147.473 21.3748C143.213 21.3748 138.953 21.9836 138.953 23.8099C138.953 25.6363 137.128 27.4627 137.128 27.4627C137.128 27.4627 134.694 31.1155 137.128 33.5506C139.562 35.9858 140.779 35.9858 140.779 35.9858L140.602 31.1155Z" fill="#2F2E41"/>
<path d="M128.08 94.5086C128.009 97.134 129.306 99.2986 130.976 99.3434C132.646 99.3882 134.057 97.2964 134.127 94.67C134.17 93.6213 133.961 92.5776 133.517 91.6263L133.677 80.4985L128.455 80.535L128.853 91.5011C128.359 92.4275 128.094 93.4588 128.08 94.5086Z" fill="#FFB6B6"/>
<path d="M134.54 42.4291C134.54 42.4291 130.124 41.07 128.086 45.1475C126.048 49.225 128.766 90.6796 128.766 90.6796H135.62L133.801 61.4575L134.54 42.4291Z" fill="#E6E6E6"/>
<path d="M303.923 119.659L287.456 114.616C287.092 114.505 286.71 114.464 286.331 114.496L202.877 121.602C201.687 121.703 201.388 123.308 202.462 123.832L205.135 125.135H205.064V187.503H207.583V126.327L215.961 130.411C216.602 130.723 217.317 130.851 218.026 130.779L218.918 130.689V187.503H221.437V130.434L285.984 123.912V187.503H288.503V123.657L299.208 122.575V187.503H301.727V122.321L303.68 122.124C305.051 121.985 305.24 120.063 303.923 119.659Z" fill="#3F3D56"/>
<path d="M227.104 121.355C228.679 121.355 251.978 118.52 251.978 118.52L255.442 123.245L231.197 127.97L227.104 121.355Z" fill="white"/>
<path d="M252.676 185.081L248.628 185.073L246.729 169.45L252.704 169.46L252.676 185.081Z" fill="#A0616A"/>
<path d="M238.807 184.965C238.681 185.177 238.613 185.863 238.613 186.11C238.611 186.869 239.225 187.485 239.984 187.486L252.521 187.508C253.038 187.509 253.459 187.09 253.46 186.572L253.46 186.05C253.46 186.05 254.083 184.481 252.81 182.545C252.81 182.545 251.22 184.057 248.853 181.681L248.156 180.412L243.088 184.107L240.282 184.447C239.668 184.522 239.124 184.434 238.807 184.965Z" fill="#2F2E41"/>
<path d="M274.402 177.815L271.209 180.225L260.396 169.048L265.11 165.491L274.402 177.815Z" fill="#A0616A"/>
<path d="M263.406 186C263.433 186.243 263.788 186.823 263.935 187.018C264.387 187.617 265.238 187.736 265.837 187.285L275.727 179.82C276.135 179.512 276.217 178.931 275.909 178.523L275.598 178.111C275.598 178.111 275.154 176.503 272.996 175.738C272.996 175.738 272.645 177.877 269.363 177.418L268.057 176.834L266.267 182.77L264.259 184.713C263.82 185.138 263.339 185.393 263.406 186Z" fill="#2F2E41"/>
<path d="M265.942 97.0681C265.942 100.803 262.916 103.83 259.183 103.83C255.45 103.83 252.424 100.803 252.424 97.0681C252.424 93.3336 255.45 90.3062 259.183 90.3062C262.916 90.3062 265.942 93.3336 265.942 97.0681Z" fill="#A0616A"/>
<path d="M265.306 136.056C265.306 136.056 240.419 134.646 239.01 137.465C237.602 140.283 246.626 178.998 246.626 178.998L254.677 177.31L250.749 150.148C250.749 150.148 271.516 155.65 274.334 149.074C277.151 142.497 276.34 140.049 276.34 140.049L265.306 136.056Z" fill="#2F2E41"/>
<path d="M271.682 131.325C271.682 131.325 247.309 136.552 246.696 139.643C246.083 142.733 265.022 177.681 265.022 177.681L272.34 173.922L261.37 148.767C261.37 148.767 282.853 148.578 283.831 141.49C284.809 134.402 283.379 132.255 283.379 132.255L271.682 131.325Z" fill="#2F2E41"/>
<path d="M274.462 104.818H262.752L254.74 117.971C254.74 117.971 252.862 126.47 254.74 127.388C256.619 128.305 256.619 138.17 256.619 138.17L276.34 140.049C276.34 140.049 279.157 110.455 278.218 107.636C277.279 104.818 274.462 104.818 274.462 104.818Z" fill="#FFE00B"/>
<path d="M255.914 113.508L254.74 127.388L241.537 121.782L238.386 120.196C237.768 119.391 236.967 118.745 236.05 118.313C233.767 117.201 231.345 117.476 230.637 118.929C229.929 120.381 231.205 122.46 233.487 123.572C234.392 124.029 235.395 124.263 236.409 124.253L245.629 129.492L245.64 129.471L245.681 129.544L260.14 135.586L263.467 117.365L255.914 113.508Z" fill="#A0616A"/>
<path d="M254.506 98.0062C254.506 98.0062 247.462 98.9457 250.28 92.839C250.28 92.839 249.85 89.5285 251.943 89.3048C254.036 89.081 256.853 85.323 256.853 85.323C256.853 85.323 263.313 82.0348 266.657 85.323C270.001 88.6112 279.862 107.871 279.862 107.871L273.288 114.917C273.288 114.917 269.336 104.523 264.738 105.727C260.14 106.931 255.914 110.521 255.914 110.521C255.914 110.521 251.248 108.185 253.347 106.149C255.445 104.113 254.506 98.0062 254.506 98.0062Z" fill="#2F2E41"/>
<path d="M263.897 108.341C263.897 108.341 260.61 104.113 258.262 107.401C255.914 110.689 254.036 114.917 254.036 114.917L263.427 118.205L263.897 108.341Z" fill="#FFE00B"/>
<path d="M299.554 186.568L288.643 151.874L288.644 151.874H288.67L288.625 151.817L288.625 151.816L287.847 149.345L287.848 149.345C289.032 148.324 289.838 146.866 289.998 145.187L285.011 117.745C285.354 114.141 282.593 110.991 278.975 110.862L267.722 110.834C264.523 110.72 261.752 113.032 261.286 116.201L261.037 117.883L257.589 141.347C257.463 142.191 257.514 143.023 257.712 143.801L255.231 144.125L254.479 144.226L251.503 144.614L251.494 144.617L251.122 144.664H250.719V154.744H250.744V186.961C250.744 187.169 250.914 187.339 251.122 187.339C251.333 187.339 251.503 187.169 251.503 186.961V154.744H255.917L260.322 186.923C260.351 187.112 260.511 187.251 260.7 187.251C260.716 187.251 260.735 187.251 260.751 187.248C260.958 187.219 261.103 187.027 261.075 186.819L256.686 154.744H277.867C279.97 154.744 281.918 154.076 283.505 152.933L291.903 186.864C291.947 187.036 292.101 187.15 292.271 187.15C292.301 187.15 292.333 187.146 292.364 187.138C292.567 187.087 292.69 186.88 292.638 186.677L284.159 152.418C284.272 152.324 284.385 152.223 284.491 152.12L287.862 151.921L298.83 186.796C298.881 186.958 299.031 187.061 299.192 187.061C299.229 187.061 299.268 187.056 299.306 187.044C299.505 186.981 299.616 186.768 299.554 186.568ZM287.127 149.883C287.155 149.868 287.18 149.849 287.205 149.833L287.287 150.09L287.127 149.883Z" fill="#E6E6E6"/>
<path d="M85.463 127.761L92.806 123.089L95.7914 124.891L85.463 136.763V127.761Z" fill="#FFB6B6"/>
<path d="M75.4214 109.679C75.4214 109.679 70.5441 110.827 72.8393 117.428C75.1345 124.03 82.5939 137.806 84.8891 136.945C87.1844 136.084 87.4713 127.474 87.4713 127.474C87.4713 127.474 87.1844 127.761 86.0367 126.613C84.8891 125.465 84.8891 125.989 84.8891 124.722C84.8891 123.456 83.9505 122.517 83.9505 122.517L82.8808 120.298C82.8808 120.298 82.8808 109.966 78.5773 109.392C74.2738 108.818 75.4214 109.679 75.4214 109.679Z" fill="#E6E6E6"/>
<path d="M98.2084 124.582C100.113 122.677 100.704 120.178 99.5271 119.001C98.3507 117.824 95.8529 118.415 93.9482 120.32C92.0435 122.226 91.4531 124.724 92.6295 125.901C93.806 127.078 96.3037 126.488 98.2084 124.582Z" fill="#FFB6B6"/>
<path d="M56.4241 147.709L61.4347 156.006L90.6344 154.277L82.8593 144.252L56.4241 147.709Z" fill="#E6E6E6"/>
<path d="M65.1491 186.514C64.979 186.514 64.8308 186.388 64.8071 186.215L56.0818 122.464C56.0559 122.275 56.1882 122.1 56.3772 122.075C56.5662 122.047 56.7405 122.181 56.7665 122.37L65.4918 186.121C65.5177 186.31 65.3855 186.485 65.1964 186.51C65.1804 186.513 65.1647 186.514 65.1491 186.514Z" fill="#E6E6E6"/>
<path d="M56.4242 186.595C56.2333 186.595 56.0786 186.44 56.0786 186.249V122.429C56.0786 122.239 56.2333 122.084 56.4242 122.084C56.615 122.084 56.7697 122.239 56.7697 122.429V186.249C56.7697 186.44 56.615 186.595 56.4242 186.595Z" fill="#E6E6E6"/>
<path d="M100.224 186.341C100.077 186.341 99.9404 186.246 99.894 186.099L79.2469 120.447C79.1896 120.264 79.2908 120.07 79.4728 120.013C79.6548 119.956 79.8489 120.057 79.9061 120.239L100.553 185.891C100.611 186.073 100.509 186.267 100.327 186.325C100.293 186.336 100.258 186.341 100.224 186.341Z" fill="#E6E6E6"/>
<path d="M93.917 186.422C93.7626 186.422 93.6221 186.318 93.5823 186.161L79.2416 128.219C79.1946 128.034 79.3064 127.845 79.4913 127.798C79.6769 127.751 79.8644 127.863 79.9115 128.048L94.2521 185.991C94.2991 186.176 94.1873 186.364 94.0024 186.411C93.9738 186.418 93.9451 186.422 93.917 186.422Z" fill="#E6E6E6"/>
<path d="M56.4241 123.446L80.354 123.078L84.7599 148.227H56.7697L56.4241 123.446Z" fill="#E6E6E6"/>
<path d="M93.1984 160.427L87.1676 171.048L94.1698 172.591L97.0891 165.036L93.1984 160.427Z" fill="#FFB6B6"/>
<path d="M89.3338 169.043C89.3338 169.043 89.0994 167.311 87.7217 167.861C86.344 168.41 82.3679 170.453 82.3679 170.453C82.3679 170.453 92.7385 187.311 94.7067 186.526C96.6748 185.741 94.3188 180.975 94.3188 180.975L94.8388 172.552L89.3338 169.043Z" fill="#2F2E41"/>
<path d="M66.5274 139.816C66.5274 139.816 64.3757 149.718 70.9744 153.162C77.5731 156.606 100.095 148.139 100.095 148.139L89.7664 163.621L96.9389 166.508C96.9389 166.508 113.292 144.982 112.145 141.538C110.997 138.093 103.251 137.806 103.251 137.806L85.7498 138.668L81.1594 137.232L66.5274 139.816Z" fill="#2F2E41"/>
<path d="M84.2765 165.141L74.7956 172.839L80.7568 176.825L86.2239 170.851L84.2765 165.141Z" fill="#FFB6B6"/>
<path d="M77.5426 171.76C77.5426 171.76 77.9544 170.061 76.4712 170.072C74.988 170.082 70.5414 170.537 70.5414 170.537C70.5414 170.537 74.0693 190.015 76.1882 190C78.307 189.985 77.8458 184.689 77.8458 184.689L81.394 177.032L77.5426 171.76Z" fill="#2F2E41"/>
<path d="M66.9308 136.234C66.9308 136.234 61.3249 144.674 66.2184 150.284C71.112 155.894 95.1695 156.206 95.1695 156.206L79.9178 166.867L85.5484 172.167C85.5484 172.167 108.611 158.07 108.794 154.444C108.978 150.818 101.867 147.731 101.867 147.731L85.253 142.162L81.4993 139.154L66.9308 136.234Z" fill="#2F2E41"/>
<path d="M81.3322 116.685C81.3322 116.685 75.8811 114.676 73.299 114.676C73.0523 114.676 72.8084 114.704 72.5645 114.756C70.912 115.106 69.3914 116.527 68.6627 117.302C68.3786 117.606 68.2151 117.81 68.2151 117.81C68.2151 117.81 68.2323 117.612 68.2668 117.265C68.436 115.439 69.0615 109.449 70.1833 105.615C70.5849 104.246 71.0468 103.152 71.5776 102.621C72.8141 101.381 73.3851 99.8943 73.649 98.7865C73.8728 97.8364 73.8728 97.1677 73.8728 97.1677L71.7813 96.2664L71.394 93.7349C71.3251 94.0334 71.0067 94.6161 69.9365 95.7326C69.8447 95.8273 69.7443 95.9077 69.6381 95.9765C68.0946 96.9467 64.9473 95.259 63.2517 94.197C63.9575 91.743 65.2371 89.4985 67.561 89.1312C73.0121 88.2701 73.0121 85.1129 76.4549 88.5571C76.7389 88.8413 77.0258 89.114 77.3127 89.378C78.4144 91.4847 78.8161 94.309 78.9595 96.2722C79.0628 97.647 79.037 98.6028 79.037 98.6028C79.037 98.6028 80.4715 107.213 82.7667 108.935C85.0619 110.658 81.3322 116.685 81.3322 116.685Z" fill="#2F2E41"/>
<path d="M70.7169 102.908L66.8403 108.596L75.5942 110.944V102.908H70.7169Z" fill="#FFB6B6"/>
<path opacity="0.1" d="M70.7169 102.908L66.8403 108.596L75.5942 110.944V102.908H70.7169Z" fill="black"/>
<path d="M76.1386 108.387L67.8185 104.943C67.8185 104.943 56.6293 109.822 57.49 119.294C58.3507 128.765 66.384 145.125 66.384 145.125L82.4504 138.237L80.729 119.868L76.1386 108.387Z" fill="#E6E6E6"/>
<path d="M72.5713 105.448C76.6253 105.448 79.9117 102.16 79.9117 98.1043C79.9117 94.0487 76.6253 90.761 72.5713 90.761C68.5174 90.761 65.231 94.0487 65.231 98.1043C65.231 102.16 68.5174 105.448 72.5713 105.448Z" fill="#FFB6B6"/>
<path d="M82.4798 95.4456C81.0453 96.8807 79.8977 98.3158 79.8977 98.3158L79.3239 96.0196C79.3239 96.0196 79.1919 96.1172 78.9595 96.2722C78.05 96.8921 75.6085 98.4506 73.649 98.7865C72.7768 98.9357 72.0022 98.841 71.4972 98.3158C70.4271 97.1992 70.1086 96.6166 70.0398 96.3181L69.6524 98.8496L67.5609 99.7508C67.5609 99.7508 67.5609 102.902 69.8562 105.204C69.9681 105.316 70.0771 105.454 70.1832 105.615C71.2792 107.268 72.0653 111.315 72.5645 114.756C73.0063 117.816 73.2186 120.393 73.2186 120.393C73.2186 120.393 71.0468 117.672 68.6627 117.302C68.5307 117.282 68.3987 117.268 68.2667 117.265C68.2237 117.259 68.1778 117.259 68.1347 117.259C65.5526 117.259 60.1015 119.268 60.1015 119.268C60.1015 119.268 56.3718 113.241 58.667 111.519C60.9622 109.796 62.3967 101.186 62.3967 101.186C62.3967 101.186 62.302 97.5006 63.2517 94.197C63.9575 91.743 65.2371 89.4985 67.5609 89.1312C73.0121 88.2701 73.0121 85.1129 76.4549 88.5571C76.7389 88.8413 77.0258 89.114 77.3127 89.378C80.5203 92.3286 83.7967 94.1282 82.4798 95.4456Z" fill="#2F2E41"/>
<path d="M50.2856 133.974H47.5595V187.836H50.2856V133.974Z" fill="#3F3D56"/>
<path d="M116.393 133.974H113.667V187.836H116.393V133.974Z" fill="#3F3D56"/>
<path d="M99.0145 111.134H80.9542V129.201H99.0145V111.134Z" fill="#FFE00B"/>
<path d="M70.5441 130.344L77.8872 125.672L80.8725 127.474L70.5441 139.347V130.344Z" fill="#FFB6B6"/>
<path d="M60.5025 112.262C60.5025 112.262 55.6252 113.41 57.9204 120.011C60.2156 126.613 67.6751 140.39 69.9703 139.529C72.2655 138.668 72.5524 130.057 72.5524 130.057C72.5524 130.057 72.2655 130.344 71.1179 129.196C69.9703 128.048 69.9703 128.572 69.9703 127.306C69.9703 126.039 69.0316 125.1 69.0316 125.1L67.962 122.882C67.962 122.882 67.962 112.549 63.6584 111.975C59.3549 111.401 60.5025 112.262 60.5025 112.262Z" fill="#E6E6E6"/>
<path d="M83.2896 127.165C85.1943 125.26 85.7846 122.761 84.6082 121.584C83.4318 120.407 80.934 120.998 79.0293 122.903C77.1246 124.809 76.5342 127.308 77.7106 128.485C78.8871 129.661 81.3848 129.071 83.2896 127.165Z" fill="#FFB6B6"/>
<path d="M121.846 131.928H39.3812V138.065H121.846V131.928Z" fill="#3F3D56"/>
<path d="M205.629 82.8389H193.45C192.484 82.8389 191.702 83.6218 191.702 84.5877V89.6126C191.702 90.5784 192.484 91.3614 193.45 91.3614H205.629C206.594 91.3614 207.377 90.5784 207.377 89.6126V84.5877C207.377 83.6218 206.594 82.8389 205.629 82.8389Z" fill="#3F3D56"/>
<path d="M231.186 87.8638H219.007C218.042 87.8638 217.259 88.6467 217.259 89.6126V89.6126C217.259 90.5784 218.042 91.3614 219.007 91.3614H231.186C232.151 91.3614 232.934 90.5784 232.934 89.6126V89.6126C232.934 88.6467 232.151 87.8638 231.186 87.8638Z" fill="#FFE00B"/>
</g>
<defs>
<clipPath id="clip0_5_1653">
<rect width="290" height="190" fill="white" transform="translate(27)"/>
</clipPath>
</defs>
</svg>
