<svg width="343" height="285" viewBox="0 0 343 285" fill="none" xmlns="http://www.w3.org/2000/svg">
<path d="M63.4141 270.078C63.5638 270.078 63.6387 270 63.6387 269.844C63.6387 269.688 63.5605 269.609 63.4043 269.609C63.1243 269.609 62.8835 269.71 62.6816 269.912C62.4863 270.107 62.3887 270.345 62.3887 270.625V270.82C62.3887 270.885 62.4115 270.941 62.457 270.986C62.5026 271.032 62.5579 271.055 62.623 271.055C62.6882 271.055 62.7435 271.032 62.7891 270.986C62.8346 270.941 62.8574 270.885 62.8574 270.82V270.625C62.8574 270.482 62.9128 270.355 63.0234 270.244C63.1276 270.133 63.2578 270.078 63.4141 270.078ZM58.7266 270.078C58.8763 270.078 58.9512 270 58.9512 269.844C58.9512 269.688 58.873 269.609 58.7168 269.609C58.4368 269.609 58.196 269.71 57.9941 269.912C57.7988 270.107 57.7012 270.345 57.7012 270.625V270.986C57.7012 271.051 57.724 271.107 57.7695 271.152C57.8151 271.198 57.8704 271.221 57.9355 271.221C58.0007 271.221 58.056 271.198 58.1016 271.152C58.1471 271.107 58.1699 271.051 58.1699 270.986V270.625C58.1699 270.482 58.2253 270.355 58.3359 270.244C58.4401 270.133 58.5703 270.078 58.7266 270.078ZM65.748 276.875H66.7832V280H65.748C64.8561 280 64.0749 279.743 63.4043 279.229C62.7337 279.743 61.9525 280 61.0605 280C59.9733 280 59.0521 279.619 58.2969 278.857C57.5352 278.102 57.1543 277.181 57.1543 276.094V270.625C57.1543 270.202 57.3073 269.834 57.6133 269.521C57.9193 269.215 58.2871 269.062 58.7168 269.062C59.14 269.062 59.5078 269.215 59.8203 269.521C60.1263 269.834 60.2793 270.202 60.2793 270.625V276.094C60.2793 276.315 60.3542 276.501 60.5039 276.65C60.6536 276.8 60.8392 276.875 61.0605 276.875C61.2819 276.875 61.4674 276.8 61.6172 276.65C61.7669 276.501 61.8418 276.315 61.8418 276.094V270.625C61.8418 270.202 61.9948 269.834 62.3008 269.521C62.6068 269.215 62.9746 269.062 63.4043 269.062C63.8275 269.062 64.1953 269.215 64.5078 269.521C64.8138 269.834 64.9668 270.202 64.9668 270.625V276.094C64.9668 276.315 65.0417 276.501 65.1914 276.65C65.3411 276.8 65.5267 276.875 65.748 276.875ZM61.0703 281.572C61.194 281.572 61.2559 281.504 61.2559 281.367C61.2559 281.237 61.1908 281.172 61.0605 281.172C60.8197 281.172 60.6146 281.257 60.4453 281.426C60.276 281.595 60.1914 281.797 60.1914 282.031C60.1914 282.168 60.2598 282.236 60.3965 282.236C60.5267 282.236 60.5918 282.171 60.5918 282.041C60.5918 281.911 60.6406 281.8 60.7383 281.709C60.8294 281.618 60.9401 281.572 61.0703 281.572ZM62.3887 282.031C62.3887 282.396 62.2585 282.708 61.998 282.969C61.7376 283.229 61.4251 283.359 61.0605 283.359C60.696 283.359 60.3835 283.229 60.123 282.969C59.8626 282.708 59.7324 282.396 59.7324 282.031C59.7324 281.673 59.8626 281.364 60.123 281.104C60.3835 280.837 60.696 280.703 61.0605 280.703C61.4251 280.703 61.7376 280.837 61.998 281.104C62.2585 281.364 62.3887 281.673 62.3887 282.031ZM70.1621 267.041V266.719C70.1621 266.439 70.0645 266.201 69.8691 266.006C69.6738 265.804 69.4329 265.703 69.1465 265.703C68.9902 265.703 68.9121 265.781 68.9121 265.938C68.9121 266.094 68.9902 266.172 69.1465 266.172C69.2962 266.172 69.4264 266.227 69.5371 266.338C69.6413 266.449 69.6934 266.576 69.6934 266.719V267.041C69.6934 267.106 69.7161 267.161 69.7617 267.207C69.8073 267.253 69.8626 267.275 69.9277 267.275C69.9928 267.275 70.0482 267.253 70.0938 267.207C70.1393 267.161 70.1621 267.106 70.1621 267.041ZM70.25 265.615C70.556 265.928 70.709 266.296 70.709 266.719V276.094C70.709 277.181 70.3314 278.105 69.5762 278.867C68.8145 279.622 67.89 280 66.8027 280H66.5684C66.1387 280 65.7741 279.85 65.4746 279.551C65.1751 279.251 65.0254 278.887 65.0254 278.457V278.428C65.0254 277.998 65.1751 277.633 65.4746 277.334C65.7741 277.028 66.1387 276.875 66.5684 276.875H66.8027C67.0241 276.875 67.2096 276.8 67.3594 276.65C67.5091 276.501 67.584 276.315 67.584 276.094V266.719C67.584 266.296 67.7402 265.928 68.0527 265.615C68.3587 265.309 68.7233 265.156 69.1465 265.156C69.5762 265.156 69.944 265.309 70.25 265.615ZM72.6035 266.719V267.041C72.6035 267.106 72.6263 267.161 72.6719 267.207C72.7174 267.253 72.7728 267.275 72.8379 267.275C72.903 267.275 72.9583 267.253 73.0039 267.207C73.0495 267.161 73.0723 267.106 73.0723 267.041V266.719C73.0723 266.576 73.1309 266.449 73.248 266.338C73.3587 266.227 73.4889 266.172 73.6387 266.172C73.7884 266.172 73.8633 266.094 73.8633 265.938C73.8633 265.781 73.7852 265.703 73.6289 265.703C73.349 265.703 73.1081 265.804 72.9062 266.006C72.7044 266.201 72.6035 266.439 72.6035 266.719ZM75.9727 276.875H76.7051V280H75.9727C74.8919 280 73.9707 279.622 73.209 278.867C72.4538 278.105 72.0762 277.184 72.0762 276.104V266.719C72.0762 266.296 72.2292 265.931 72.5352 265.625C72.8411 265.312 73.2057 265.156 73.6289 265.156C74.0586 265.156 74.4264 265.312 74.7324 265.625C75.0449 265.931 75.2012 266.296 75.2012 266.719V276.104C75.2012 276.318 75.276 276.501 75.4258 276.65C75.5755 276.8 75.7578 276.875 75.9727 276.875ZM82.5352 276.094V272.969C82.5352 272.754 82.4603 272.572 82.3105 272.422C82.1543 272.266 81.9688 272.188 81.7539 272.188C81.5326 272.188 81.347 272.266 81.1973 272.422C81.0475 272.572 80.9727 272.754 80.9727 272.969V276.875H81.7539C81.9688 276.875 82.1543 276.8 82.3105 276.65C82.4603 276.501 82.5352 276.315 82.5352 276.094ZM79.4199 265.469C79.5697 265.469 79.6445 265.391 79.6445 265.234C79.6445 265.169 79.6217 265.114 79.5762 265.068C79.5306 265.023 79.4753 265 79.4102 265C79.1302 265 78.8893 265.101 78.6875 265.303C78.4987 265.492 78.401 265.719 78.3945 265.986C78.3945 265.999 78.3945 266.009 78.3945 266.016V266.348C78.3945 266.413 78.4173 266.468 78.4629 266.514C78.5085 266.559 78.5638 266.582 78.6289 266.582C78.694 266.582 78.7493 266.559 78.7949 266.514C78.8405 266.468 78.8633 266.413 78.8633 266.348V266.016C78.8633 265.872 78.9186 265.745 79.0293 265.635C79.1335 265.524 79.2637 265.469 79.4199 265.469ZM84.5176 270.205C85.2793 270.967 85.6602 271.888 85.6602 272.969V276.094C85.6602 277.181 85.2793 278.105 84.5176 278.867C84.127 279.258 83.694 279.548 83.2188 279.736C82.7695 279.912 82.2812 280 81.7539 280H76.4902C76.0671 280 75.7057 279.85 75.4062 279.551C75.1003 279.251 74.9473 278.887 74.9473 278.457V278.428C74.9473 277.998 75.1003 277.633 75.4062 277.334C75.7057 277.028 76.0671 276.875 76.4902 276.875H77.8477V266.016C77.8477 265.592 78.0007 265.225 78.3066 264.912C78.6126 264.606 78.9805 264.453 79.4102 264.453C79.8333 264.453 80.2012 264.606 80.5137 264.912C80.8197 265.225 80.9727 265.592 80.9727 266.016V269.141C81.2201 269.089 81.4805 269.062 81.7539 269.062C82.8346 269.062 83.7559 269.443 84.5176 270.205ZM95.25 266.182C95.3997 266.182 95.4746 266.104 95.4746 265.947C95.4746 265.882 95.4518 265.827 95.4062 265.781C95.3607 265.736 95.3053 265.713 95.2402 265.713C94.9603 265.713 94.7194 265.811 94.5176 266.006C94.3223 266.208 94.2246 266.449 94.2246 266.729V267.09C94.2246 267.148 94.2474 267.201 94.293 267.246C94.3385 267.292 94.3939 267.314 94.459 267.314C94.5241 267.314 94.5794 267.292 94.625 267.246C94.6706 267.201 94.6934 267.148 94.6934 267.09V266.729C94.6934 266.579 94.7487 266.452 94.8594 266.348C94.9635 266.237 95.0938 266.182 95.25 266.182ZM90.5625 273.887C90.7122 273.887 90.7871 273.809 90.7871 273.652C90.7871 273.496 90.709 273.418 90.5527 273.418C90.2728 273.418 90.0319 273.519 89.8301 273.721C89.6348 273.916 89.5371 274.154 89.5371 274.434V274.795C89.5371 274.951 89.6152 275.029 89.7715 275.029C89.9277 275.029 90.0059 274.951 90.0059 274.795V274.434C90.0059 274.29 90.0612 274.163 90.1719 274.053C90.276 273.942 90.4062 273.887 90.5625 273.887ZM97.584 276.875H98.7266V280H97.584C97.3105 280 97.0501 279.977 96.8027 279.932C96.7962 281.006 96.4154 281.921 95.6602 282.676C94.8984 283.431 93.9772 283.809 92.8965 283.809C91.8092 283.809 90.888 283.431 90.1328 282.676C89.3711 281.914 88.9902 280.99 88.9902 279.902V274.434C88.9902 274.01 89.1432 273.646 89.4492 273.34C89.7552 273.027 90.123 272.871 90.5527 272.871C90.9759 272.871 91.3438 273.027 91.6562 273.34C91.9622 273.646 92.1152 274.01 92.1152 274.434V279.902C92.1152 280.124 92.1901 280.309 92.3398 280.459C92.4896 280.609 92.6751 280.684 92.8965 280.684C93.1113 280.684 93.2969 280.609 93.4531 280.459C93.6029 280.309 93.6777 280.124 93.6777 279.902V266.729C93.6777 266.299 93.8307 265.931 94.1367 265.625C94.4427 265.319 94.8105 265.166 95.2402 265.166C95.6634 265.166 96.0312 265.319 96.3438 265.625C96.6497 265.931 96.8027 266.299 96.8027 266.729V276.094C96.8027 276.315 96.8776 276.501 97.0273 276.65C97.1771 276.8 97.3626 276.875 97.584 276.875ZM103.99 266.953C104.003 266.947 104.013 266.94 104.02 266.934L104.625 266.328C104.658 266.302 104.68 266.273 104.693 266.24C104.726 266.162 104.706 266.084 104.635 266.006C104.635 266.006 104.632 266.003 104.625 265.996C104.553 265.924 104.482 265.905 104.41 265.938C104.378 265.944 104.345 265.964 104.312 265.996L103.756 266.553C103.749 266.553 103.746 266.556 103.746 266.562C103.72 266.589 103.701 266.615 103.688 266.641C103.688 266.647 103.684 266.654 103.678 266.66C103.652 266.738 103.678 266.813 103.756 266.885C103.827 266.963 103.902 266.989 103.98 266.963C103.987 266.956 103.99 266.953 103.99 266.953ZM106.754 276.875H107.896V280H106.754C105.862 280 105.081 279.746 104.41 279.238C104.15 279.44 103.87 279.6 103.57 279.717C103.108 279.906 102.607 280 102.066 280H98.5312C98.1016 280 97.737 279.85 97.4375 279.551C97.1315 279.251 96.9785 278.887 96.9785 278.457V278.428C96.9785 277.998 97.1315 277.633 97.4375 277.334C97.737 277.028 98.1016 276.875 98.5312 276.875H102.066C102.288 276.875 102.473 276.8 102.623 276.65C102.773 276.501 102.848 276.315 102.848 276.094V272.969C102.848 272.754 102.773 272.572 102.623 272.422C102.473 272.266 102.288 272.188 102.066 272.188C101.904 272.188 101.757 272.233 101.627 272.324C101.588 272.357 101.549 272.389 101.51 272.422C101.243 272.624 100.934 272.725 100.582 272.725C100.146 272.725 99.7747 272.575 99.4688 272.275C99.1693 271.969 99.0195 271.602 99.0195 271.172C99.0195 270.736 99.1693 270.365 99.4688 270.059L99.5859 269.941L103.912 265.615C104.218 265.316 104.589 265.166 105.025 265.166C105.455 265.166 105.823 265.316 106.129 265.615C106.428 265.921 106.578 266.289 106.578 266.719C106.578 267.155 106.428 267.526 106.129 267.832L104.244 269.717C104.446 269.854 104.641 270.016 104.83 270.205C105.592 270.967 105.973 271.888 105.973 272.969V276.094C105.973 276.315 106.048 276.501 106.197 276.65C106.354 276.8 106.539 276.875 106.754 276.875ZM111.275 267.041V266.719C111.275 266.439 111.178 266.201 110.982 266.006C110.787 265.804 110.546 265.703 110.26 265.703C110.104 265.703 110.025 265.781 110.025 265.938C110.025 266.094 110.104 266.172 110.26 266.172C110.41 266.172 110.54 266.227 110.65 266.338C110.755 266.449 110.807 266.576 110.807 266.719V267.041C110.807 267.106 110.829 267.161 110.875 267.207C110.921 267.253 110.976 267.275 111.041 267.275C111.106 267.275 111.161 267.253 111.207 267.207C111.253 267.161 111.275 267.106 111.275 267.041ZM111.363 265.615C111.669 265.928 111.822 266.296 111.822 266.719V276.094C111.822 277.181 111.445 278.105 110.689 278.867C109.928 279.622 109.003 280 107.916 280H107.682C107.252 280 106.887 279.85 106.588 279.551C106.288 279.251 106.139 278.887 106.139 278.457V278.428C106.139 277.998 106.288 277.633 106.588 277.334C106.887 277.028 107.252 276.875 107.682 276.875H107.916C108.137 276.875 108.323 276.8 108.473 276.65C108.622 276.501 108.697 276.315 108.697 276.094V266.719C108.697 266.296 108.854 265.928 109.166 265.615C109.472 265.309 109.837 265.156 110.26 265.156C110.689 265.156 111.057 265.309 111.363 265.615ZM121.402 270.078C121.552 270.078 121.627 270 121.627 269.844C121.627 269.779 121.604 269.723 121.559 269.678C121.513 269.632 121.458 269.609 121.393 269.609C121.113 269.609 120.875 269.707 120.68 269.902C120.478 270.104 120.377 270.345 120.377 270.625V270.986C120.377 271.051 120.4 271.107 120.445 271.152C120.491 271.198 120.546 271.221 120.611 271.221C120.676 271.221 120.732 271.198 120.777 271.152C120.823 271.107 120.846 271.051 120.846 270.986V270.625C120.846 270.482 120.901 270.355 121.012 270.244C121.122 270.133 121.253 270.078 121.402 270.078ZM116.715 270.078C116.865 270.078 116.939 270 116.939 269.844C116.939 269.688 116.861 269.609 116.705 269.609C116.425 269.609 116.188 269.707 115.992 269.902C115.79 270.104 115.689 270.345 115.689 270.625V270.986C115.689 271.143 115.768 271.221 115.924 271.221C116.08 271.221 116.158 271.143 116.158 270.986V270.625C116.158 270.482 116.214 270.355 116.324 270.244C116.435 270.133 116.565 270.078 116.715 270.078ZM122.496 269.521C122.802 269.827 122.955 270.195 122.955 270.625V276.094C122.955 277.174 122.574 278.096 121.812 278.857C121.051 279.619 120.13 280 119.049 280C117.968 280 117.047 279.619 116.285 278.857C115.523 278.096 115.143 277.174 115.143 276.094V270.625C115.143 270.195 115.296 269.827 115.602 269.521C115.908 269.215 116.275 269.062 116.705 269.062C117.135 269.062 117.503 269.215 117.809 269.521C118.115 269.827 118.268 270.195 118.268 270.625V276.094C118.268 276.315 118.342 276.501 118.492 276.65C118.648 276.8 118.834 276.875 119.049 276.875C119.27 276.875 119.456 276.8 119.605 276.65C119.755 276.501 119.83 276.315 119.83 276.094V270.625C119.83 270.195 119.983 269.827 120.289 269.521C120.595 269.215 120.963 269.062 121.393 269.062C121.822 269.062 122.19 269.215 122.496 269.521ZM118.443 281.426C118.274 281.595 118.189 281.797 118.189 282.031C118.189 282.168 118.255 282.236 118.385 282.236C118.521 282.236 118.587 282.171 118.58 282.041C118.58 281.911 118.629 281.8 118.727 281.709C118.818 281.618 118.928 281.572 119.059 281.572C119.182 281.572 119.244 281.504 119.244 281.367C119.244 281.237 119.179 281.172 119.049 281.172C118.808 281.172 118.606 281.257 118.443 281.426ZM119.049 283.359C118.684 283.359 118.372 283.229 118.111 282.969C117.851 282.708 117.721 282.396 117.721 282.031C117.721 281.673 117.851 281.361 118.111 281.094C118.372 280.833 118.684 280.703 119.049 280.703C119.413 280.703 119.726 280.833 119.986 281.094C120.247 281.361 120.377 281.673 120.377 282.031C120.377 282.396 120.247 282.708 119.986 282.969C119.726 283.229 119.413 283.359 119.049 283.359ZM124.85 266.719V267.041C124.85 267.106 124.872 267.161 124.918 267.207C124.964 267.253 125.019 267.275 125.084 267.275C125.149 267.275 125.204 267.253 125.25 267.207C125.296 267.161 125.318 267.106 125.318 267.041V266.719C125.318 266.576 125.377 266.449 125.494 266.338C125.605 266.227 125.735 266.172 125.885 266.172C126.035 266.172 126.109 266.094 126.109 265.938C126.109 265.781 126.031 265.703 125.875 265.703C125.595 265.703 125.354 265.804 125.152 266.006C124.951 266.201 124.85 266.439 124.85 266.719ZM128.219 276.875H128.951V280H128.219C127.138 280 126.217 279.622 125.455 278.867C124.7 278.105 124.322 277.184 124.322 276.104V266.719C124.322 266.296 124.475 265.931 124.781 265.625C125.087 265.312 125.452 265.156 125.875 265.156C126.305 265.156 126.673 265.312 126.979 265.625C127.291 265.931 127.447 266.296 127.447 266.719V276.104C127.447 276.318 127.522 276.501 127.672 276.65C127.822 276.8 128.004 276.875 128.219 276.875ZM130.699 281.572C130.829 281.572 130.895 281.504 130.895 281.367C130.895 281.237 130.829 281.172 130.699 281.172C130.458 281.172 130.253 281.257 130.084 281.426C129.915 281.595 129.83 281.797 129.83 282.031C129.83 282.168 129.898 282.236 130.035 282.236C130.165 282.236 130.23 282.171 130.23 282.041C130.23 281.911 130.276 281.8 130.367 281.709C130.465 281.618 130.576 281.572 130.699 281.572ZM130.699 280.703C131.057 280.703 131.37 280.837 131.637 281.104C131.897 281.364 132.027 281.673 132.027 282.031C132.027 282.396 131.897 282.708 131.637 282.969C131.37 283.229 131.057 283.359 130.699 283.359C130.335 283.359 130.022 283.229 129.762 282.969C129.501 282.708 129.371 282.396 129.371 282.031C129.371 281.673 129.501 281.364 129.762 281.104C130.022 280.837 130.335 280.703 130.699 280.703ZM133.551 281.572C133.674 281.572 133.736 281.504 133.736 281.367C133.736 281.237 133.671 281.172 133.541 281.172C133.3 281.172 133.095 281.257 132.926 281.426C132.763 281.595 132.682 281.797 132.682 282.031C132.682 282.168 132.747 282.236 132.877 282.236C133.007 282.236 133.072 282.171 133.072 282.041C133.072 281.911 133.121 281.8 133.219 281.709C133.31 281.618 133.421 281.572 133.551 281.572ZM134.479 281.104C134.739 281.364 134.869 281.673 134.869 282.031C134.869 282.396 134.739 282.708 134.479 282.969C134.218 283.229 133.906 283.359 133.541 283.359C133.176 283.359 132.864 283.229 132.604 282.969C132.343 282.708 132.213 282.396 132.213 282.031C132.213 281.673 132.343 281.364 132.604 281.104C132.864 280.837 133.176 280.703 133.541 280.703C133.906 280.703 134.218 280.837 134.479 281.104ZM132.125 270.078C132.275 270.078 132.35 270 132.35 269.844C132.35 269.779 132.327 269.723 132.281 269.678C132.236 269.632 132.18 269.609 132.115 269.609C131.835 269.609 131.598 269.71 131.402 269.912C131.201 270.107 131.1 270.345 131.1 270.625V270.879C131.1 270.944 131.122 270.999 131.168 271.045C131.214 271.09 131.269 271.113 131.334 271.113H131.344C131.402 271.113 131.454 271.09 131.5 271.045C131.546 270.999 131.568 270.944 131.568 270.879V270.625C131.568 270.482 131.624 270.355 131.734 270.244C131.845 270.133 131.975 270.078 132.125 270.078ZM131.568 276.094V276.055C131.568 275.99 131.546 275.934 131.5 275.889C131.454 275.843 131.399 275.82 131.334 275.82C131.269 275.82 131.214 275.843 131.168 275.889C131.122 275.934 131.1 275.99 131.1 276.055V276.094C131.1 276.458 130.969 276.771 130.709 277.031C130.696 277.044 130.683 277.057 130.67 277.07C130.416 277.305 130.117 277.422 129.771 277.422H129.723C129.664 277.422 129.609 277.445 129.557 277.49C129.511 277.536 129.488 277.591 129.488 277.656C129.488 277.721 129.511 277.777 129.557 277.822C129.609 277.868 129.664 277.891 129.723 277.891H129.771C130.175 277.891 130.527 277.78 130.826 277.559C130.904 277.507 130.979 277.445 131.051 277.373C131.396 277.021 131.568 276.595 131.568 276.094ZM134.459 276.875H135.699V280H134.459C133.574 280 132.792 279.743 132.115 279.229C131.445 279.743 130.663 280 129.771 280H128.551C128.121 280 127.757 279.85 127.457 279.551C127.151 279.245 126.998 278.88 126.998 278.457V278.428C126.998 277.998 127.151 277.633 127.457 277.334C127.757 277.028 128.121 276.875 128.551 276.875H129.771C129.993 276.875 130.178 276.8 130.328 276.65C130.478 276.501 130.553 276.315 130.553 276.094V270.625C130.553 270.202 130.709 269.834 131.021 269.521C131.327 269.215 131.692 269.062 132.115 269.062C132.545 269.062 132.913 269.215 133.219 269.521C133.525 269.834 133.678 270.202 133.678 270.625V276.094C133.678 276.315 133.756 276.501 133.912 276.65C134.062 276.8 134.244 276.875 134.459 276.875ZM142.252 267.158C142.382 267.158 142.447 267.09 142.447 266.953C142.447 266.719 142.363 266.517 142.193 266.348C142.024 266.178 141.822 266.094 141.588 266.094C141.451 266.094 141.383 266.159 141.383 266.289C141.383 266.426 141.448 266.494 141.578 266.494C141.708 266.494 141.819 266.54 141.91 266.631C142.001 266.722 142.047 266.833 142.047 266.963C142.047 267.093 142.115 267.158 142.252 267.158ZM142.516 266.025C142.783 266.286 142.916 266.595 142.916 266.953C142.916 267.318 142.783 267.63 142.516 267.891C142.255 268.151 141.946 268.281 141.588 268.281C141.223 268.281 140.911 268.151 140.65 267.891C140.39 267.63 140.26 267.318 140.26 266.953C140.26 266.595 140.39 266.286 140.65 266.025C140.911 265.758 141.223 265.625 141.588 265.625C141.946 265.625 142.255 265.758 142.516 266.025ZM141.217 270.088C142.024 270.088 142.708 270.371 143.268 270.938C143.827 271.497 144.107 272.178 144.107 272.979V273.77C144.107 273.926 144.186 274.004 144.342 274.004C144.498 274.004 144.576 273.926 144.576 273.77V272.979C144.576 272.054 144.251 271.263 143.6 270.605C142.942 269.948 142.148 269.619 141.217 269.619C141.061 269.619 140.982 269.697 140.982 269.854C140.982 270.01 141.061 270.088 141.217 270.088ZM143.072 277.422C142.916 277.422 142.838 277.503 142.838 277.666C142.838 277.796 142.887 277.871 142.984 277.891H143.561C143.71 277.891 143.84 277.946 143.951 278.057C144.055 278.167 144.107 278.298 144.107 278.447C144.107 278.597 144.186 278.672 144.342 278.672C144.498 278.672 144.576 278.594 144.576 278.438C144.576 278.158 144.479 277.92 144.283 277.725C144.088 277.523 143.847 277.422 143.561 277.422H143.072ZM142.467 274.863C142.154 274.557 141.998 274.193 141.998 273.77V272.979C141.998 272.764 141.923 272.578 141.773 272.422C141.624 272.272 141.438 272.197 141.217 272.197C141.002 272.197 140.82 272.272 140.67 272.422C140.514 272.578 140.436 272.764 140.436 272.979V276.104C140.436 276.325 140.514 276.51 140.67 276.66C140.787 276.784 140.927 276.855 141.09 276.875H143.561C143.99 276.875 144.358 277.031 144.664 277.344C144.97 277.65 145.123 278.014 145.123 278.438C145.123 278.867 144.97 279.235 144.664 279.541C144.358 279.847 143.99 280 143.561 280H135.992C135.562 280 135.198 279.85 134.898 279.551C134.592 279.251 134.439 278.887 134.439 278.457V278.428C134.439 277.998 134.592 277.633 134.898 277.334C135.198 277.028 135.562 276.875 135.992 276.875H137.311V272.979C137.311 271.898 137.691 270.977 138.453 270.215C139.215 269.453 140.136 269.072 141.217 269.072C142.304 269.072 143.229 269.453 143.99 270.215C144.745 270.977 145.123 271.898 145.123 272.979V273.77C145.123 274.193 144.97 274.557 144.664 274.863C144.358 275.176 143.99 275.332 143.561 275.332C143.137 275.332 142.773 275.176 142.467 274.863ZM150.396 276.875H151.178V272.969C151.178 272.747 151.1 272.562 150.943 272.412C150.794 272.262 150.611 272.188 150.396 272.188C150.175 272.188 149.99 272.262 149.84 272.412C149.69 272.562 149.615 272.747 149.615 272.969V276.094C149.615 276.309 149.69 276.491 149.84 276.641C149.99 276.797 150.175 276.875 150.396 276.875ZM147.506 272.861C147.506 272.464 147.574 272.113 147.711 271.807C147.854 271.494 148.066 271.198 148.346 270.918C148.906 270.358 149.589 270.078 150.396 270.078C150.553 270.078 150.631 270 150.631 269.844C150.631 269.688 150.553 269.609 150.396 269.609C149.465 269.609 148.671 269.935 148.014 270.586C147.688 270.911 147.444 271.257 147.281 271.621C147.118 271.986 147.037 272.399 147.037 272.861V273.369C147.037 273.525 147.115 273.604 147.271 273.604C147.428 273.604 147.506 273.525 147.506 273.369V272.861ZM154.293 280C154.273 281.035 153.896 281.921 153.16 282.656C152.398 283.411 151.477 283.789 150.396 283.789H149.869C149.439 283.789 149.072 283.639 148.766 283.34C148.466 283.04 148.316 282.676 148.316 282.246V282.217C148.316 281.787 148.466 281.419 148.766 281.113C149.072 280.814 149.439 280.664 149.869 280.664H150.396C150.611 280.664 150.794 280.589 150.943 280.439C151.074 280.316 151.148 280.169 151.168 280H150.396C149.309 280 148.385 279.619 147.623 278.857C146.868 278.096 146.49 277.174 146.49 276.094V272.969C146.49 271.882 146.868 270.957 147.623 270.195C148.385 269.44 149.309 269.062 150.396 269.062C151.477 269.062 152.398 269.44 153.16 270.195C153.922 270.957 154.303 271.882 154.303 272.969L154.293 280ZM160.348 270.615V270.869C160.348 270.934 160.37 270.99 160.416 271.035C160.462 271.074 160.517 271.094 160.582 271.094C160.647 271.094 160.702 271.074 160.748 271.035C160.794 270.99 160.816 270.934 160.816 270.869V270.615C160.816 270.472 160.872 270.345 160.982 270.234C161.093 270.124 161.223 270.068 161.373 270.068C161.523 270.068 161.598 269.99 161.598 269.834C161.598 269.775 161.575 269.723 161.529 269.678C161.484 269.632 161.428 269.606 161.363 269.6C161.083 269.6 160.842 269.701 160.641 269.902C160.445 270.098 160.348 270.335 160.348 270.615ZM160.816 279.893V279.854C160.816 279.788 160.794 279.733 160.748 279.688C160.702 279.642 160.647 279.619 160.582 279.619C160.517 279.619 160.462 279.642 160.416 279.688C160.37 279.733 160.348 279.788 160.348 279.854V279.893C160.348 280.257 160.217 280.57 159.957 280.83C159.697 281.09 159.384 281.221 159.02 281.221H158.785C158.72 281.221 158.665 281.243 158.619 281.289C158.574 281.335 158.551 281.39 158.551 281.455C158.551 281.52 158.574 281.576 158.619 281.621C158.665 281.667 158.72 281.689 158.785 281.689H159.039C159.534 281.689 159.954 281.514 160.299 281.162C160.644 280.817 160.816 280.394 160.816 279.893ZM162.477 269.521C162.789 269.827 162.945 270.192 162.945 270.615V279.893C162.945 279.899 162.942 279.906 162.936 279.912C162.936 279.919 162.936 279.925 162.936 279.932C162.923 280.999 162.538 281.911 161.783 282.666C161.021 283.428 160.1 283.809 159.02 283.809H158.492C158.069 283.809 157.704 283.656 157.398 283.35C157.092 283.044 156.939 282.679 156.939 282.256V282.217C156.939 281.794 157.092 281.432 157.398 281.133C157.704 280.833 158.069 280.684 158.492 280.684H159.02C159.241 280.684 159.43 280.609 159.586 280.459C159.742 280.303 159.82 280.114 159.82 279.893V270.615C159.82 270.192 159.97 269.827 160.27 269.521C160.576 269.209 160.94 269.053 161.363 269.053C161.793 269.053 162.164 269.209 162.477 269.521ZM168.209 276.875H168.99V272.969C168.99 272.747 168.912 272.562 168.756 272.412C168.606 272.262 168.424 272.188 168.209 272.188C167.988 272.188 167.802 272.262 167.652 272.412C167.503 272.562 167.428 272.747 167.428 272.969V276.094C167.428 276.309 167.503 276.491 167.652 276.641C167.802 276.797 167.988 276.875 168.209 276.875ZM165.318 272.861C165.318 272.464 165.387 272.113 165.523 271.807C165.667 271.494 165.878 271.198 166.158 270.918C166.718 270.358 167.402 270.078 168.209 270.078C168.365 270.078 168.443 270 168.443 269.844C168.443 269.688 168.365 269.609 168.209 269.609C167.278 269.609 166.484 269.935 165.826 270.586C165.501 270.911 165.257 271.257 165.094 271.621C164.931 271.986 164.85 272.399 164.85 272.861V273.369C164.85 273.525 164.928 273.604 165.084 273.604C165.24 273.604 165.318 273.525 165.318 273.369V272.861ZM172.115 276.875H173.824V280H172.105C172.086 281.035 171.708 281.921 170.973 282.656C170.211 283.411 169.29 283.789 168.209 283.789H167.682C167.252 283.789 166.884 283.639 166.578 283.34C166.279 283.04 166.129 282.676 166.129 282.246V282.217C166.129 281.787 166.279 281.419 166.578 281.113C166.884 280.814 167.252 280.664 167.682 280.664H168.209C168.424 280.664 168.606 280.589 168.756 280.439C168.886 280.316 168.961 280.169 168.98 280H168.209C167.122 280 166.197 279.619 165.436 278.857C164.68 278.096 164.303 277.174 164.303 276.094V272.969C164.303 271.882 164.68 270.957 165.436 270.195C166.197 269.44 167.122 269.062 168.209 269.062C169.29 269.062 170.211 269.44 170.973 270.195C171.734 270.957 172.115 271.882 172.115 272.969V276.875ZM179.664 276.094V272.969C179.664 272.754 179.589 272.572 179.439 272.422C179.283 272.266 179.098 272.188 178.883 272.188C178.661 272.188 178.476 272.266 178.326 272.422C178.176 272.572 178.102 272.754 178.102 272.969V276.875H178.883C179.098 276.875 179.283 276.8 179.439 276.65C179.589 276.501 179.664 276.315 179.664 276.094ZM176.549 268.574C176.699 268.574 176.773 268.496 176.773 268.34C176.773 268.281 176.751 268.229 176.705 268.184C176.66 268.132 176.604 268.105 176.539 268.105C176.253 268.112 176.012 268.213 175.816 268.408C175.628 268.597 175.53 268.825 175.523 269.092V269.102C175.523 269.108 175.523 269.115 175.523 269.121V269.463C175.523 269.521 175.546 269.574 175.592 269.619C175.637 269.665 175.689 269.688 175.748 269.688H175.758C175.823 269.688 175.878 269.665 175.924 269.619C175.969 269.574 175.992 269.521 175.992 269.463V269.121C175.992 268.978 176.048 268.851 176.158 268.74C176.262 268.63 176.393 268.574 176.549 268.574ZM183.57 276.875H184.615V280H183.57C182.678 280 181.897 279.746 181.227 279.238C180.953 279.447 180.66 279.613 180.348 279.736C179.898 279.912 179.41 280 178.883 280H173.619C173.196 280 172.835 279.85 172.535 279.551C172.229 279.251 172.076 278.887 172.076 278.457V278.428C172.076 277.998 172.229 277.633 172.535 277.334C172.835 277.028 173.196 276.875 173.619 276.875H174.977V269.121C174.977 268.698 175.13 268.333 175.436 268.027C175.742 267.715 176.109 267.559 176.539 267.559C176.962 267.559 177.33 267.715 177.643 268.027C177.949 268.333 178.102 268.698 178.102 269.121V269.141C178.349 269.089 178.609 269.062 178.883 269.062C179.964 269.062 180.885 269.443 181.646 270.205C182.408 270.967 182.789 271.888 182.789 272.969V276.094C182.789 276.315 182.864 276.501 183.014 276.65C183.163 276.8 183.349 276.875 183.57 276.875ZM180.133 266.523C180.263 266.523 180.328 266.455 180.328 266.318C180.328 266.188 180.263 266.123 180.133 266.123C179.892 266.123 179.687 266.208 179.518 266.377C179.348 266.54 179.264 266.742 179.264 266.982C179.264 267.119 179.332 267.188 179.469 267.188C179.599 267.188 179.664 267.122 179.664 266.992C179.664 266.862 179.71 266.751 179.801 266.66C179.898 266.569 180.009 266.523 180.133 266.523ZM181.07 266.045C181.331 266.305 181.461 266.618 181.461 266.982C181.461 267.347 181.331 267.66 181.07 267.92C180.803 268.18 180.491 268.311 180.133 268.311C179.768 268.311 179.456 268.18 179.195 267.92C178.935 267.66 178.805 267.347 178.805 266.982C178.805 266.618 178.935 266.305 179.195 266.045C179.456 265.785 179.768 265.654 180.133 265.654C180.491 265.654 180.803 265.785 181.07 266.045ZM189.664 270.068C189.82 270.068 189.898 269.99 189.898 269.834C189.898 269.678 189.82 269.6 189.664 269.6C188.74 269.6 187.949 269.928 187.291 270.586C186.633 271.243 186.305 272.035 186.305 272.959V273.75C186.305 273.906 186.383 273.984 186.539 273.984C186.695 273.984 186.773 273.906 186.773 273.75V272.959C186.773 272.158 187.057 271.478 187.623 270.918C188.183 270.352 188.863 270.068 189.664 270.068ZM192.438 270.195C193.193 270.957 193.57 271.878 193.57 272.959V278.125C193.57 278.639 193.388 279.082 193.023 279.453C192.659 279.818 192.216 280 191.695 280H184.449C184.02 280 183.655 279.85 183.355 279.551C183.056 279.245 182.906 278.877 182.906 278.447V278.418C182.906 277.988 183.056 277.624 183.355 277.324C183.655 277.025 184.02 276.875 184.449 276.875H190.445V272.959C190.445 272.744 190.37 272.559 190.221 272.402C190.071 272.253 189.885 272.178 189.664 272.178C189.449 272.178 189.267 272.253 189.117 272.402C188.961 272.559 188.883 272.744 188.883 272.959V273.75C188.883 274.173 188.73 274.538 188.424 274.844C188.118 275.156 187.75 275.312 187.32 275.312C186.897 275.312 186.533 275.156 186.227 274.844C185.914 274.538 185.758 274.173 185.758 273.75V272.959C185.758 271.878 186.139 270.957 186.9 270.195C187.662 269.434 188.583 269.053 189.664 269.053C190.751 269.053 191.676 269.434 192.438 270.195ZM203.541 275.02V276.104C203.541 276.104 203.541 276.1 203.541 276.094V275.02ZM203.541 276.094V272.969C203.541 272.754 203.466 272.572 203.316 272.422C203.16 272.266 202.975 272.188 202.76 272.188C202.538 272.188 202.353 272.266 202.203 272.422C202.053 272.572 201.979 272.754 201.979 272.969V276.094C201.979 276.315 202.053 276.501 202.203 276.65C202.353 276.8 202.538 276.875 202.76 276.875C202.975 276.875 203.16 276.8 203.316 276.65C203.46 276.501 203.535 276.318 203.541 276.104C203.541 276.104 203.541 276.1 203.541 276.094ZM199.869 272.871C199.869 272.474 199.938 272.119 200.074 271.807C200.217 271.494 200.429 271.201 200.709 270.928C201.275 270.361 201.959 270.078 202.76 270.078C202.916 270.078 202.994 270 202.994 269.844C202.994 269.688 202.916 269.609 202.76 269.609C201.829 269.609 201.038 269.938 200.387 270.596C200.055 270.921 199.807 271.266 199.645 271.631C199.482 271.995 199.4 272.409 199.4 272.871V273.379C199.4 273.535 199.479 273.613 199.635 273.613C199.791 273.613 199.869 273.535 199.869 273.379V272.871ZM207.447 276.875H208.199V280H207.447C206.555 280 205.774 279.746 205.104 279.238C204.433 279.746 203.652 280 202.76 280C201.673 280 200.751 279.622 199.996 278.867C199.234 278.105 198.854 277.181 198.854 276.094V272.969C198.854 271.888 199.234 270.967 199.996 270.205C200.751 269.443 201.673 269.062 202.76 269.062C203.84 269.062 204.762 269.443 205.523 270.205C206.285 270.967 206.666 271.888 206.666 272.969V276.104C206.666 276.318 206.741 276.501 206.891 276.65C207.04 276.8 207.226 276.875 207.447 276.875ZM201.344 266.494C201.474 266.494 201.539 266.426 201.539 266.289C201.539 266.159 201.471 266.094 201.334 266.094C201.093 266.094 200.891 266.178 200.729 266.348C200.559 266.517 200.475 266.719 200.475 266.953C200.475 267.09 200.54 267.158 200.67 267.158C200.807 267.158 200.875 267.093 200.875 266.963C200.875 266.833 200.921 266.722 201.012 266.631C201.103 266.54 201.214 266.494 201.344 266.494ZM202.271 266.025C202.532 266.286 202.662 266.595 202.662 266.953C202.662 267.318 202.532 267.63 202.271 267.891C202.011 268.151 201.699 268.281 201.334 268.281C200.969 268.281 200.657 268.151 200.396 267.891C200.136 267.63 200.006 267.318 200.006 266.953C200.006 266.595 200.136 266.286 200.396 266.025C200.657 265.758 200.969 265.625 201.334 265.625C201.699 265.625 202.011 265.758 202.271 266.025ZM204.186 266.494C204.316 266.494 204.381 266.426 204.381 266.289C204.381 266.159 204.312 266.094 204.176 266.094C203.941 266.094 203.74 266.178 203.57 266.348C203.401 266.517 203.316 266.719 203.316 266.953C203.316 267.09 203.382 267.158 203.512 267.158C203.648 267.158 203.717 267.093 203.717 266.963C203.717 266.833 203.762 266.722 203.854 266.631C203.945 266.54 204.055 266.494 204.186 266.494ZM205.113 266.025C205.374 266.286 205.504 266.595 205.504 266.953C205.504 267.318 205.374 267.63 205.113 267.891C204.853 268.151 204.54 268.281 204.176 268.281C203.818 268.281 203.508 268.151 203.248 267.891C202.981 267.63 202.848 267.318 202.848 266.953C202.848 266.595 202.981 266.286 203.248 266.025C203.508 265.758 203.818 265.625 204.176 265.625C204.54 265.625 204.853 265.758 205.113 266.025ZM213.209 266.494C213.333 266.494 213.395 266.426 213.395 266.289C213.395 266.159 213.329 266.094 213.199 266.094C212.958 266.094 212.753 266.178 212.584 266.348C212.421 266.517 212.34 266.719 212.34 266.953C212.34 267.09 212.405 267.158 212.535 267.158C212.665 267.158 212.73 267.093 212.73 266.963C212.73 266.833 212.779 266.722 212.877 266.631C212.968 266.54 213.079 266.494 213.209 266.494ZM214.137 266.025C214.397 266.286 214.527 266.595 214.527 266.953C214.527 267.318 214.397 267.63 214.137 267.891C213.876 268.151 213.564 268.281 213.199 268.281C212.835 268.281 212.522 268.151 212.262 267.891C212.001 267.63 211.871 267.318 211.871 266.953C211.871 266.595 212.001 266.286 212.262 266.025C212.522 265.758 212.835 265.625 213.199 265.625C213.564 265.625 213.876 265.758 214.137 266.025ZM213.98 276.094V272.969C213.98 272.754 213.906 272.572 213.756 272.422C213.606 272.266 213.421 272.188 213.199 272.188C212.984 272.188 212.802 272.266 212.652 272.422C212.496 272.572 212.418 272.754 212.418 272.969V276.094C212.418 276.315 212.496 276.501 212.652 276.65C212.802 276.8 212.984 276.875 213.199 276.875C213.421 276.875 213.606 276.8 213.756 276.65C213.906 276.501 213.98 276.315 213.98 276.094ZM210.309 272.871C210.309 272.474 210.38 272.119 210.523 271.807C210.667 271.494 210.878 271.201 211.158 270.928C211.718 270.361 212.398 270.078 213.199 270.078C213.355 270.078 213.434 270 213.434 269.844C213.434 269.688 213.355 269.609 213.199 269.609C212.275 269.609 211.484 269.938 210.826 270.596C210.501 270.921 210.253 271.266 210.084 271.631C209.921 271.995 209.84 272.409 209.84 272.871V273.379C209.84 273.535 209.918 273.613 210.074 273.613C210.23 273.613 210.309 273.535 210.309 273.379V272.871ZM215.973 270.205C216.728 270.967 217.105 271.888 217.105 272.969V276.094C217.105 277.181 216.728 278.105 215.973 278.867C215.211 279.622 214.286 280 213.199 280C213.193 280 213.183 280 213.17 280C213.163 280 213.157 280 213.15 280H207.994C207.571 280 207.21 279.85 206.91 279.551C206.604 279.251 206.451 278.887 206.451 278.457V278.428C206.451 277.998 206.604 277.633 206.91 277.334C207.21 277.028 207.571 276.875 207.994 276.875H209.293V272.969C209.293 271.888 209.674 270.967 210.436 270.205C211.197 269.443 212.118 269.062 213.199 269.062C214.286 269.062 215.211 269.443 215.973 270.205ZM219.01 266.719V267.041C219.01 267.106 219.033 267.161 219.078 267.207C219.124 267.253 219.179 267.275 219.244 267.275C219.309 267.275 219.365 267.253 219.41 267.207C219.456 267.161 219.479 267.106 219.479 267.041V266.719C219.479 266.576 219.537 266.449 219.654 266.338C219.765 266.227 219.895 266.172 220.045 266.172C220.195 266.172 220.27 266.094 220.27 265.938C220.27 265.781 220.191 265.703 220.035 265.703C219.755 265.703 219.514 265.804 219.312 266.006C219.111 266.201 219.01 266.439 219.01 266.719ZM222.379 276.875H223.111V280H222.379C221.298 280 220.377 279.622 219.615 278.867C218.86 278.105 218.482 277.184 218.482 276.104V266.719C218.482 266.296 218.635 265.931 218.941 265.625C219.247 265.312 219.612 265.156 220.035 265.156C220.465 265.156 220.833 265.312 221.139 265.625C221.451 265.931 221.607 266.296 221.607 266.719V276.104C221.607 276.318 221.682 276.501 221.832 276.65C221.982 276.8 222.164 276.875 222.379 276.875ZM228.941 276.094V272.969C228.941 272.754 228.867 272.572 228.717 272.422C228.561 272.266 228.375 272.188 228.16 272.188C227.939 272.188 227.753 272.266 227.604 272.422C227.454 272.572 227.379 272.754 227.379 272.969V276.875H228.16C228.375 276.875 228.561 276.8 228.717 276.65C228.867 276.501 228.941 276.315 228.941 276.094ZM225.826 268.574C225.976 268.574 226.051 268.496 226.051 268.34C226.051 268.275 226.028 268.219 225.982 268.174C225.937 268.128 225.882 268.105 225.816 268.105C225.536 268.105 225.296 268.206 225.094 268.408C224.905 268.597 224.807 268.825 224.801 269.092C224.801 269.105 224.801 269.115 224.801 269.121V269.453C224.801 269.518 224.824 269.574 224.869 269.619C224.915 269.665 224.97 269.688 225.035 269.688C225.1 269.688 225.156 269.665 225.201 269.619C225.247 269.574 225.27 269.518 225.27 269.453V269.121C225.27 268.978 225.325 268.851 225.436 268.74C225.54 268.63 225.67 268.574 225.826 268.574ZM230.924 270.205C231.686 270.967 232.066 271.888 232.066 272.969V276.094C232.066 277.181 231.686 278.105 230.924 278.867C230.533 279.258 230.1 279.548 229.625 279.736C229.176 279.912 228.688 280 228.16 280H222.896C222.473 280 222.112 279.85 221.812 279.551C221.507 279.251 221.354 278.887 221.354 278.457V278.428C221.354 277.998 221.507 277.633 221.812 277.334C222.112 277.028 222.473 276.875 222.896 276.875H224.254V269.121C224.254 268.698 224.407 268.33 224.713 268.018C225.019 267.712 225.387 267.559 225.816 267.559C226.24 267.559 226.607 267.712 226.92 268.018C227.226 268.33 227.379 268.698 227.379 269.121V269.141C227.626 269.089 227.887 269.062 228.16 269.062C229.241 269.062 230.162 269.443 230.924 270.205ZM229.42 266.523C229.544 266.523 229.605 266.455 229.605 266.318C229.605 266.188 229.54 266.123 229.41 266.123C229.169 266.123 228.964 266.208 228.795 266.377C228.626 266.546 228.541 266.748 228.541 266.982C228.541 267.119 228.609 267.188 228.746 267.188C228.876 267.188 228.941 267.122 228.941 266.992C228.941 266.862 228.99 266.751 229.088 266.66C229.179 266.569 229.29 266.523 229.42 266.523ZM230.348 266.045C230.608 266.305 230.738 266.618 230.738 266.982C230.738 267.347 230.608 267.66 230.348 267.92C230.087 268.18 229.775 268.311 229.41 268.311C229.046 268.311 228.733 268.18 228.473 267.92C228.212 267.66 228.082 267.347 228.082 266.982C228.082 266.618 228.212 266.305 228.473 266.045C228.733 265.785 229.046 265.654 229.41 265.654C229.775 265.654 230.087 265.785 230.348 266.045ZM235.24 266.172C235.39 266.172 235.465 266.094 235.465 265.938C235.465 265.781 235.387 265.703 235.23 265.703C234.951 265.703 234.713 265.801 234.518 265.996C234.316 266.198 234.215 266.439 234.215 266.719V267.041C234.215 267.106 234.238 267.161 234.283 267.207C234.329 267.253 234.384 267.275 234.449 267.275C234.514 267.275 234.57 267.253 234.615 267.207C234.661 267.161 234.684 267.106 234.684 267.041V266.719C234.684 266.576 234.739 266.449 234.85 266.338C234.96 266.227 235.09 266.172 235.24 266.172ZM236.334 265.615C236.64 265.921 236.793 266.289 236.793 266.719V278.438C236.793 278.867 236.64 279.235 236.334 279.541C236.028 279.847 235.66 280 235.23 280C234.807 280 234.443 279.847 234.137 279.541C233.824 279.235 233.668 278.867 233.668 278.438V266.719C233.668 266.289 233.824 265.921 234.137 265.615C234.443 265.309 234.807 265.156 235.23 265.156C235.66 265.156 236.028 265.309 236.334 265.615ZM234.078 283.76C234.104 283.76 234.127 283.75 234.146 283.73C234.166 283.711 234.176 283.688 234.176 283.662C234.176 283.636 234.166 283.613 234.146 283.594C234.127 283.574 234.104 283.564 234.078 283.564H233.902C233.844 283.564 233.792 283.542 233.746 283.496C233.701 283.451 233.678 283.395 233.678 283.33C233.678 283.265 233.645 283.232 233.58 283.232C233.515 283.232 233.482 283.265 233.482 283.33C233.482 283.447 233.521 283.548 233.6 283.633C233.684 283.717 233.785 283.76 233.902 283.76H234.078ZM235.816 281.592C235.751 281.592 235.719 281.624 235.719 281.689C235.719 281.755 235.751 281.787 235.816 281.787H236.461C236.526 281.787 236.559 281.755 236.559 281.689C236.559 281.624 236.526 281.592 236.461 281.592H235.816ZM237.027 282.871C237.158 283.001 237.223 283.154 237.223 283.33C237.223 283.512 237.158 283.669 237.027 283.799C236.897 283.923 236.744 283.984 236.568 283.984H233.902C233.727 283.984 233.574 283.923 233.443 283.799C233.313 283.669 233.248 283.512 233.248 283.33C233.248 283.154 233.313 283.001 233.443 282.871C233.574 282.741 233.727 282.676 233.902 282.676H234.176V282.344C234.176 281.895 234.335 281.51 234.654 281.191C234.973 280.866 235.361 280.703 235.816 280.703H236.461C236.637 280.703 236.79 280.768 236.92 280.898C237.05 281.029 237.115 281.185 237.115 281.367C237.115 281.543 237.05 281.696 236.92 281.826C236.79 281.956 236.637 282.021 236.461 282.021H235.816C235.725 282.021 235.647 282.054 235.582 282.119C235.517 282.178 235.484 282.253 235.484 282.344V282.676H236.568C236.744 282.676 236.897 282.741 237.027 282.871ZM247.467 271.26C247.512 271.305 247.558 271.305 247.604 271.26L247.916 270.947C247.962 270.902 247.962 270.856 247.916 270.811C247.87 270.765 247.825 270.765 247.779 270.811L247.467 271.123C247.421 271.169 247.421 271.214 247.467 271.26ZM246.256 274.473C246.282 274.473 246.305 274.463 246.324 274.443C246.344 274.424 246.354 274.401 246.354 274.375C246.354 274.349 246.344 274.326 246.324 274.307C246.305 274.287 246.282 274.277 246.256 274.277H246.08C246.021 274.277 245.966 274.255 245.914 274.209C245.868 274.163 245.846 274.108 245.846 274.043C245.846 273.978 245.813 273.945 245.748 273.945C245.683 273.945 245.65 273.978 245.65 274.043C245.65 274.16 245.693 274.261 245.777 274.346C245.862 274.43 245.963 274.473 246.08 274.473H246.256ZM247.994 271.904C248.313 272.223 248.473 272.611 248.473 273.066H248.463V273.779C248.463 274.033 248.372 274.251 248.189 274.434C248.014 274.616 247.796 274.707 247.535 274.707H246.08C245.898 274.707 245.745 274.642 245.621 274.512C245.562 274.453 245.517 274.391 245.484 274.326C245.445 274.242 245.426 274.147 245.426 274.043C245.426 273.945 245.445 273.854 245.484 273.77C245.517 273.704 245.562 273.643 245.621 273.584C245.745 273.454 245.898 273.389 246.08 273.389H247.154V273.066C247.154 272.969 247.125 272.891 247.066 272.832C247.001 272.767 246.923 272.734 246.832 272.734H246.188C246.174 272.734 246.165 272.734 246.158 272.734C245.995 272.728 245.852 272.663 245.729 272.539H245.719C245.602 272.409 245.54 272.266 245.533 272.109C245.527 272.083 245.527 272.061 245.533 272.041C245.533 272.035 245.533 272.025 245.533 272.012C245.533 271.999 245.533 271.989 245.533 271.982C245.546 271.911 245.569 271.846 245.602 271.787C245.602 271.781 245.602 271.774 245.602 271.768C245.634 271.715 245.673 271.663 245.719 271.611L247.145 270.186C247.275 270.062 247.431 269.997 247.613 269.99C247.796 269.997 247.949 270.062 248.072 270.186C248.202 270.316 248.268 270.469 248.268 270.645C248.268 270.833 248.202 270.99 248.072 271.113L247.594 271.602C247.737 271.68 247.87 271.781 247.994 271.904ZM251.979 266.172C252.128 266.172 252.203 266.094 252.203 265.938C252.203 265.872 252.18 265.817 252.135 265.771C252.096 265.726 252.04 265.703 251.969 265.703C251.689 265.703 251.451 265.804 251.256 266.006C251.054 266.201 250.953 266.439 250.953 266.719V266.973C250.953 267.038 250.976 267.093 251.021 267.139C251.067 267.184 251.122 267.207 251.188 267.207H251.197C251.262 267.207 251.314 267.184 251.354 267.139C251.399 267.093 251.422 267.038 251.422 266.973V266.719C251.422 266.576 251.477 266.449 251.588 266.338C251.699 266.227 251.829 266.172 251.979 266.172ZM242.936 273.018V272.773C242.936 272.487 242.838 272.246 242.643 272.051C242.441 271.855 242.2 271.758 241.92 271.758C241.855 271.758 241.799 271.781 241.754 271.826C241.708 271.872 241.686 271.927 241.686 271.992C241.686 272.148 241.76 272.227 241.91 272.227C242.066 272.227 242.197 272.279 242.301 272.383C242.411 272.493 242.467 272.624 242.467 272.773V273.018C242.467 273.083 242.49 273.138 242.535 273.184C242.581 273.229 242.636 273.252 242.701 273.252C242.766 273.252 242.822 273.229 242.867 273.184C242.913 273.138 242.936 273.083 242.936 273.018ZM254.312 276.875H255.553V280H254.312C253.427 280 252.646 279.746 251.969 279.238C251.298 279.746 250.517 280 249.625 280H244.264C243.183 280 242.262 279.622 241.5 278.867C240.738 278.105 240.357 277.181 240.357 276.094V272.773C240.357 272.344 240.51 271.976 240.816 271.67C241.129 271.364 241.497 271.211 241.92 271.211C242.35 271.211 242.717 271.364 243.023 271.67C243.329 271.976 243.482 272.344 243.482 272.773V276.094C243.482 276.315 243.557 276.501 243.707 276.65C243.863 276.8 244.049 276.875 244.264 276.875H249.625C249.846 276.875 250.032 276.8 250.182 276.65C250.331 276.501 250.406 276.315 250.406 276.094V266.719C250.406 266.296 250.562 265.928 250.875 265.615C251.181 265.309 251.546 265.156 251.969 265.156C252.398 265.156 252.766 265.309 253.072 265.615C253.378 265.928 253.531 266.296 253.531 266.719V276.094C253.531 276.315 253.609 276.501 253.766 276.65C253.915 276.8 254.098 276.875 254.312 276.875ZM258.395 266.494C258.518 266.494 258.58 266.426 258.58 266.289C258.58 266.159 258.515 266.094 258.385 266.094C258.144 266.094 257.939 266.178 257.77 266.348C257.607 266.517 257.525 266.719 257.525 266.953C257.525 267.09 257.59 267.158 257.721 267.158C257.851 267.158 257.916 267.093 257.916 266.963C257.916 266.833 257.965 266.722 258.062 266.631C258.154 266.54 258.264 266.494 258.395 266.494ZM259.322 266.025C259.583 266.286 259.713 266.595 259.713 266.953C259.713 267.318 259.583 267.63 259.322 267.891C259.062 268.151 258.749 268.281 258.385 268.281C258.02 268.281 257.708 268.151 257.447 267.891C257.187 267.63 257.057 267.318 257.057 266.953C257.057 266.595 257.187 266.286 257.447 266.025C257.708 265.758 258.02 265.625 258.385 265.625C258.749 265.625 259.062 265.758 259.322 266.025ZM258.385 270.078C258.535 270.078 258.609 270 258.609 269.844C258.609 269.785 258.587 269.733 258.541 269.688C258.495 269.635 258.44 269.609 258.375 269.609C258.095 269.616 257.857 269.717 257.662 269.912C257.46 270.107 257.359 270.345 257.359 270.625V270.879C257.359 270.944 257.382 270.999 257.428 271.045C257.473 271.09 257.529 271.113 257.594 271.113H257.604C257.662 271.113 257.714 271.09 257.76 271.045C257.805 270.999 257.828 270.944 257.828 270.879V270.625C257.828 270.482 257.883 270.355 257.994 270.244C258.105 270.133 258.235 270.078 258.385 270.078ZM257.828 276.094V276.064C257.828 275.999 257.805 275.944 257.76 275.898C257.714 275.853 257.659 275.83 257.594 275.83C257.529 275.83 257.473 275.853 257.428 275.898C257.382 275.944 257.359 275.999 257.359 276.064V276.094C257.359 276.465 257.229 276.777 256.969 277.031C256.956 277.051 256.943 277.067 256.93 277.08C256.676 277.308 256.376 277.422 256.031 277.422H255.982C255.924 277.422 255.868 277.448 255.816 277.5C255.771 277.546 255.748 277.601 255.748 277.666C255.748 277.725 255.771 277.78 255.816 277.832C255.868 277.878 255.924 277.9 255.982 277.9H256.031V277.891C256.435 277.891 256.786 277.78 257.086 277.559C257.164 277.507 257.239 277.445 257.311 277.373C257.656 277.021 257.828 276.595 257.828 276.094ZM260.719 276.875H261.861V280H260.719C259.833 280 259.052 279.746 258.375 279.238C257.704 279.746 256.923 280 256.031 280H255.396C254.967 280 254.602 279.85 254.303 279.551C253.997 279.251 253.844 278.887 253.844 278.457V278.428C253.844 277.998 253.997 277.633 254.303 277.334C254.602 277.028 254.967 276.875 255.396 276.875H256.031C256.253 276.875 256.438 276.8 256.588 276.65C256.738 276.501 256.812 276.315 256.812 276.094V270.625C256.812 270.202 256.969 269.837 257.281 269.531C257.587 269.219 257.952 269.062 258.375 269.062C258.805 269.062 259.173 269.219 259.479 269.531C259.785 269.837 259.938 270.202 259.938 270.625V276.094C259.938 276.315 260.016 276.501 260.172 276.65C260.322 276.8 260.504 276.875 260.719 276.875ZM267.115 266.953C267.128 266.947 267.138 266.94 267.145 266.934L267.75 266.328C267.783 266.302 267.805 266.273 267.818 266.24C267.851 266.162 267.831 266.084 267.76 266.006C267.76 266.006 267.757 266.003 267.75 265.996C267.678 265.924 267.607 265.905 267.535 265.938C267.503 265.944 267.47 265.964 267.438 265.996L266.881 266.553C266.874 266.553 266.871 266.556 266.871 266.562C266.845 266.589 266.826 266.615 266.812 266.641C266.812 266.647 266.809 266.654 266.803 266.66C266.777 266.738 266.803 266.813 266.881 266.885C266.952 266.963 267.027 266.989 267.105 266.963C267.112 266.956 267.115 266.953 267.115 266.953ZM269.879 276.875H271.021V280H269.879C268.987 280 268.206 279.746 267.535 279.238C267.275 279.44 266.995 279.6 266.695 279.717C266.233 279.906 265.732 280 265.191 280H261.656C261.227 280 260.862 279.85 260.562 279.551C260.257 279.251 260.104 278.887 260.104 278.457V278.428C260.104 277.998 260.257 277.633 260.562 277.334C260.862 277.028 261.227 276.875 261.656 276.875H265.191C265.413 276.875 265.598 276.8 265.748 276.65C265.898 276.501 265.973 276.315 265.973 276.094V272.969C265.973 272.754 265.898 272.572 265.748 272.422C265.598 272.266 265.413 272.188 265.191 272.188C265.029 272.188 264.882 272.233 264.752 272.324C264.713 272.357 264.674 272.389 264.635 272.422C264.368 272.624 264.059 272.725 263.707 272.725C263.271 272.725 262.9 272.575 262.594 272.275C262.294 271.969 262.145 271.602 262.145 271.172C262.145 270.736 262.294 270.365 262.594 270.059L262.711 269.941L267.037 265.615C267.343 265.316 267.714 265.166 268.15 265.166C268.58 265.166 268.948 265.316 269.254 265.615C269.553 265.921 269.703 266.289 269.703 266.719C269.703 267.155 269.553 267.526 269.254 267.832L267.369 269.717C267.571 269.854 267.766 270.016 267.955 270.205C268.717 270.967 269.098 271.888 269.098 272.969V276.094C269.098 276.315 269.173 276.501 269.322 276.65C269.479 276.8 269.664 276.875 269.879 276.875ZM276.617 276.094V272.969C276.617 272.754 276.542 272.572 276.393 272.422C276.243 272.266 276.057 272.188 275.836 272.188C275.621 272.188 275.439 272.266 275.289 272.422C275.133 272.572 275.055 272.754 275.055 272.969V276.094C275.055 276.315 275.133 276.501 275.289 276.65C275.439 276.8 275.621 276.875 275.836 276.875C276.057 276.875 276.243 276.8 276.393 276.65C276.542 276.501 276.617 276.315 276.617 276.094ZM272.945 272.871C272.945 272.474 273.017 272.119 273.16 271.807C273.303 271.494 273.515 271.201 273.795 270.928C274.355 270.361 275.035 270.078 275.836 270.078C275.992 270.078 276.07 270 276.07 269.844C276.07 269.688 275.992 269.609 275.836 269.609C274.911 269.609 274.12 269.938 273.463 270.596C273.137 270.921 272.89 271.266 272.721 271.631C272.558 271.995 272.477 272.409 272.477 272.871V273.379C272.477 273.535 272.555 273.613 272.711 273.613C272.867 273.613 272.945 273.535 272.945 273.379V272.871ZM280.523 276.875H281.275V280H280.523C279.638 280 278.857 279.746 278.18 279.238C277.509 279.746 276.728 280 275.836 280C274.951 280 274.169 279.746 273.492 279.238C272.822 279.746 272.04 280 271.148 280H270.816C270.387 280 270.022 279.85 269.723 279.551C269.417 279.251 269.264 278.887 269.264 278.457V278.428C269.264 277.998 269.417 277.633 269.723 277.334C270.022 277.028 270.387 276.875 270.816 276.875H271.148C271.37 276.875 271.555 276.8 271.705 276.65C271.855 276.501 271.93 276.315 271.93 276.094V272.969C271.93 271.888 272.311 270.967 273.072 270.205C273.834 269.443 274.755 269.062 275.836 269.062C276.923 269.062 277.848 269.443 278.609 270.205C279.365 270.967 279.742 271.888 279.742 272.969V276.094C279.742 276.315 279.82 276.501 279.977 276.65C280.126 276.8 280.309 276.875 280.523 276.875ZM284.283 270.078C284.433 270.078 284.508 270 284.508 269.844C284.508 269.779 284.485 269.723 284.439 269.678C284.394 269.632 284.339 269.609 284.273 269.609C283.993 269.609 283.756 269.71 283.561 269.912C283.359 270.107 283.258 270.345 283.258 270.625V270.879C283.258 270.944 283.281 270.999 283.326 271.045C283.372 271.09 283.427 271.113 283.492 271.113H283.502C283.561 271.113 283.613 271.09 283.658 271.045C283.704 270.999 283.727 270.944 283.727 270.879V270.625C283.727 270.482 283.782 270.355 283.893 270.244C284.003 270.133 284.133 270.078 284.283 270.078ZM283.727 276.094V276.055C283.727 275.99 283.704 275.934 283.658 275.889C283.613 275.843 283.557 275.82 283.492 275.82C283.427 275.82 283.372 275.843 283.326 275.889C283.281 275.934 283.258 275.99 283.258 276.055V276.094C283.258 276.458 283.128 276.771 282.867 277.031C282.607 277.292 282.294 277.422 281.93 277.422H281.891C281.826 277.422 281.77 277.445 281.725 277.49C281.679 277.536 281.656 277.591 281.656 277.656C281.656 277.721 281.679 277.777 281.725 277.822C281.77 277.868 281.826 277.891 281.891 277.891H281.93C282.431 277.891 282.857 277.718 283.209 277.373C283.554 277.021 283.727 276.595 283.727 276.094ZM285.377 269.521C285.683 269.834 285.836 270.202 285.836 270.625V276.094C285.836 277.181 285.458 278.102 284.703 278.857C283.941 279.619 283.017 280 281.93 280H281.109C280.68 280 280.315 279.85 280.016 279.551C279.716 279.245 279.566 278.88 279.566 278.457V278.428C279.566 277.998 279.716 277.633 280.016 277.334C280.315 277.028 280.68 276.875 281.109 276.875H281.93C282.151 276.875 282.337 276.8 282.486 276.65C282.636 276.501 282.711 276.315 282.711 276.094V270.625C282.711 270.202 282.867 269.834 283.18 269.521C283.486 269.215 283.85 269.062 284.273 269.062C284.703 269.062 285.071 269.215 285.377 269.521ZM281.676 281.572C281.806 281.572 281.871 281.504 281.871 281.367C281.871 281.237 281.803 281.172 281.666 281.172C281.425 281.172 281.223 281.257 281.061 281.426C280.891 281.595 280.807 281.797 280.807 282.031C280.807 282.168 280.872 282.236 281.002 282.236C281.139 282.236 281.207 282.171 281.207 282.041C281.207 281.911 281.253 281.8 281.344 281.709C281.435 281.618 281.546 281.572 281.676 281.572ZM281.666 280.703C282.031 280.703 282.343 280.837 282.604 281.104C282.864 281.364 282.994 281.673 282.994 282.031C282.994 282.396 282.864 282.708 282.604 282.969C282.343 283.229 282.031 283.359 281.666 283.359C281.301 283.359 280.989 283.229 280.729 282.969C280.468 282.708 280.338 282.396 280.338 282.031C280.338 281.673 280.468 281.364 280.729 281.104C280.989 280.837 281.301 280.703 281.666 280.703ZM284.518 281.572C284.648 281.572 284.713 281.504 284.713 281.367C284.713 281.237 284.645 281.172 284.508 281.172C284.273 281.172 284.072 281.257 283.902 281.426C283.733 281.595 283.648 281.797 283.648 282.031C283.648 282.168 283.714 282.236 283.844 282.236C283.98 282.236 284.049 282.171 284.049 282.041C284.049 281.911 284.094 281.8 284.186 281.709C284.277 281.618 284.387 281.572 284.518 281.572ZM285.445 281.104C285.706 281.364 285.836 281.673 285.836 282.031C285.836 282.396 285.706 282.708 285.445 282.969C285.185 283.229 284.872 283.359 284.508 283.359C284.15 283.359 283.84 283.229 283.58 282.969C283.313 282.708 283.18 282.396 283.18 282.031C283.18 281.673 283.313 281.364 283.58 281.104C283.84 280.837 284.15 280.703 284.508 280.703C284.872 280.703 285.185 280.837 285.445 281.104Z" fill="#18171C"/>
<g clip-path="url(#clip0_5_1656)">
<path d="M98.4752 64.7462L88.0075 58.8504C87.8663 52.5424 89.2671 46.2954 92.0881 40.6516C94.5015 51.6054 107.202 56.8169 113.062 66.3809C114.867 69.3778 115.974 72.7425 116.302 76.2255C116.63 79.7086 116.17 83.2207 114.955 86.5017L115.644 94.9945C110.234 93.3741 105.239 90.6001 101.004 86.8636C96.7697 83.127 93.3953 78.5168 91.1138 73.3507C89.8626 70.4397 88.9829 67.3829 88.4956 64.2521C93.3761 64.7715 98.4752 64.7462 98.4752 64.7462Z" fill="#F2F2F2"/>
<path d="M286.65 172.007L286.971 164.79C290.317 163.001 294.049 162.057 297.843 162.038C292.622 166.307 293.274 174.537 289.734 180.278C288.616 182.06 287.112 183.567 285.332 184.689C283.552 185.811 281.543 186.517 279.452 186.757L275.083 189.432C274.483 186.09 274.615 182.657 275.47 179.37C276.325 176.083 277.882 173.021 280.035 170.394C281.257 168.932 282.658 167.63 284.205 166.519C285.252 169.278 286.65 172.007 286.65 172.007Z" fill="#F2F2F2"/>
<path d="M275.391 185.718L271.434 185.718L269.552 170.456L275.392 170.456L275.391 185.718Z" fill="#FFB6B6"/>
<path d="M276.4 189.554L263.642 189.553V189.392C263.642 188.075 264.165 186.812 265.096 185.881C266.028 184.949 267.291 184.426 268.608 184.426L270.939 182.658L275.287 184.426L276.4 184.426L276.4 189.554Z" fill="#2F2E41"/>
<path d="M257.008 185.718L253.052 185.718L251.169 170.456L257.009 170.456L257.008 185.718Z" fill="#FFB6B6"/>
<path d="M258.018 189.554L245.259 189.553V189.392C245.259 188.075 245.783 186.812 246.714 185.881C247.645 184.949 248.908 184.426 250.225 184.426L252.556 182.658L256.904 184.426L258.018 184.426L258.018 189.554Z" fill="#2F2E41"/>
<path d="M255.296 102.281L281.033 102.924C285.92 105.579 285.995 111.325 284.393 118.147C284.393 118.147 284.934 122.202 283.852 123.283C282.771 124.365 282.23 124.365 282.771 126.257C283.312 128.149 280.455 131.24 280.802 131.587C281.149 131.934 281.96 133.826 281.96 133.826L279.257 149.235C279.257 149.235 277.365 175.998 276.824 176.539C276.283 177.079 275.743 176.539 276.283 177.89C276.824 179.242 277.365 178.701 276.824 179.242C276.345 179.758 275.894 180.3 275.472 180.864H268.936C268.936 180.864 268.444 178.16 268.444 177.89C268.444 177.62 267.903 175.998 267.903 175.728C267.903 175.457 268.381 174.979 268.381 174.979C268.546 174.43 268.658 173.866 268.714 173.295C268.714 172.754 270.336 151.938 270.336 151.938L267.092 124.905L259.252 151.398C259.252 151.398 259.252 174.646 258.712 175.187C258.171 175.728 258.171 175.457 258.441 176.539C258.712 177.62 259.793 177.35 258.982 178.16C258.171 178.971 257.901 177.62 258.171 178.971L258.441 180.323L250.331 180.439C250.331 180.439 249.25 178.16 249.791 177.35C250.332 176.539 250.299 176.76 249.639 175.433C248.98 174.106 248.71 173.835 248.98 173.565C249.25 173.295 249.25 171.857 249.25 171.857L250.602 145.991C250.602 145.991 250.872 118.688 250.872 117.877C250.893 117.46 250.816 117.043 250.648 116.661V115.56L251.683 111.659L255.296 102.281Z" fill="#2F2E41"/>
<path d="M270.756 48.7652C275.172 48.7652 278.753 45.1851 278.753 40.7687C278.753 36.3524 275.172 32.7722 270.756 32.7722C266.34 32.7722 262.76 36.3524 262.76 40.7687C262.76 45.1851 266.34 48.7652 270.756 48.7652Z" fill="#FFB6B6"/>
<path d="M266.758 54.0504C265.035 55.0745 264.005 56.9563 263.413 58.8712C262.318 62.4164 261.659 66.0818 261.45 69.7864L260.825 80.8774L253.086 104.493C259.793 110.168 285.003 105.783 285.003 105.783C285.003 105.783 285.777 105.525 285.003 104.751C284.229 103.977 283.476 104.663 284.249 103.889C285.023 103.115 284.49 103.977 284.232 103.203C283.974 102.43 284.232 102.945 284.49 102.687C284.748 102.43 282.493 100.108 282.493 100.108L284.557 86.5523L287.136 59.2094C284.041 55.3401 277.815 53.0592 277.815 53.0592L276.207 50.1638L268.164 50.8072L266.758 54.0504Z" fill="#E6E6E6"/>
<path d="M265.661 36.0758C265.971 36.0782 266.279 36.1186 266.578 36.1961C267.169 36.3381 267.768 36.4387 268.373 36.4971C270.224 36.6713 271.964 37.4608 273.313 38.7395C274.663 40.0182 275.546 41.7124 275.82 43.5514C276.284 43.1463 277.342 42.4011 278.208 43.0937C278.222 43.1047 278.229 43.1103 278.26 43.0959C278.835 42.8229 279.857 39.4622 279.888 36.5032C279.904 34.9327 279.657 32.9272 278.387 32.2921L278.32 32.2587L278.302 32.1859C278.217 31.8327 277.269 31.2296 275.622 30.7603C272.627 29.9073 268.163 28.2457 265.649 30.691C265.459 31.5154 264.84 33.2796 264.215 33.4795C263.523 33.7009 262.925 33.8919 262.831 34.7411C262.752 35.9495 262.758 37.162 262.848 38.3697C263.082 37.6307 263.543 36.9839 264.164 36.5204C264.606 36.2229 265.129 36.0677 265.661 36.0758Z" fill="#2F2E41"/>
<path d="M250.777 80.2601L263.84 71.8946L257.261 63.1489L250.764 71.1401L230.523 72.3816C229.99 71.8553 229.316 71.4953 228.583 71.3455C227.849 71.1957 227.088 71.2625 226.392 71.5378C225.696 71.8131 225.095 72.285 224.662 72.896C224.23 73.5069 223.984 74.2306 223.956 74.9786C223.927 75.7267 224.117 76.4669 224.502 77.1089C224.887 77.7509 225.451 78.2671 226.124 78.5944C226.797 78.9217 227.551 79.0461 228.294 78.9523C229.037 78.8586 229.736 78.5507 230.307 78.0664L250.777 80.2601Z" fill="#FFB6B6"/>
<path d="M275.963 60.2181C276.721 64.8062 262.405 73.5675 262.405 73.5675C262.404 72.4906 253.86 80.6204 253.474 79.7273C252.378 77.1889 251.607 71.1767 250.075 70.2144C249.199 69.664 255.351 64.4942 255.351 64.4942C255.351 64.4942 258.571 61.2501 262.797 57.1583C263.97 55.9793 265.422 55.1163 267.019 54.6496C268.615 54.183 270.304 54.1278 271.928 54.4893C271.928 54.4893 275.205 55.63 275.963 60.2181Z" fill="#E6E6E6"/>
<path d="M302.887 82.4558L294.247 69.5735L285.642 76.3363L293.769 82.662L295.439 102.873C294.924 103.416 294.578 104.098 294.444 104.834C294.31 105.57 294.393 106.33 294.683 107.02C294.973 107.71 295.457 108.301 296.077 108.721C296.697 109.14 297.426 109.37 298.174 109.383C298.923 109.396 299.659 109.19 300.293 108.792C300.926 108.393 301.43 107.819 301.743 107.139C302.056 106.459 302.165 105.702 302.055 104.962C301.946 104.221 301.623 103.529 301.127 102.968L302.887 82.4558Z" fill="#FFB6B6"/>
<path d="M282.316 57.6999C286.887 56.8448 295.949 70.9728 295.949 70.9728C294.873 70.9958 303.182 79.3666 302.297 79.7711C299.782 80.9208 293.788 81.8187 292.858 83.3705C292.326 84.2579 287.027 78.217 287.027 78.217C287.027 78.217 283.716 75.0663 279.536 70.9281C278.332 69.7801 277.438 68.3463 276.938 66.7601C276.438 65.1738 276.347 63.4868 276.674 61.856C276.674 61.856 277.745 58.555 282.316 57.6999Z" fill="#E6E6E6"/>
<path d="M305.094 189.617C305.094 189.668 305.084 189.717 305.065 189.764C305.046 189.81 305.018 189.853 304.982 189.888C304.947 189.924 304.904 189.952 304.858 189.971C304.811 189.99 304.762 190 304.711 190H214.54C214.438 190 214.341 189.96 214.269 189.888C214.197 189.816 214.157 189.719 214.157 189.617C214.157 189.516 214.197 189.418 214.269 189.347C214.341 189.275 214.438 189.234 214.54 189.234H304.711C304.762 189.234 304.811 189.244 304.858 189.263C304.904 189.282 304.947 189.311 304.982 189.346C305.018 189.382 305.046 189.424 305.065 189.471C305.084 189.517 305.094 189.567 305.094 189.617Z" fill="#CCCCCC"/>
<path d="M221.561 73.604H112.125C110.416 73.6059 108.776 74.286 107.567 75.495C106.358 76.7039 105.678 78.3431 105.677 80.0529V148.187C105.678 149.896 106.359 151.536 107.567 152.745C108.776 153.954 110.416 154.634 112.125 154.636H221.561C223.27 154.634 224.91 153.954 226.119 152.745C227.328 151.536 228.008 149.896 228.01 148.187V80.0529C228.008 78.3431 227.328 76.7039 226.119 75.4949C224.91 74.286 223.27 73.6059 221.561 73.604Z" fill="#FFE00B"/>
<path d="M221.561 73.604H112.125C110.416 73.6059 108.776 74.286 107.567 75.495C106.358 76.7039 105.678 78.3431 105.677 80.0529V148.187C105.678 149.896 106.359 151.536 107.567 152.745C108.776 153.954 110.416 154.634 112.125 154.636H221.561C223.27 154.634 224.91 153.954 226.119 152.745C227.328 151.536 228.008 149.896 228.01 148.187V80.0529C228.008 78.3431 227.328 76.7039 226.119 75.4949C224.91 74.286 223.27 73.6059 221.561 73.604ZM223.677 122.545C223.651 129.482 220.907 136.132 216.034 141.068C211.162 146.005 204.548 148.836 197.613 148.952C186.509 149.097 203.757 149.153 190.364 149.153C159.74 149.153 127.807 148.861 115.893 148.671C114.325 148.639 112.833 147.995 111.733 146.877C110.634 145.759 110.015 144.255 110.009 142.688V80.0579C110.01 79.4965 110.233 78.9581 110.629 78.5606C111.026 78.1631 111.563 77.9388 112.125 77.9368H221.556C222.118 77.9375 222.656 78.1604 223.053 78.5568C223.451 78.9532 223.675 79.4909 223.677 80.0523V122.545Z" fill="#3F3D56"/>
<path d="M208.089 34.3706H124.711C123.973 34.3717 123.254 34.6004 122.651 35.0255C122.048 35.4507 121.591 36.0515 121.343 36.746L108.465 72.8737C108.273 73.413 108.213 73.9905 108.291 74.5577C108.368 75.1249 108.58 75.6652 108.91 76.1333C109.24 76.6014 109.677 76.9835 110.185 77.2476C110.693 77.5116 111.256 77.6498 111.829 77.6507L223.653 77.8491H223.658C224.249 77.8491 224.832 77.7022 225.353 77.4216C225.874 77.1411 226.317 76.7356 226.643 76.2415C226.969 75.7475 227.167 75.1803 227.22 74.5909C227.272 74.0014 227.178 73.4081 226.945 72.8642L211.376 36.5381C211.101 35.8944 210.643 35.3459 210.058 34.9605C209.474 34.5752 208.789 34.3701 208.089 34.3706Z" fill="#3F3D56"/>
<path d="M227.234 73.6487C227.234 74.1331 227.136 74.6124 226.945 75.0577L211.377 103.021C211.1 103.663 210.641 104.21 210.057 104.595C209.473 104.979 208.789 105.185 208.09 105.186H124.713C123.975 105.185 123.255 104.957 122.651 104.532C122.048 104.107 121.59 103.506 121.341 102.811L108.466 75.0481C108.309 74.6058 108.239 74.1367 108.263 73.6677C108.287 73.1986 108.402 72.7388 108.604 72.3146C108.805 71.8903 109.088 71.5099 109.437 71.1951C109.785 70.8803 110.192 70.6372 110.635 70.4798C111.017 70.3416 111.421 70.2709 111.828 70.2707L125.488 70.245L131.063 70.2354L204.425 70.1067L210.004 70.097L223.654 70.0713H223.657C224.606 70.0714 225.516 70.4484 226.186 71.1193C226.857 71.7901 227.234 72.6999 227.234 73.6487Z" fill="#3F3D56"/>
<path d="M120.33 124.712C121.983 124.712 144.687 126.1 144.687 127.753C144.687 129.407 121.983 130.7 120.33 130.7C119.536 130.7 118.774 130.384 118.213 129.823C117.651 129.262 117.336 128.5 117.336 127.706C117.336 126.912 117.651 126.151 118.213 125.589C118.774 125.028 119.536 124.712 120.33 124.712Z" fill="#3F3D56"/>
<path d="M202.897 12.3923H132.594C130.71 12.3945 128.904 13.1439 127.572 14.4762C126.239 15.8084 125.49 17.6148 125.488 19.4989V105.186H208.089C208.768 105.188 209.432 104.995 210.004 104.629V19.4989C210.001 17.6148 209.252 15.8084 207.92 14.4762C206.587 13.1439 204.781 12.3945 202.897 12.3923Z" fill="#E6E6E6"/>
<path d="M176.063 18.1541H137.536C135.82 18.1557 134.175 18.8378 132.962 20.0506C131.748 21.2634 131.066 22.908 131.063 24.6236V105.186H204.425V46.5158C204.416 38.9965 201.426 31.7876 196.109 26.4706C190.792 21.1536 183.583 18.1627 176.063 18.1541Z" fill="white"/>
<path d="M191.927 98.0308H143.561C143.143 98.0308 142.742 98.1968 142.447 98.4925C142.151 98.7881 141.985 99.189 141.985 99.6071C141.985 100.025 142.151 100.426 142.447 100.722C142.742 101.017 143.143 101.183 143.561 101.183H191.927C192.345 101.183 192.746 101.017 193.041 100.722C193.337 100.426 193.503 100.025 193.503 99.6071C193.503 99.189 193.337 98.7881 193.041 98.4925C192.746 98.1968 192.345 98.0308 191.927 98.0308Z" fill="#E4E4E4"/>
<path d="M191.927 91.7961H143.561C143.143 91.7961 142.742 91.9624 142.446 92.2583C142.15 92.5542 141.983 92.9556 141.983 93.3741C141.983 93.7926 142.15 94.194 142.446 94.4899C142.742 94.7858 143.143 94.9521 143.561 94.9521H191.927C192.345 94.9521 192.747 94.7858 193.043 94.4899C193.339 94.194 193.505 93.7926 193.505 93.3741C193.505 92.9556 193.339 92.5542 193.043 92.2583C192.747 91.9624 192.345 91.7961 191.927 91.7961Z" fill="#E4E4E4"/>
<path d="M164.527 85.5647H143.561C143.143 85.5647 142.742 85.7308 142.447 86.0264C142.151 86.322 141.985 86.723 141.985 87.1411C141.985 87.5591 142.151 87.9601 142.447 88.2557C142.742 88.5513 143.143 88.7174 143.561 88.7174H164.527C164.945 88.7174 165.346 88.5513 165.642 88.2557C165.937 87.9601 166.103 87.5591 166.103 87.1411C166.103 86.723 165.937 86.322 165.642 86.0264C165.346 85.7308 164.945 85.5647 164.527 85.5647Z" fill="#E4E4E4"/>
<path d="M191.927 72.5098H143.561C143.143 72.5098 142.742 72.676 142.446 72.9719C142.15 73.2679 141.983 73.6692 141.983 74.0877C141.983 74.5062 142.15 74.9076 142.446 75.2035C142.742 75.4995 143.143 75.6657 143.561 75.6657H191.927C192.345 75.6657 192.747 75.4995 193.043 75.2035C193.339 74.9076 193.505 74.5062 193.505 74.0877C193.505 73.6692 193.339 73.2679 193.043 72.9719C192.747 72.676 192.345 72.5098 191.927 72.5098Z" fill="#E4E4E4"/>
<path d="M191.927 66.2783H143.561C143.143 66.2783 142.742 66.4444 142.447 66.74C142.151 67.0357 141.985 67.4366 141.985 67.8547C141.985 68.2728 142.151 68.6737 142.447 68.9693C142.742 69.265 143.143 69.431 143.561 69.431H191.927C192.345 69.431 192.746 69.265 193.041 68.9693C193.337 68.6737 193.503 68.2728 193.503 67.8547C193.503 67.4366 193.337 67.0357 193.041 66.74C192.746 66.4444 192.345 66.2783 191.927 66.2783Z" fill="#E4E4E4"/>
<path d="M164.527 60.0437H143.561C143.143 60.0437 142.742 60.21 142.446 60.5059C142.15 60.8018 141.983 61.2032 141.983 61.6217C141.983 62.0402 142.15 62.4415 142.446 62.7375C142.742 63.0334 143.143 63.1997 143.561 63.1997H164.527C164.946 63.1997 165.347 63.0334 165.643 62.7375C165.939 62.4415 166.105 62.0402 166.105 61.6217C166.105 61.2032 165.939 60.8018 165.643 60.5059C165.347 60.21 164.946 60.0437 164.527 60.0437Z" fill="#E4E4E4"/>
<path d="M191.927 46.9888H143.561C143.143 46.9888 142.742 47.155 142.446 47.4509C142.15 47.7469 141.983 48.1482 141.983 48.5667C141.983 48.9852 142.15 49.3866 142.446 49.6825C142.742 49.9785 143.143 50.1447 143.561 50.1447H191.927C192.345 50.1447 192.747 49.9785 193.043 49.6825C193.339 49.3866 193.505 48.9852 193.505 48.5667C193.505 48.1482 193.339 47.7469 193.043 47.4509C192.747 47.155 192.345 46.9888 191.927 46.9888Z" fill="#FFE00B"/>
<path d="M191.927 40.7573H143.561C143.143 40.7573 142.742 40.9236 142.446 41.2195C142.15 41.5154 141.983 41.9168 141.983 42.3353C141.983 42.7538 142.15 43.1552 142.446 43.4511C142.742 43.747 143.143 43.9133 143.561 43.9133H191.927C192.345 43.9133 192.747 43.747 193.043 43.4511C193.339 43.1552 193.505 42.7538 193.505 42.3353C193.505 41.9168 193.339 41.5154 193.043 41.2195C192.747 40.9236 192.345 40.7573 191.927 40.7573Z" fill="#FFE00B"/>
<path d="M164.527 34.5227H143.561C143.143 34.5227 142.742 34.689 142.446 34.9849C142.15 35.2808 141.983 35.6822 141.983 36.1007C141.983 36.5192 142.15 36.9205 142.446 37.2165C142.742 37.5124 143.143 37.6787 143.561 37.6787H164.527C164.946 37.6787 165.347 37.5124 165.643 37.2165C165.939 36.9205 166.105 36.5192 166.105 36.1007C166.105 35.6822 165.939 35.2808 165.643 34.9849C165.347 34.689 164.946 34.5227 164.527 34.5227Z" fill="#FFE00B"/>
<path d="M207.368 24.5545C214.148 24.5545 219.645 19.0578 219.645 12.2773C219.645 5.49672 214.148 0 207.368 0C200.587 0 195.091 5.49672 195.091 12.2773C195.091 19.0578 200.587 24.5545 207.368 24.5545Z" fill="#FFE00B"/>
<path d="M205.693 18.6669C205.481 18.6669 205.272 18.6175 205.082 18.5227C204.893 18.4279 204.728 18.2902 204.601 18.1205L201.251 13.6546C201.143 13.5111 201.064 13.3478 201.019 13.1738C200.974 12.9999 200.964 12.8188 200.989 12.6409C201.014 12.463 201.074 12.2918 201.166 12.1372C201.257 11.9825 201.378 11.8475 201.522 11.7397C201.666 11.6319 201.829 11.5535 202.004 11.5091C202.178 11.4646 202.359 11.4549 202.537 11.4806C202.714 11.5062 202.885 11.5667 203.04 11.6586C203.194 11.7504 203.329 11.8718 203.436 12.0159L205.628 14.9374L211.256 6.49536C211.457 6.19398 211.769 5.98477 212.124 5.91373C212.479 5.8427 212.848 5.91567 213.15 6.11658C213.451 6.3175 213.66 6.62991 213.731 6.98508C213.802 7.34025 213.729 7.70909 213.528 8.01047L206.829 18.0588C206.708 18.2405 206.545 18.3905 206.354 18.4962C206.163 18.602 205.949 18.6604 205.731 18.6665C205.718 18.6667 205.706 18.6669 205.693 18.6669Z" fill="white"/>
</g>
<defs>
<clipPath id="clip0_5_1656">
<rect width="217.094" height="190" fill="white" transform="translate(88)"/>
</clipPath>
</defs>
</svg>
