<svg width="20" height="20" viewBox="0 0 20 20" fill="none" xmlns="http://www.w3.org/2000/svg">
<path d="M17.8571 0H2.14286C1.57454 0 1.02949 0.225765 0.627628 0.627628C0.225765 1.02949 0 1.57454 0 2.14286V17.8571C0 18.4255 0.225765 18.9705 0.627628 19.3724C1.02949 19.7742 1.57454 20 2.14286 20H17.8571C18.4255 20 18.9705 19.7742 19.3724 19.3724C19.7742 18.9705 20 18.4255 20 17.8571V2.14286C20 1.57454 19.7742 1.02949 19.3724 0.627628C18.9705 0.225765 18.4255 0 17.8571 0ZM6.96429 3.57143C7.35279 3.57143 7.73256 3.68663 8.05558 3.90247C8.37861 4.11831 8.63038 4.42509 8.77905 4.78401C8.92772 5.14294 8.96662 5.53789 8.89083 5.91893C8.81504 6.29996 8.62796 6.64996 8.35325 6.92467C8.07854 7.19938 7.72853 7.38646 7.3475 7.46226C6.96646 7.53805 6.57151 7.49915 6.21259 7.35048C5.85366 7.20181 5.54688 6.95004 5.33104 6.62701C5.1152 6.30399 5 5.92421 5 5.53571C5 5.01475 5.20695 4.51513 5.57533 4.14675C5.9437 3.77838 6.44333 3.57143 6.96429 3.57143ZM17.8132 15.5289C17.7824 15.5851 17.7371 15.6319 17.682 15.6645C17.6269 15.6971 17.564 15.7143 17.5 15.7143H2.5C2.43645 15.7143 2.37405 15.6974 2.31924 15.6652C2.26442 15.6331 2.21917 15.5869 2.18816 15.5314C2.15716 15.476 2.14151 15.4132 2.14283 15.3497C2.14416 15.2862 2.16242 15.2241 2.19571 15.17L5.05286 10.5271C5.08205 10.4796 5.12196 10.4396 5.16939 10.4103C5.21682 10.381 5.27045 10.3632 5.32599 10.3584C5.38153 10.3535 5.43744 10.3617 5.48924 10.3823C5.54104 10.403 5.58729 10.4354 5.62429 10.4771L8.17429 13.3454L12.2029 7.30179C12.2363 7.25282 12.2813 7.21276 12.3337 7.18507C12.3862 7.15738 12.4446 7.14289 12.5039 7.14286C12.5634 7.14349 12.6217 7.15894 12.6736 7.18782C12.7256 7.21669 12.7695 7.25807 12.8014 7.30821L17.8014 15.1654C17.8358 15.2193 17.855 15.2816 17.8571 15.3455C17.8592 15.4095 17.844 15.4728 17.8132 15.5289Z" fill="#18171C"/>
</svg>
